<svg width="21" height="24" viewBox="0 0 21 24" fill="none" xmlns="http://www.w3.org/2000/svg">
<mask id="path-1-inside-1_2449_1871" fill="white">
<path d="M17.0156 0.984375V3.98438H20.0156V6H17.0156V9H15V6H12V3.98438H15V0.984375H17.0156ZM9 12.9844C9.5625 12.9844 10.0312 12.7969 10.4062 12.4219C10.8125 12.0156 11.0156 11.5469 11.0156 11.0156C11.0156 10.4531 10.8125 9.98438 10.4062 9.60938C10.0312 9.20312 9.5625 9 9 9C8.4375 9 7.95312 9.20312 7.54688 9.60938C7.17188 9.98438 6.98438 10.4531 6.98438 11.0156C6.98438 11.5469 7.17188 12.0156 7.54688 12.4219C7.95312 12.7969 8.4375 12.9844 9 12.9844ZM11.0156 3.23438V6.98438H14.0156V9.98438H16.9219C16.9844 10.4219 17.0156 10.8281 17.0156 11.2031C17.0156 14.5156 14.3438 18.4531 9 23.0156C3.65625 18.4531 0.984375 14.5156 0.984375 11.2031C0.984375 9.95312 1.20312 8.82812 1.64062 7.82812C2.07812 6.82813 2.67188 5.96875 3.42188 5.25C4.17188 4.53125 5.01562 3.98438 5.95312 3.60938C6.92188 3.20312 7.9375 3 9 3C9.6875 3 10.3594 3.07813 11.0156 3.23438Z"/>
</mask>
<path d="M17.0156 0.984375H19.0156V-1.01562H17.0156V0.984375ZM17.0156 3.98438H15.0156V5.98438H17.0156V3.98438ZM20.0156 3.98438H22.0156V1.98438H20.0156V3.98438ZM20.0156 6V8H22.0156V6H20.0156ZM17.0156 6V4H15.0156V6H17.0156ZM17.0156 9V11H19.0156V9H17.0156ZM15 9H13V11H15V9ZM15 6H17V4H15V6ZM12 6H10V8H12V6ZM12 3.98438V1.98438H10V3.98438H12ZM15 3.98438V5.98438H17V3.98438H15ZM15 0.984375V-1.01562H13V0.984375H15ZM10.4062 9.60938L8.93664 10.9659L8.99091 11.0247L9.04969 11.079L10.4062 9.60938ZM7.54688 12.4219L6.07727 13.7784L6.13153 13.8372L6.19032 13.8915L7.54688 12.4219ZM11.0156 3.23438H13.0156V1.65466L11.4789 1.28876L11.0156 3.23438ZM11.0156 6.98438H9.01562V8.98438H11.0156V6.98438ZM14.0156 6.98438H16.0156V4.98438H14.0156V6.98438ZM14.0156 9.98438H12.0156V11.9844H14.0156V9.98438ZM16.9219 9.98438L18.9018 9.70153L18.6565 7.98438H16.9219V9.98438ZM9 23.0156L7.70135 24.5366L9 25.6454L10.2986 24.5366L9 23.0156ZM5.95312 3.60938L6.69591 5.46633L6.71129 5.46017L6.72658 5.45376L5.95312 3.60938ZM15.0156 0.984375V3.98438H19.0156V0.984375H15.0156ZM17.0156 5.98438H20.0156V1.98438H17.0156V5.98438ZM18.0156 3.98438V6H22.0156V3.98438H18.0156ZM20.0156 4H17.0156V8H20.0156V4ZM15.0156 6V9H19.0156V6H15.0156ZM17.0156 7H15V11H17.0156V7ZM17 9V6H13V9H17ZM15 4H12V8H15V4ZM14 6V3.98438H10V6H14ZM12 5.98438H15V1.98438H12V5.98438ZM17 3.98438V0.984375H13V3.98438H17ZM15 2.98438H17.0156V-1.01562H15V2.98438ZM9 14.9844C10.0572 14.9844 11.0459 14.6107 11.8205 13.8361L8.99204 11.0077C8.98715 11.0125 8.989 11.0099 8.99802 11.0039C9.00229 11.001 9.00745 10.9979 9.01333 10.9948C9.01922 10.9917 9.02509 10.989 9.03066 10.9868C9.04241 10.9821 9.04872 10.9811 9.04653 10.9815C9.04392 10.982 9.02933 10.9844 9 10.9844V14.9844ZM11.8205 13.8361C12.5681 13.0885 13.0156 12.1232 13.0156 11.0156H9.01562C9.01562 11.0202 9.01527 11.0155 9.01756 11.0042C9.01865 10.9989 9.02014 10.993 9.02207 10.9869C9.024 10.9807 9.02611 10.9752 9.02817 10.9704C9.03254 10.9603 9.03507 10.9575 9.03164 10.9625C9.02795 10.9678 9.01647 10.9832 8.99204 11.0077L11.8205 13.8361ZM13.0156 11.0156C13.0156 9.90598 12.5873 8.90081 11.7628 8.13977L9.04969 11.079C9.05931 11.0879 9.0581 11.0883 9.05149 11.0792C9.04463 11.0697 9.03592 11.0553 9.02817 11.0374C9.02045 11.0196 9.01671 11.0053 9.01524 10.9978C9.01387 10.9909 9.01562 10.9957 9.01562 11.0156H13.0156ZM11.8759 8.25282C11.1148 7.42835 10.1096 7 9 7V11C9.0199 11 9.02475 11.0018 9.01778 11.0004C9.01033 10.9989 8.99605 10.9952 8.97822 10.9875C8.96034 10.9797 8.94594 10.971 8.93644 10.9641C8.9273 10.9575 8.92776 10.9563 8.93664 10.9659L11.8759 8.25282ZM9 7C7.89449 7 6.905 7.42283 6.13266 8.19516L8.96109 11.0236C8.98082 11.0039 8.99265 10.9954 8.99558 10.9934C8.99819 10.9916 8.99546 10.9937 8.9883 10.9967C8.98107 10.9998 8.97539 11.0011 8.97373 11.0015C8.9724 11.0017 8.98026 11 9 11V7ZM6.13266 8.19516C5.35807 8.96975 4.98438 9.9584 4.98438 11.0156H8.98438C8.98438 10.9863 8.9868 10.9717 8.98727 10.9691C8.98767 10.9669 8.98665 10.9732 8.98195 10.985C8.97973 10.9905 8.97704 10.9964 8.97394 11.0023C8.97084 11.0082 8.96773 11.0133 8.96488 11.0176C8.95887 11.0266 8.95621 11.0285 8.96109 11.0236L6.13266 8.19516ZM4.98438 11.0156C4.98438 12.0718 5.37654 13.0193 6.07727 13.7784L9.01648 11.0653C8.99659 11.0438 8.98686 11.0297 8.98314 11.024C8.9796 11.0184 8.98014 11.0183 8.98195 11.0228C8.98381 11.0275 8.9849 11.0318 8.98528 11.0338C8.98561 11.0355 8.98438 11.0302 8.98438 11.0156H4.98438ZM6.19032 13.8915C6.97308 14.614 7.94443 14.9844 9 14.9844V10.9844C8.97083 10.9844 8.95337 10.982 8.94537 10.9805C8.93767 10.9792 8.93558 10.9781 8.93683 10.9786C8.93812 10.9791 8.93764 10.9792 8.9342 10.977C8.93054 10.9747 8.92014 10.9677 8.90343 10.9523L6.19032 13.8915ZM9.01562 3.23438V6.98438H13.0156V3.23438H9.01562ZM11.0156 8.98438H14.0156V4.98438H11.0156V8.98438ZM12.0156 6.98438V9.98438H16.0156V6.98438H12.0156ZM14.0156 11.9844H16.9219V7.98438H14.0156V11.9844ZM14.942 10.2672C14.9934 10.6271 15.0156 10.9377 15.0156 11.2031H19.0156C19.0156 10.7186 18.9754 10.2167 18.9018 9.70153L14.942 10.2672ZM15.0156 11.2031C15.0156 12.3193 14.5617 13.742 13.3568 15.5176C12.1567 17.2862 10.2954 19.2798 7.70135 21.4946L10.2986 24.5366C13.0484 22.1889 15.1949 19.9326 16.6667 17.7636C18.1337 15.6018 19.0156 13.3994 19.0156 11.2031H15.0156ZM10.2986 21.4946C7.70465 19.2798 5.84333 17.2862 4.64323 15.5176C3.43834 13.742 2.98438 12.3193 2.98438 11.2031H-1.01562C-1.01562 13.3994 -0.133651 15.6018 1.33333 17.7636C2.8051 19.9326 4.9516 22.1889 7.70135 24.5366L10.2986 21.4946ZM2.98438 11.2031C2.98438 10.1892 3.16097 9.34284 3.47294 8.62976L-0.19169 7.02649C-0.754719 8.31341 -1.01562 9.71708 -1.01562 11.2031H2.98438ZM3.47294 8.62976C3.8102 7.85888 4.25565 7.22109 4.80569 6.69398L2.03806 3.80602C1.0881 4.71641 0.346051 5.79737 -0.19169 7.02649L3.47294 8.62976ZM4.80569 6.69398C5.37592 6.1475 6.00349 5.74329 6.69591 5.46633L5.21034 1.75242C4.02776 2.22546 2.96783 2.915 2.03806 3.80602L4.80569 6.69398ZM6.72658 5.45376C7.44754 5.15143 8.19997 5 9 5V1C7.67503 1 6.39621 1.25482 5.17967 1.76499L6.72658 5.45376ZM9 5C9.53449 5 10.0508 5.06056 10.5524 5.17999L11.4789 1.28876C10.668 1.09569 9.84051 1 9 1V5Z" fill="#1C3B87" mask="url(#path-1-inside-1_2449_1871)"/>
</svg>
