<svg width="18" height="20" viewBox="0 0 18 20" fill="none" xmlns="http://www.w3.org/2000/svg">
<mask id="path-1-inside-1_2903_6180" fill="white">
<path d="M11 8V4H12.3438V5.34375H15V6.65625H12.3438V8H11ZM15 10.6562H8.34375V9.34375H15V10.6562ZM5.65625 8H7V12H5.65625V10.6562H3V9.34375H5.65625V8ZM9.65625 16H8.34375V12H9.65625V13.3438H15V14.6562H9.65625V16ZM3 5.34375H9.65625V6.65625H3V5.34375ZM3 13.3438H7V14.6562H3V13.3438Z"/>
</mask>
<path d="M11 8H9V10H11V8ZM11 4V2H9V4H11ZM12.3438 4H14.3438V2H12.3438V4ZM12.3438 5.34375H10.3438V7.34375H12.3438V5.34375ZM15 5.34375H17V3.34375H15V5.34375ZM15 6.65625V8.65625H17V6.65625H15ZM12.3438 6.65625V4.65625H10.3438V6.65625H12.3438ZM12.3438 8V10H14.3438V8H12.3438ZM15 10.6562V12.6562H17V10.6562H15ZM8.34375 10.6562H6.34375V12.6562H8.34375V10.6562ZM8.34375 9.34375V7.34375H6.34375V9.34375H8.34375ZM15 9.34375H17V7.34375H15V9.34375ZM5.65625 8V6H3.65625V8H5.65625ZM7 8H9V6H7V8ZM7 12V14H9V12H7ZM5.65625 12H3.65625V14H5.65625V12ZM5.65625 10.6562H7.65625V8.65625H5.65625V10.6562ZM3 10.6562H1V12.6562H3V10.6562ZM3 9.34375V7.34375H1V9.34375H3ZM5.65625 9.34375V11.3438H7.65625V9.34375H5.65625ZM9.65625 16V18H11.6562V16H9.65625ZM8.34375 16H6.34375V18H8.34375V16ZM8.34375 12V10H6.34375V12H8.34375ZM9.65625 12H11.6562V10H9.65625V12ZM9.65625 13.3438H7.65625V15.3438H9.65625V13.3438ZM15 13.3438H17V11.3438H15V13.3438ZM15 14.6562V16.6562H17V14.6562H15ZM9.65625 14.6562V12.6562H7.65625V14.6562H9.65625ZM3 5.34375V3.34375H1V5.34375H3ZM9.65625 5.34375H11.6562V3.34375H9.65625V5.34375ZM9.65625 6.65625V8.65625H11.6562V6.65625H9.65625ZM3 6.65625H1V8.65625H3V6.65625ZM3 13.3438V11.3438H1V13.3438H3ZM7 13.3438H9V11.3438H7V13.3438ZM7 14.6562V16.6562H9V14.6562H7ZM3 14.6562H1V16.6562H3V14.6562ZM13 8V4H9V8H13ZM11 6H12.3438V2H11V6ZM10.3438 4V5.34375H14.3438V4H10.3438ZM12.3438 7.34375H15V3.34375H12.3438V7.34375ZM13 5.34375V6.65625H17V5.34375H13ZM15 4.65625H12.3438V8.65625H15V4.65625ZM10.3438 6.65625V8H14.3438V6.65625H10.3438ZM12.3438 6H11V10H12.3438V6ZM15 8.65625H8.34375V12.6562H15V8.65625ZM10.3438 10.6562V9.34375H6.34375V10.6562H10.3438ZM8.34375 11.3438H15V7.34375H8.34375V11.3438ZM13 9.34375V10.6562H17V9.34375H13ZM5.65625 10H7V6H5.65625V10ZM5 8V12H9V8H5ZM7 10H5.65625V14H7V10ZM7.65625 12V10.6562H3.65625V12H7.65625ZM5.65625 8.65625H3V12.6562H5.65625V8.65625ZM5 10.6562V9.34375H1V10.6562H5ZM3 11.3438H5.65625V7.34375H3V11.3438ZM7.65625 9.34375V8H3.65625V9.34375H7.65625ZM9.65625 14H8.34375V18H9.65625V14ZM10.3438 16V12H6.34375V16H10.3438ZM8.34375 14H9.65625V10H8.34375V14ZM7.65625 12V13.3438H11.6562V12H7.65625ZM9.65625 15.3438H15V11.3438H9.65625V15.3438ZM13 13.3438V14.6562H17V13.3438H13ZM15 12.6562H9.65625V16.6562H15V12.6562ZM7.65625 14.6562V16H11.6562V14.6562H7.65625ZM3 7.34375H9.65625V3.34375H3V7.34375ZM7.65625 5.34375V6.65625H11.6562V5.34375H7.65625ZM9.65625 4.65625H3V8.65625H9.65625V4.65625ZM5 6.65625V5.34375H1V6.65625H5ZM3 15.3438H7V11.3438H3V15.3438ZM5 13.3438V14.6562H9V13.3438H5ZM7 12.6562H3V16.6562H7V12.6562ZM5 14.6562V13.3438H1V14.6562H5Z" fill="#1C3B87" mask="url(#path-1-inside-1_2903_6180)"/>
</svg>
