<svg width="26" height="26" viewBox="0 0 26 26" fill="none" xmlns="http://www.w3.org/2000/svg">
<mask id="path-1-inside-1_2566_2243" fill="white">
<path d="M19.9844 13.9844H13.9844V19.9844H12.0156V13.9844H6.01562V12.0156H12.0156V6.01562H13.9844V12.0156H19.9844V13.9844Z"/>
</mask>
<path d="M19.9844 13.9844V15.9844H21.9844V13.9844H19.9844ZM13.9844 13.9844V11.9844H11.9844V13.9844H13.9844ZM13.9844 19.9844V21.9844H15.9844V19.9844H13.9844ZM12.0156 19.9844H10.0156V21.9844H12.0156V19.9844ZM12.0156 13.9844H14.0156V11.9844H12.0156V13.9844ZM6.01562 13.9844H4.01562V15.9844H6.01562V13.9844ZM6.01562 12.0156V10.0156H4.01562V12.0156H6.01562ZM12.0156 12.0156V14.0156H14.0156V12.0156H12.0156ZM12.0156 6.01562V4.01562H10.0156V6.01562H12.0156ZM13.9844 6.01562H15.9844V4.01562H13.9844V6.01562ZM13.9844 12.0156H11.9844V14.0156H13.9844V12.0156ZM19.9844 12.0156H21.9844V10.0156H19.9844V12.0156ZM19.9844 11.9844H13.9844V15.9844H19.9844V11.9844ZM11.9844 13.9844V19.9844H15.9844V13.9844H11.9844ZM13.9844 17.9844H12.0156V21.9844H13.9844V17.9844ZM14.0156 19.9844V13.9844H10.0156V19.9844H14.0156ZM12.0156 11.9844H6.01562V15.9844H12.0156V11.9844ZM8.01562 13.9844V12.0156H4.01562V13.9844H8.01562ZM6.01562 14.0156H12.0156V10.0156H6.01562V14.0156ZM14.0156 12.0156V6.01562H10.0156V12.0156H14.0156ZM12.0156 8.01562H13.9844V4.01562H12.0156V8.01562ZM11.9844 6.01562V12.0156H15.9844V6.01562H11.9844ZM13.9844 14.0156H19.9844V10.0156H13.9844V14.0156ZM17.9844 12.0156V13.9844H21.9844V12.0156H17.9844Z" fill="#1C3B87" mask="url(#path-1-inside-1_2566_2243)"/>
</svg>
