<svg width="26" height="26" viewBox="0 0 26 26" fill="none" xmlns="http://www.w3.org/2000/svg">
<mask id="path-1-inside-1_2566_1171" fill="white">
<path d="M10.8906 10.8906C11.4844 10.2969 12.1875 10 13 10C13.8125 10 14.5156 10.2969 15.1094 10.8906C15.7031 11.4844 16 12.1875 16 13C16 13.8125 15.7031 14.5156 15.1094 15.1094C14.5156 15.7031 13.8125 16 13 16C12.1875 16 11.4844 15.7031 10.8906 15.1094C10.2969 14.5156 10 13.8125 10 13C10 12.1875 10.2969 11.4844 10.8906 10.8906ZM19.9844 19.9844V16H22V19.9844C22 20.5156 21.7969 20.9844 21.3906 21.3906C20.9844 21.7969 20.5156 22 19.9844 22H16V19.9844H19.9844ZM19.9844 4C20.5156 4 20.9844 4.20312 21.3906 4.60938C21.7969 5.01563 22 5.48438 22 6.01562V10H19.9844V6.01562H16V4H19.9844ZM6.01562 6.01562V10H4V6.01562C4 5.48438 4.20312 5.01563 4.60938 4.60938C5.01562 4.20312 5.48438 4 6.01562 4H10V6.01562H6.01562ZM6.01562 16V19.9844H10V22H6.01562C5.48438 22 5.01562 21.7969 4.60938 21.3906C4.20312 20.9844 4 20.5156 4 19.9844V16H6.01562Z"/>
</mask>
<path d="M19.9844 19.9844V21.9844H21.9844V19.9844H19.9844ZM19.9844 16V14H17.9844V16H19.9844ZM22 16H24V14H22V16ZM16 22H14V24H16V22ZM16 19.9844V17.9844H14V19.9844H16ZM22 10V12H24V10H22ZM19.9844 10H17.9844V12H19.9844V10ZM19.9844 6.01562H21.9844V4.01562H19.9844V6.01562ZM16 6.01562H14V8.01562H16V6.01562ZM16 4V2H14V4H16ZM6.01562 6.01562V4.01562H4.01562V6.01562H6.01562ZM6.01562 10V12H8.01562V10H6.01562ZM4 10H2V12H4V10ZM10 4H12V2H10V4ZM10 6.01562V8.01562H12V6.01562H10ZM6.01562 16H8.01562V14H6.01562V16ZM6.01562 19.9844H4.01562V21.9844H6.01562V19.9844ZM10 19.9844H12V17.9844H10V19.9844ZM10 22V24H12V22H10ZM4 16V14H2V16H4ZM12.3048 12.3048C12.5375 12.0721 12.7374 12 13 12V8C11.6376 8 10.4312 8.52162 9.47641 9.47641L12.3048 12.3048ZM13 12C13.2626 12 13.4625 12.0721 13.6952 12.3048L16.5236 9.47641C15.5688 8.52162 14.3624 8 13 8V12ZM13.6952 12.3048C13.9279 12.5375 14 12.7374 14 13H18C18 11.6376 17.4784 10.4312 16.5236 9.47641L13.6952 12.3048ZM14 13C14 13.2626 13.9279 13.4625 13.6952 13.6952L16.5236 16.5236C17.4784 15.5688 18 14.3624 18 13H14ZM13.6952 13.6952C13.4625 13.9279 13.2626 14 13 14V18C14.3624 18 15.5688 17.4784 16.5236 16.5236L13.6952 13.6952ZM13 14C12.7374 14 12.5375 13.9279 12.3048 13.6952L9.47641 16.5236C10.4312 17.4784 11.6376 18 13 18V14ZM12.3048 13.6952C12.0721 13.4625 12 13.2626 12 13H8C8 14.3624 8.52162 15.5688 9.47641 16.5236L12.3048 13.6952ZM12 13C12 12.7374 12.0721 12.5375 12.3048 12.3048L9.47641 9.47641C8.52162 10.4312 8 11.6376 8 13H12ZM21.9844 19.9844V16H17.9844V19.9844H21.9844ZM19.9844 18H22V14H19.9844V18ZM20 16V19.9844H24V16H20ZM20 19.9844C20 19.989 19.9996 19.9843 20.0019 19.973C20.003 19.9676 20.0045 19.9617 20.0064 19.9556C20.0084 19.9495 20.0105 19.9439 20.0125 19.9392C20.0169 19.9291 20.0194 19.9263 20.016 19.9312C20.0123 19.9365 20.0008 19.952 19.9764 19.9764L22.8048 22.8048C23.5524 22.0572 24 21.0919 24 19.9844H20ZM19.9764 19.9764C19.952 20.0008 19.9365 20.0123 19.9312 20.016C19.9263 20.0194 19.9291 20.0169 19.9392 20.0125C19.9439 20.0105 19.9495 20.0084 19.9556 20.0064C19.9617 20.0045 19.9676 20.003 19.973 20.0019C19.9843 19.9996 19.989 20 19.9844 20V24C21.0919 24 22.0572 23.5524 22.8048 22.8048L19.9764 19.9764ZM19.9844 20H16V24H19.9844V20ZM18 22V19.9844H14V22H18ZM16 21.9844H19.9844V17.9844H16V21.9844ZM19.9844 6C19.989 6 19.9843 6.00036 19.973 5.99806C19.9676 5.99698 19.9617 5.99548 19.9556 5.99356C19.9495 5.99163 19.9439 5.98952 19.9392 5.98745C19.9291 5.98308 19.9263 5.98055 19.9312 5.98399C19.9365 5.98767 19.952 5.99916 19.9764 6.02359L22.8048 3.19516C22.0572 2.44757 21.0919 2 19.9844 2V6ZM19.9764 6.02359C20.0008 6.04802 20.0123 6.06348 20.016 6.06877C20.0194 6.0737 20.0169 6.07093 20.0125 6.06084C20.0105 6.05608 20.0084 6.05052 20.0064 6.04439C20.0045 6.03826 20.003 6.03237 20.0019 6.02703C19.9996 6.01571 20 6.01102 20 6.01562H24C24 4.90807 23.5524 3.94276 22.8048 3.19516L19.9764 6.02359ZM20 6.01562V10H24V6.01562H20ZM22 8H19.9844V12H22V8ZM21.9844 10V6.01562H17.9844V10H21.9844ZM19.9844 4.01562H16V8.01562H19.9844V4.01562ZM18 6.01562V4H14V6.01562H18ZM16 6H19.9844V2H16V6ZM4.01562 6.01562V10H8.01562V6.01562H4.01562ZM6.01562 8H4V12H6.01562V8ZM6 10V6.01562H2V10H6ZM6 6.01562C6 6.01102 6.00036 6.01571 5.99806 6.02703C5.99698 6.03237 5.99548 6.03826 5.99356 6.04439C5.99163 6.05052 5.98952 6.05608 5.98745 6.06084C5.98308 6.07093 5.98055 6.0737 5.98399 6.06877C5.98767 6.06348 5.99916 6.04802 6.02359 6.02359L3.19516 3.19516C2.44757 3.94276 2 4.90807 2 6.01562H6ZM6.02359 6.02359C6.04802 5.99916 6.06348 5.98767 6.06877 5.98399C6.0737 5.98055 6.07093 5.98308 6.06084 5.98745C6.05608 5.98952 6.05052 5.99163 6.04439 5.99356C6.03826 5.99548 6.03237 5.99698 6.02703 5.99806C6.01571 6.00036 6.01102 6 6.01562 6V2C4.90807 2 3.94276 2.44757 3.19516 3.19516L6.02359 6.02359ZM6.01562 6H10V2H6.01562V6ZM8 4V6.01562H12V4H8ZM10 4.01562H6.01562V8.01562H10V4.01562ZM4.01562 16V19.9844H8.01562V16H4.01562ZM6.01562 21.9844H10V17.9844H6.01562V21.9844ZM8 19.9844V22H12V19.9844H8ZM10 20H6.01562V24H10V20ZM6.01562 20C6.01102 20 6.01571 19.9996 6.02703 20.0019C6.03237 20.003 6.03826 20.0045 6.04439 20.0064C6.05052 20.0084 6.05608 20.0105 6.06084 20.0125C6.07093 20.0169 6.0737 20.0194 6.06877 20.016C6.06348 20.0123 6.04802 20.0008 6.02359 19.9764L3.19516 22.8048C3.94276 23.5524 4.90807 24 6.01562 24V20ZM6.02359 19.9764C5.99916 19.952 5.98767 19.9365 5.98399 19.9312C5.98055 19.9263 5.98308 19.9291 5.98745 19.9392C5.98952 19.9439 5.99163 19.9495 5.99356 19.9556C5.99548 19.9617 5.99698 19.9676 5.99806 19.973C6.00036 19.9843 6 19.989 6 19.9844H2C2 21.0919 2.44757 22.0572 3.19516 22.8048L6.02359 19.9764ZM6 19.9844V16H2V19.9844H6ZM4 18H6.01562V14H4V18Z" fill="#1C3B87" mask="url(#path-1-inside-1_2566_1171)"/>
</svg>
