<?xml version="1.0" encoding="utf-8"?>
<!-- Generator: Adobe Illustrator 26.3.1, SVG Export Plug-In . SVG Version: 6.00 Build 0)  -->
<svg version="1.1" id="Calque_1" xmlns="http://www.w3.org/2000/svg" xmlns:xlink="http://www.w3.org/1999/xlink" x="0px" y="0px"
	 width="48px" height="58px" viewBox="0 0 48 58" style="enable-background:new 0 0 48 58;" xml:space="preserve">
<style type="text/css">
	.st0{fill:#F6CC47;fill-opacity:0.2;}
	.st1{fill:none;stroke:#F6CC47;stroke-dasharray:2,2;}
	.st2{fill:#FFFFFF;}
	.st3{fill:#FFFFFF;filter:url(#Adobe_OpacityMaskFilter);}
	.st4{mask:url(#path-2-inside-1_1744_14960_00000132791655559324207500000018078919754264840583_);fill:#1C3B87;}
</style>
<path class="st0" d="M5.1,18.7h32c1.9,0,3.5,1.6,3.5,3.5v32c0,1.9-1.6,3.5-3.5,3.5h-32c-1.9,0-3.5-1.6-3.5-3.5v-32
	C1.6,20.2,3.2,18.7,5.1,18.7z"/>
<path class="st1" d="M5.1,18.7h32c1.9,0,3.5,1.6,3.5,3.5v32c0,1.9-1.6,3.5-3.5,3.5h-32c-1.9,0-3.5-1.6-3.5-3.5v-32
	C1.6,20.2,3.2,18.7,5.1,18.7z"/>
<g>
	<path class="st2" d="M3.4,8.5l30.9-8.3c2.1-0.6,4.3,0.7,4.9,2.8L47.5,34c0.6,2.1-0.7,4.3-2.8,4.9l-30.9,8.3
		c-2.1,0.6-4.3-0.7-4.9-2.8L0.5,13.4C0,11.3,1.2,9.1,3.4,8.5z"/>
	<defs>
		<filter id="Adobe_OpacityMaskFilter" filterUnits="userSpaceOnUse" x="14.6" y="14.2" width="18.9" height="18.9">
			<feColorMatrix  type="matrix" values="1 0 0 0 0  0 1 0 0 0  0 0 1 0 0  0 0 0 1 0"/>
		</filter>
	</defs>
	
		<mask maskUnits="userSpaceOnUse" x="14.6" y="14.2" width="18.9" height="18.9" id="path-2-inside-1_1744_14960_00000132791655559324207500000018078919754264840583_">
		<path class="st3" d="M31,22.8l-5.8,1.6l1.6,5.8l-1.9,0.5l-1.6-5.8l-5.8,1.6L17,24.5l5.8-1.6l-1.6-5.8l1.9-0.5l1.6,5.8l5.8-1.6
			L31,22.8z"/>
	</mask>
	<path class="st4" d="M31,22.8l0.5,1.9l1.9-0.5l-0.5-1.9L31,22.8z M25.2,24.4l-0.5-1.9L22.8,23l0.5,1.9L25.2,24.4z M26.8,30.2
		l0.5,1.9l1.9-0.5l-0.5-1.9L26.8,30.2z M24.9,30.7l-1.9,0.5l0.5,1.9l1.9-0.5L24.9,30.7z M23.3,24.9l1.9-0.5l-0.5-1.9L22.8,23
		L23.3,24.9z M17.5,26.4L15.6,27l0.5,1.9l1.9-0.5L17.5,26.4z M17,24.5l-0.5-1.9l-1.9,0.5l0.5,1.9L17,24.5z M22.8,23l0.5,1.9l1.9-0.5
		l-0.5-1.9L22.8,23z M21.2,17.2l-0.5-1.9l-1.9,0.5l0.5,1.9L21.2,17.2z M23.2,16.7l1.9-0.5l-0.5-1.9l-1.9,0.5L23.2,16.7z M24.7,22.5
		L22.8,23l0.5,1.9l1.9-0.5L24.7,22.5z M30.5,20.9l1.9-0.5l-0.5-1.9L30,19L30.5,20.9z M30.5,20.9l-5.8,1.6l1,3.9l5.8-1.6L30.5,20.9z
		 M23.3,24.9l1.6,5.8l3.9-1l-1.6-5.8L23.3,24.9z M26.2,28.2l-1.9,0.5l1,3.9l1.9-0.5L26.2,28.2z M26.8,30.2l-1.6-5.8l-3.9,1l1.6,5.8
		L26.8,30.2z M22.8,23L17,24.5l1,3.9l5.8-1.6L22.8,23z M19.4,25.9L18.9,24l-3.9,1l0.5,1.9L19.4,25.9z M17.5,26.5l5.8-1.6l-1-3.9
		l-5.8,1.6L17.5,26.5z M24.7,22.5l-1.6-5.8l-3.9,1l1.6,5.8L24.7,22.5z M21.8,19.1l1.9-0.5l-1-3.9l-1.9,0.5L21.8,19.1z M21.2,17.2
		l1.6,5.8l3.9-1l-1.6-5.8L21.2,17.2z M25.2,24.4l5.8-1.6L30,19l-5.8,1.6L25.2,24.4z M28.6,21.4l0.5,1.9l3.9-1l-0.5-1.9L28.6,21.4z"
		/>
</g>
</svg>
