<svg width="500" height="25" viewBox="0 0 500 25" fill="none" xmlns="http://www.w3.org/2000/svg">
<path d="M393.042 1.89866C390.79 3.01559 388.698 4.44827 386.79 6.08799C384.83 7.77351 383.05 9.675 381.475 11.7289C379.934 13.7381 378.583 15.8992 377.463 18.1736C376.412 20.3094 375.571 22.5543 375.031 24.8768C375.024 24.9074 375.013 24.9334 375 24.9572H399.428V0H398.4C396.544 0.400634 394.741 1.05574 393.042 1.89866Z" fill="#E83323"/>
<path d="M237.5 25H250V12.5V0H237.5H225V12.5V25H237.5Z" fill="#F6CC47"/>
<path d="M412.5 25H425V12.5V0H412.5H400V12.5V25H412.5Z" fill="#FDF5DA"/>
<path d="M162.5 25H175V12.5V0H162.5H150V12.5V25H162.5Z" fill="#1C3B87"/>
<path d="M187.5 25H200V12.5V0L175 25H187.5Z" fill="#88D84A"/>
<path d="M-0.000122617 12.5L-0.000123163 25L12.4999 25L24.9999 25L-0.00012207 -1.09278e-06L-0.000122617 12.5Z" fill="#FDF5DA"/>
<path d="M187.5 -1.09279e-06L175 -2.18557e-06L175 12.5L175 25L200 0L187.5 -1.09279e-06Z" fill="#E83323"/>
<path d="M25 12.5L25 3.27835e-06L12.5 1.63918e-06L3.27835e-06 0L25 25L25 12.5Z" fill="#1C3B87"/>
<g clip-path="url(#clip0_1438_979)">
<path d="M375 0H350V25H375V0Z" fill="#2D6438"/>
<path d="M353.697 5.6946C354.801 5.6946 355.695 4.80037 355.695 3.69727C355.695 2.59418 354.801 1.69995 353.697 1.69995C352.594 1.69995 351.7 2.59418 351.7 3.69727C351.7 4.80037 352.594 5.6946 353.697 5.6946Z" fill="white"/>
<path d="M359.566 5.6946C360.669 5.6946 361.563 4.80037 361.563 3.69727C361.563 2.59418 360.669 1.69995 359.566 1.69995C358.463 1.69995 357.569 2.59418 357.569 3.69727C357.569 4.80037 358.463 5.6946 359.566 5.6946Z" fill="white"/>
<path d="M365.434 5.6946C366.537 5.6946 367.432 4.80037 367.432 3.69727C367.432 2.59418 366.537 1.69995 365.434 1.69995C364.331 1.69995 363.437 2.59418 363.437 3.69727C363.437 4.80037 364.331 5.6946 365.434 5.6946Z" fill="white"/>
<path d="M373.3 3.69727C373.3 4.80036 372.406 5.6946 371.303 5.6946C370.2 5.6946 369.305 4.80036 369.305 3.69727C369.305 2.59419 370.2 1.69995 371.303 1.69995C372.406 1.69995 373.3 2.59419 373.3 3.69727Z" fill="white"/>
<path d="M355.695 9.56572C355.695 10.6688 354.801 11.563 353.697 11.563C352.594 11.563 351.7 10.6688 351.7 9.56572C351.7 8.46264 352.594 7.56836 353.697 7.56836C354.801 7.56836 355.695 8.4626 355.695 9.56572Z" fill="white"/>
<path d="M361.563 9.56572C361.563 10.6688 360.669 11.563 359.566 11.563C358.463 11.563 357.569 10.6688 357.569 9.56572C357.569 8.46264 358.463 7.56836 359.566 7.56836C360.669 7.56836 361.563 8.4626 361.563 9.56572Z" fill="white"/>
<path d="M367.432 9.56572C367.432 10.6688 366.537 11.563 365.434 11.563C364.331 11.563 363.437 10.6688 363.437 9.56572C363.437 8.46264 364.331 7.56836 365.434 7.56836C366.537 7.56836 367.432 8.4626 367.432 9.56572Z" fill="white"/>
<path d="M373.3 9.56572C373.3 10.6688 372.406 11.563 371.303 11.563C370.2 11.563 369.305 10.6688 369.305 9.56572C369.305 8.46264 370.2 7.56836 371.303 7.56836C372.406 7.56836 373.3 8.4626 373.3 9.56572Z" fill="white"/>
<path d="M355.695 15.4344C355.695 16.5375 354.801 17.4317 353.697 17.4317C352.594 17.4317 351.7 16.5375 351.7 15.4344C351.7 14.3313 352.594 13.437 353.697 13.437C354.801 13.437 355.695 14.3313 355.695 15.4344Z" fill="white"/>
<path d="M361.563 15.4344C361.563 16.5375 360.669 17.4317 359.566 17.4317C358.463 17.4317 357.569 16.5375 357.569 15.4344C357.569 14.3313 358.463 13.437 359.566 13.437C360.669 13.437 361.563 14.3313 361.563 15.4344Z" fill="white"/>
<path d="M367.432 15.4344C367.432 16.5375 366.537 17.4317 365.434 17.4317C364.331 17.4317 363.437 16.5375 363.437 15.4344C363.437 14.3313 364.331 13.437 365.434 13.437C366.537 13.437 367.432 14.3313 367.432 15.4344Z" fill="white"/>
<path d="M373.3 15.4344C373.3 16.5375 372.406 17.4317 371.303 17.4317C370.2 17.4317 369.305 16.5375 369.305 15.4344C369.305 14.3313 370.2 13.437 371.303 13.437C372.406 13.437 373.3 14.3313 373.3 15.4344Z" fill="white"/>
<path d="M353.697 23.3001C354.801 23.3001 355.695 22.4058 355.695 21.3027C355.695 20.1997 354.801 19.3054 353.697 19.3054C352.594 19.3054 351.7 20.1997 351.7 21.3027C351.7 22.4058 352.594 23.3001 353.697 23.3001Z" fill="white"/>
<path d="M359.566 23.3001C360.669 23.3001 361.563 22.4058 361.563 21.3027C361.563 20.1997 360.669 19.3054 359.566 19.3054C358.463 19.3054 357.569 20.1997 357.569 21.3027C357.569 22.4058 358.463 23.3001 359.566 23.3001Z" fill="white"/>
<path d="M365.434 23.3001C366.537 23.3001 367.432 22.4058 367.432 21.3027C367.432 20.1997 366.537 19.3054 365.434 19.3054C364.331 19.3054 363.437 20.1997 363.437 21.3027C363.437 22.4058 364.331 23.3001 365.434 23.3001Z" fill="white"/>
<path d="M373.3 21.3027C373.3 22.4058 372.406 23.3001 371.303 23.3001C370.2 23.3001 369.305 22.4058 369.305 21.3027C369.305 20.1997 370.2 19.3054 371.303 19.3054C372.406 19.3054 373.3 20.1997 373.3 21.3027Z" fill="white"/>
</g>
<g clip-path="url(#clip1_1438_979)">
<path d="M49.9999 25H37.4999C30.5963 25 24.9999 19.4036 24.9999 12.5C24.9999 5.59644 30.5963 0 37.4999 0H49.9999V25Z" fill="#2D6438"/>
</g>
<g clip-path="url(#clip2_1438_979)">
<path d="M475 25L475 12.5C475 5.59644 480.596 -8.48157e-07 487.5 -5.46392e-07C494.404 -2.44628e-07 500 5.59644 500 12.5L500 25L475 25Z" fill="#F6CC47"/>
</g>
<g clip-path="url(#clip3_1438_979)">
<path d="M450 25L450 0L425 -1.09278e-06L425 25L450 25Z" fill="white"/>
<path d="M450 11.375L450 9.125L425 9.125L425 11.375L450 11.375Z" fill="#111EF7"/>
<path d="M450 6.875L450 4.625L425 4.625L425 6.875L450 6.875Z" fill="#111EF7"/>
<path d="M450 2.375L450 0L425 -1.09278e-06L425 2.375L450 2.375Z" fill="#111EF7"/>
<path d="M450 20.375L450 18.125L425 18.125L425 20.375L450 20.375Z" fill="#111EF7"/>
<path d="M450 25L450 22.625L425 22.625L425 25L450 25Z" fill="#111EF7"/>
<path d="M450 15.875L450 13.625L425 13.625L425 15.875L450 15.875Z" fill="#111EF7"/>
</g>
<g clip-path="url(#clip4_1438_979)">
<path d="M112.5 6.23333C115.961 6.23333 118.767 9.03902 118.767 12.5C118.767 9.05027 121.555 6.2532 125 6.23501V6.23165C121.566 6.21351 118.787 3.43418 118.768 0H118.765C118.747 3.44544 115.95 6.23333 112.5 6.23333Z" fill="#88D84A"/>
<path d="M106.233 12.5C106.233 9.03903 109.039 6.23333 112.5 6.23333C109.05 6.23333 106.253 3.44544 106.235 0H106.232C106.214 3.43421 103.434 6.21351 100 6.23165V6.23501C103.446 6.2532 106.233 9.05028 106.233 12.5Z" fill="#88D84A"/>
<path d="M118.767 12.5C118.767 15.961 115.961 18.7667 112.5 18.7667C115.95 18.7667 118.747 21.5545 118.765 25H118.768C118.787 21.5658 121.566 18.7865 125 18.7684V18.765C121.555 18.7468 118.767 15.9497 118.767 12.5Z" fill="#88D84A"/>
<path d="M106.232 25H106.235C106.253 21.5545 109.05 18.7667 112.5 18.7667C109.039 18.7667 106.233 15.961 106.233 12.5C106.233 15.9497 103.446 18.7468 100 18.765V18.7684C103.434 18.7865 106.214 21.5658 106.232 25Z" fill="#88D84A"/>
<path d="M118.768 25H125V18.7683C121.566 18.7865 118.787 21.5657 118.768 25Z" fill="white"/>
<path d="M112.5 18.7666C109.05 18.7666 106.253 21.5544 106.235 24.9999H118.765C118.747 21.5544 115.95 18.7666 112.5 18.7666Z" fill="white"/>
<path d="M100 18.7683V25H106.232C106.214 21.5657 103.434 18.7865 100 18.7683Z" fill="white"/>
<path d="M118.767 12.5001C118.767 15.9498 121.555 18.7469 125 18.7651V6.23511C121.555 6.2533 118.767 9.05037 118.767 12.5001Z" fill="white"/>
<path d="M113.017 18.7453C116.466 18.4598 119.031 15.4323 118.745 11.9831C118.46 8.53386 115.432 5.96914 111.983 6.2546C108.534 6.54007 105.969 9.56762 106.255 13.0168C106.54 16.466 109.568 19.0308 113.017 18.7453Z" fill="white"/>
<path d="M106.233 12.5001C106.233 9.05037 103.446 6.2533 100 6.23511V18.7651C103.446 18.7469 106.233 15.9498 106.233 12.5001Z" fill="white"/>
<path d="M125 6.23165V0H118.768C118.787 3.43418 121.566 6.21351 125 6.23165Z" fill="white"/>
<path d="M112.5 6.23333C115.95 6.23333 118.747 3.44544 118.765 0H106.235C106.253 3.44544 109.05 6.23333 112.5 6.23333Z" fill="white"/>
<path d="M106.232 0H100V6.23165C103.434 6.21351 106.214 3.43421 106.232 0Z" fill="white"/>
</g>
<g clip-path="url(#clip5_1438_979)">
<path d="M475 0H450V25H475V0Z" fill="#88D84A"/>
<path d="M462.5 0H462.5C455.596 0 450 5.59643 450 12.5V12.5C450 19.4036 455.596 25 462.5 25H462.5C469.404 25 475 19.4036 475 12.5V12.5C475 5.59643 469.404 0 462.5 0Z" fill="white"/>
<path d="M462.5 6.84888C459.379 6.84888 456.849 9.37896 456.849 12.5C456.849 15.621 459.379 18.1512 462.5 18.1512C465.621 18.1512 468.151 15.621 468.151 12.5C468.151 9.379 465.621 6.84888 462.5 6.84888Z" fill="#E83323"/>
</g>
<g clip-path="url(#clip6_1438_979)">
<path d="M345.574 25L344.026 15.9703L349.85 10.2933V9.42313L341.504 8.21048L337.452 0H337.425H337.397L333.345 8.21048L325 9.42313V10.2933L330.824 15.9703L329.275 25H329.371L337.425 20.7661L345.478 25H345.574Z" fill="#111EF7"/>
</g>
<g clip-path="url(#clip7_1438_979)">
<path d="M322.796 6.23234C321.333 9.2568 319.353 12.0212 317.117 14.5131C314.822 17.0707 312.225 19.3606 309.41 21.3235C307.364 22.7508 305.184 24.0144 302.89 24.9999H324.85V0.0065918C324.484 2.16704 323.748 4.26237 322.796 6.23234Z" fill="#F6CC47"/>
<path d="M305.348 1.91508C305.877 1.32023 306.344 0.677625 306.751 0H300V5.92543C301.987 4.87952 303.85 3.59969 305.348 1.91508Z" fill="#F6CC47"/>
<path d="M310.442 12.1199C312.471 10.0811 314.43 7.94888 316.127 5.61924C317.371 3.91163 318.565 2.03486 319.238 0H313.829C313.223 1.31999 312.489 2.57798 311.619 3.74512C310.337 5.46704 308.804 6.97501 307.117 8.2925C305.439 9.60188 303.635 10.7312 301.784 11.7744C301.194 12.1075 300.598 12.4306 300 12.7505V19.4272C301.477 18.8613 302.924 18.2233 304.289 17.4106C306.623 16.0218 308.536 14.0358 310.442 12.1199Z" fill="#F6CC47"/>
</g>
<g clip-path="url(#clip8_1438_979)">
<path d="M97.7956 6.23234C96.333 9.2568 94.3532 12.0212 92.1172 14.5131C89.8223 17.0707 87.2248 19.3606 84.4104 21.3235C82.3639 22.7508 80.1843 24.0144 77.8896 24.9999H99.8497V0.0065918C99.4842 2.16704 98.7482 4.26237 97.7956 6.23234Z" fill="#F6CC47"/>
<path d="M80.3482 1.79554C80.8773 1.23782 81.3435 0.635327 81.7505 0H74.9999V5.55556C76.9867 4.57494 78.8497 3.375 80.3482 1.79554Z" fill="#F6CC47"/>
<path d="M85.4166 12.5C87.4451 10.4612 89.4299 7.94888 91.1268 5.61924C92.3707 3.91163 93.5653 2.03486 94.2382 0H88.8287C88.2232 1.31999 87.4884 2.57798 86.6193 3.74512C85.3371 5.46704 83.8041 6.97501 82.1164 8.2925C80.4392 9.60188 78.6347 10.7312 76.7844 11.7744C76.1937 12.1075 75.6944 12.5 74.9999 12.5V19.4272C78.7903 19.4272 83.0398 14.889 85.4166 12.5Z" fill="#F6CC47"/>
</g>
<g clip-path="url(#clip9_1438_979)">
<path d="M134.374 17.3821C135.246 17.8886 136.274 18.0534 137.266 17.8999C137.887 17.8037 138.493 17.6028 139.06 17.3319C139.459 17.1412 139.875 16.9967 140.251 16.758C140.563 16.5595 140.843 16.3152 141.083 16.0342C141.83 14.4925 141.7 12.5286 140.976 11.0027C140.498 9.9937 139.752 9.1111 138.757 8.59051C137.66 8.01612 136.399 8.00992 135.225 8.33342C134.233 8.60671 133.303 9.15819 132.697 10.0098C132.155 10.7711 131.886 11.685 131.864 12.6085C131.821 14.4708 132.733 16.4286 134.374 17.3821Z" fill="#111EF7"/>
<path d="M149.798 0.744731C149.671 3.46569 149.05 6.14048 147.934 8.62332C146.867 10.997 145.359 13.1516 143.593 15.0507C141.782 16.9979 139.702 18.6817 137.502 20.1618C135.232 21.6889 132.823 23.0016 130.352 24.1679C129.703 24.4747 129.052 24.7599 128.375 25H149.85V0.161153C149.839 0.161034 149.828 0.161481 149.817 0.161392C149.813 0.355908 149.807 0.550364 149.798 0.744731Z" fill="#F6CC47"/>
<path d="M125.279 20.7736C126.209 17.999 127.481 15.3829 129.104 12.9504C130.844 10.3408 132.919 7.94462 135.272 5.87592C137.546 3.87592 140.092 2.16592 142.888 0.997424C143.874 0.58489 144.896 0.246441 145.938 0H125V21.6569C125.089 21.361 125.181 21.0662 125.279 20.7736Z" fill="#F6CC47"/>
</g>
<g clip-path="url(#clip10_1438_979)">
<path d="M275 0.107178H300V12.5536V25.0001H275H250V12.5536V0.107178H275Z" fill="#FDF5DA"/>
<path d="M275 0.107178H300V12.5536L275 25.0001L250 12.5536V0.107178H275Z" fill="#E83323"/>
<path d="M275 0H300V5.58159L275 18.028L250 5.58159V0H275Z" fill="#FDF5DA"/>
<path d="M275 0H300V0.0812026L275 12.6765L250 0.0812026V0H275Z" fill="#E83323"/>
</g>
<path d="M218.975 0H215.61V25H218.975V0Z" fill="#1C3B87"/>
<path d="M210.985 0H208V25H210.985V0Z" fill="#1C3B87"/>
<path d="M54.0001 0.000108719L54.0001 5.55566L72.0001 5.55566L72.0001 0.000109017L54.0001 0.000108719Z" fill="#F6CC47"/>
<path d="M54.0001 12.4999L54.0001 19.4443L72.0001 19.4443L72.0001 12.4999L54.0001 12.4999Z" fill="#F6CC47"/>
<defs>
<clipPath id="clip0_1438_979">
<rect width="25" height="25" fill="white" transform="translate(350)"/>
</clipPath>
<clipPath id="clip1_1438_979">
<rect width="25" height="25" fill="white" transform="translate(24.9999)"/>
</clipPath>
<clipPath id="clip2_1438_979">
<rect width="25" height="25" fill="white" transform="translate(500) rotate(90)"/>
</clipPath>
<clipPath id="clip3_1438_979">
<rect width="25" height="25" fill="white" transform="translate(450) rotate(90)"/>
</clipPath>
<clipPath id="clip4_1438_979">
<rect width="25" height="25" fill="white" transform="translate(100)"/>
</clipPath>
<clipPath id="clip5_1438_979">
<rect width="25" height="25" fill="white" transform="translate(450)"/>
</clipPath>
<clipPath id="clip6_1438_979">
<rect width="24.8497" height="25" fill="white" transform="translate(325)"/>
</clipPath>
<clipPath id="clip7_1438_979">
<rect width="24.8497" height="25" fill="white" transform="translate(300)"/>
</clipPath>
<clipPath id="clip8_1438_979">
<rect width="24.8497" height="25" fill="white" transform="translate(74.9999)"/>
</clipPath>
<clipPath id="clip9_1438_979">
<rect width="24.8497" height="25" fill="white" transform="translate(125)"/>
</clipPath>
<clipPath id="clip10_1438_979">
<rect width="50" height="25" fill="white" transform="translate(250)"/>
</clipPath>
</defs>
</svg>
