<svg width="730" height="570" viewBox="0 0 730 570" fill="none" xmlns="http://www.w3.org/2000/svg">
<path d="M0 175.25C0 175.25 308.222 126.5 389.333 -166C486.667 159 730 175.25 730 175.25C454.222 337.75 551.556 662.75 551.556 662.75C551.556 662.75 292 484 81.1111 679C194.667 321.5 0 175.25 0 175.25Z" fill="white"/>
<path d="M0 175.25C0 175.25 308.222 126.5 389.333 -166C486.667 159 730 175.25 730 175.25C454.222 337.75 551.556 662.75 551.556 662.75C551.556 662.75 292 484 81.1111 679C194.667 321.5 0 175.25 0 175.25Z" fill="#F6CC47" fill-opacity="1"/>
</svg>
