<?xml version="1.0" encoding="utf-8"?>
<!-- Generator: Adobe Illustrator 26.3.1, SVG Export Plug-In . SVG Version: 6.00 Build 0)  -->
<svg version="1.1" id="Calque_1" xmlns="http://www.w3.org/2000/svg" xmlns:xlink="http://www.w3.org/1999/xlink" x="0px" y="0px"
	 width="63px" height="51px" viewBox="0 0 63 51" style="enable-background:new 0 0 63 51;" xml:space="preserve">
<style type="text/css">
	.st0{fill:#F6CC47;fill-opacity:0.2;}
	.st1{fill:none;stroke:#F6CC47;stroke-dasharray:2,2;}
	.st2{fill:#FFFFFF;}
	.st3{fill:#FFFFFF;filter:url(#Adobe_OpacityMaskFilter);}
	.st4{mask:url(#path-2-inside-1_1490_5603_00000124162386749374253270000008550692893977519527_);fill:#1C3B87;}
</style>
<path class="st0" d="M26.2,11.6h32c1.9,0,3.5,1.6,3.5,3.5v32c0,1.9-1.6,3.5-3.5,3.5h-32c-1.9,0-3.5-1.6-3.5-3.5v-32
	C22.7,13.2,24.2,11.6,26.2,11.6z"/>
<path class="st1" d="M26.2,11.6h32c1.9,0,3.5,1.6,3.5,3.5v32c0,1.9-1.6,3.5-3.5,3.5h-32c-1.9,0-3.5-1.6-3.5-3.5v-32
	C22.7,13.2,24.2,11.6,26.2,11.6z"/>
<g>
	<path class="st2" d="M3.8,9.3L34.7,1c2.1-0.6,4.3,0.7,4.9,2.8l8.3,30.9c0.6,2.1-0.7,4.3-2.8,4.9l-30.9,8.3
		c-2.1,0.6-4.3-0.7-4.9-2.8L1,14.2C0.4,12.1,1.7,9.9,3.8,9.3z"/>
	<defs>
		<filter id="Adobe_OpacityMaskFilter" filterUnits="userSpaceOnUse" x="11.9" y="11.9" width="25.2" height="25.1">
			<feColorMatrix  type="matrix" values="1 0 0 0 0  0 1 0 0 0  0 0 1 0 0  0 0 0 1 0"/>
		</filter>
	</defs>
	
		<mask maskUnits="userSpaceOnUse" x="11.9" y="11.9" width="25.2" height="25.1" id="path-2-inside-1_1490_5603_00000124162386749374253270000008550692893977519527_">
		<path class="st3" d="M21.4,26.8l-2.2,5.2l13.5-3.6l-5.9-4.6l-2.2,5.2L21.4,26.8z M34.9,28.9c0.1,0.5,0.1,1-0.2,1.5
			c-0.3,0.5-0.7,0.8-1.2,1L20,35c-0.5,0.1-1,0.1-1.5-0.2c-0.5-0.3-0.8-0.7-1-1.2l-3.6-13.5c-0.1-0.5-0.1-1,0.2-1.5
			c0.3-0.5,0.7-0.8,1.2-1L28.8,14c0.5-0.1,1-0.1,1.5,0.2c0.5,0.3,0.8,0.7,1,1.2L34.9,28.9z"/>
	</mask>
	<path class="st4" d="M21.4,26.8l1.1-1.6l-2-1.4l-1,2.3L21.4,26.8z M19.2,32.1l-1.8-0.8l-1.6,3.8l3.9-1.1L19.2,32.1z M32.7,28.5
		l0.5,1.9l3.9-1L34,26.9L32.7,28.5z M26.8,23.8l1.2-1.6L26,20.6l-1,2.4L26.8,23.8z M24.6,29.1l-1.1,1.6l2,1.4l1-2.3L24.6,29.1z
		 M19.6,26.1l-2.2,5.2l3.7,1.5l2.2-5.2L19.6,26.1z M19.8,34l13.5-3.6l-1-3.9l-13.5,3.6L19.8,34z M34,26.9l-5.9-4.6l-2.5,3.1l5.9,4.6
		L34,26.9z M25,23.1l-2.2,5.2l3.7,1.5l2.2-5.2L25,23.1z M25.8,27.4l-3.2-2.2l-2.3,3.3l3.2,2.2L25.8,27.4z M33,29.4
		C33,29.4,33,29.4,33,29.4C33,29.4,33,29.4,33,29.4C33,29.4,33,29.4,33,29.4C33,29.4,33,29.4,33,29.4C33,29.4,33,29.4,33,29.4l3.4,2
		c0.5-0.9,0.7-2,0.4-3L33,29.4z M33,29.4C33,29.4,32.9,29.5,33,29.4C32.9,29.5,32.9,29.5,33,29.4C33,29.5,33,29.5,33,29.4
		C33,29.4,33,29.4,33,29.4C33,29.4,33,29.4,33,29.4l1,3.9c1.1-0.3,1.9-1,2.4-1.9L33,29.4z M33,29.4L19.5,33l1,3.9L34,33.3L33,29.4z
		 M19.5,33C19.5,33.1,19.5,33,19.5,33C19.5,33,19.5,33,19.5,33C19.5,33,19.5,33,19.5,33C19.6,33.1,19.6,33.1,19.5,33
		C19.5,33,19.5,33,19.5,33l-2,3.4c0.9,0.5,2,0.7,3,0.4L19.5,33z M19.5,33C19.5,33,19.5,33,19.5,33C19.4,33,19.4,33,19.5,33
		C19.5,33,19.5,33,19.5,33C19.5,33,19.5,33,19.5,33C19.5,33,19.5,33,19.5,33l-3.9,1c0.3,1.1,1,1.9,1.9,2.4L19.5,33z M19.5,33
		l-3.6-13.5l-3.9,1l3.6,13.5L19.5,33z M15.9,19.5C15.9,19.5,15.9,19.5,15.9,19.5C15.9,19.6,15.9,19.6,15.9,19.5
		C15.9,19.6,15.9,19.6,15.9,19.5C15.9,19.6,15.9,19.6,15.9,19.5C15.9,19.6,15.9,19.6,15.9,19.5l-3.4-2c-0.5,0.9-0.7,2-0.4,3
		L15.9,19.5z M15.9,19.5C15.9,19.5,15.9,19.5,15.9,19.5C15.9,19.5,15.9,19.5,15.9,19.5C15.9,19.5,15.9,19.5,15.9,19.5
		C15.9,19.5,15.9,19.5,15.9,19.5C15.9,19.5,15.9,19.5,15.9,19.5l-1-3.9c-1.1,0.3-1.9,1-2.4,1.9L15.9,19.5z M15.9,19.5l13.5-3.6
		l-1-3.9l-13.5,3.6L15.9,19.5z M29.4,15.9C29.4,15.9,29.4,15.9,29.4,15.9C29.3,15.9,29.3,15.9,29.4,15.9
		C29.3,15.9,29.3,15.9,29.4,15.9C29.3,15.9,29.3,15.9,29.4,15.9C29.3,15.9,29.3,15.9,29.4,15.9l2-3.4c-0.9-0.5-2-0.7-3-0.4
		L29.4,15.9z M29.4,15.9C29.4,16,29.4,16,29.4,15.9C29.4,16,29.4,16,29.4,15.9C29.4,16,29.4,16,29.4,15.9
		C29.4,15.9,29.4,15.9,29.4,15.9C29.4,15.9,29.4,15.9,29.4,15.9l3.9-1c-0.3-1.1-1-1.9-1.9-2.4L29.4,15.9z M29.4,15.9L33,29.4l3.9-1
		l-3.6-13.5L29.4,15.9z"/>
</g>
</svg>
