<svg width="482" height="393" viewBox="0 0 482 393" fill="none" xmlns="http://www.w3.org/2000/svg">
<g clip-path="url(#clip0_1310_2573)">
<path d="M201.161 34.4808C199.288 37.6875 198.679 41.4672 199.246 45.1157C199.602 47.4004 200.345 49.6291 201.346 51.7141C202.051 53.1819 202.585 54.7118 203.468 56.0943C204.201 57.2438 205.105 58.2745 206.143 59.1562C211.842 61.9038 219.102 61.4241 224.743 58.7628C228.473 57.0029 231.736 54.2591 233.66 50.6006C235.784 46.5638 235.806 41.9268 234.611 37.6096C233.6 33.9619 231.562 30.5386 228.414 28.3106C225.599 26.319 222.221 25.3276 218.807 25.2486C211.923 25.0892 204.685 28.445 201.161 34.4808Z" fill="#111EF7"/>
<path d="M262.664 90.7644C252.605 90.2989 242.718 88.0142 233.539 83.9095C224.765 79.9855 216.8 74.4362 209.779 67.9414C202.581 61.2825 196.357 53.6307 190.885 45.5377C185.24 37.1879 180.387 28.3296 176.076 19.2414C174.942 16.8509 173.887 14.4566 173 11.9683L173 90.9555L264.821 90.9555C264.822 90.9152 264.82 90.8751 264.82 90.8348C264.101 90.8198 263.382 90.7976 262.664 90.7644Z" fill="#F6CC47"/>
<path d="M188.624 1.02635C198.88 4.4468 208.551 9.12671 217.544 15.0945C227.19 21.4968 236.048 29.1279 243.696 37.7812C251.089 46.1473 257.41 55.5104 261.73 65.7934C263.255 69.4233 264.506 73.1819 265.417 77.0145L265.417 0L185.358 -3.49947e-06C186.452 0.326135 187.542 0.665547 188.624 1.02635Z" fill="#F6CC47"/>
</g>
<g clip-path="url(#clip1_1310_2573)">
<path d="M1.56974 146C1.42413 146 1.29936 145.893 1.27735 145.747C1.17913 145.092 1.08784 144.435 1.00235 143.776C-0.359489 133.201 -0.0388195 122.049 0.271496 111.265C0.363319 108.066 0.4581 104.759 0.504307 101.566C0.73771 85.4081 1.71646 69.0759 3.41282 53.023C3.48387 52.3524 3.5983 51.6617 4.13101 51.2301C4.58285 50.8633 5.18603 50.833 5.62627 50.811C18.0196 50.1859 30.5896 50.1546 42.9852 50.7166C44.3187 50.777 45.5938 50.9001 46.5328 51.7328C47.3359 52.4447 47.667 53.4993 47.9373 54.5185C49.7371 61.3062 50.3501 68.4006 50.9429 75.2615C52.7444 96.1089 54.6077 117.666 54.7822 138.95C54.792 140.202 54.7423 141.403 54.0409 142.339C53.1696 143.501 51.6143 143.791 50.2253 143.972C40.1784 145.279 30.0824 145.39 20.3185 145.497C14.1854 145.564 7.8438 145.633 1.58707 145.999C1.58127 146 1.57553 146 1.56974 146ZM1.58938 143.7C1.66215 144.265 1.74019 144.828 1.82219 145.39C8.00555 145.037 14.26 144.968 20.3116 144.902C30.0586 144.795 40.1374 144.685 50.1491 143.382C51.4774 143.209 52.8351 142.959 53.5683 141.981C54.1588 141.194 54.1993 140.101 54.1906 138.955C54.0161 117.694 52.1539 96.149 50.3536 75.3132C49.7631 68.4775 49.1518 61.4093 47.3653 54.6718C47.1186 53.7407 46.8205 52.781 46.1411 52.179C45.3466 51.4743 44.1824 51.3663 42.9586 51.3108C30.5821 50.7497 18.0311 50.7813 5.65573 51.4052C5.19005 51.4285 4.78217 51.4662 4.50191 51.693C4.14545 51.9821 4.05936 52.5397 4.00103 53.086C2.30639 69.1209 1.32882 85.4348 1.09595 101.575C1.04974 104.771 0.954428 108.081 0.862546 111.282C0.553414 122.043 0.233335 133.171 1.58938 143.7Z" fill="#1C3B87"/>
<path d="M6.71939 68.2557C6.83589 68.6654 7.51456 68.5164 7.93794 68.4951C9.02999 68.4402 10.1221 68.3853 11.2142 68.3303L11.9772 68.2919C11.9772 68.2921 11.9773 68.2918 11.9772 68.2919C16.0799 57.9459 4.6241 60.8889 6.71939 68.2557Z" fill="#1C3B87"/>
<path d="M16.0168 65.4149C16.1333 65.8246 16.8119 65.6756 17.2353 65.6543C18.3274 65.5993 19.4195 65.5444 20.5115 65.4895L21.2746 65.4511C21.2746 65.4512 21.2746 65.451 21.2746 65.4511C25.3772 55.1051 13.9215 58.048 16.0168 65.4149Z" fill="#1C3B87"/>
<path d="M27.5504 68.2557C27.6669 68.6654 28.3456 68.5164 28.769 68.4951C29.861 68.4402 30.9532 68.3853 32.0452 68.3303L32.8082 68.2919C36.9109 57.9459 25.4551 60.8889 27.5504 68.2557Z" fill="#1C3B87"/>
<path d="M37.3874 68.2557C37.5039 68.6654 38.1825 68.5164 38.6059 68.4951C39.698 68.4402 40.7901 68.3853 41.8821 68.3303L42.6452 68.2919C42.6452 68.2921 42.6452 68.2918 42.6452 68.2919C46.7478 57.9459 35.2921 60.8889 37.3874 68.2557Z" fill="#1C3B87"/>
<path d="M6.71939 78.2972C6.83589 78.7069 7.51456 78.5579 7.93794 78.5366C9.02999 78.4817 10.1221 78.4268 11.2142 78.3718C11.4685 78.3591 11.7228 78.3463 11.9772 78.3334C11.9772 78.3335 11.9773 78.3333 11.9772 78.3334C16.0799 67.9874 4.6241 70.9304 6.71939 78.2972Z" fill="#1C3B87"/>
<path d="M15.4767 78.8892C15.5932 79.299 16.2719 79.15 16.6953 79.1287C17.7873 79.0738 18.8794 79.0188 19.9715 78.9639C20.2258 78.951 20.4802 78.9383 20.7345 78.9255C24.8371 68.5794 13.3814 71.5224 15.4767 78.8892Z" fill="#1C3B87"/>
<path d="M26.8966 78.8892C27.0132 79.299 27.6918 79.15 28.1152 79.1287C29.2072 79.0738 30.2993 79.0188 31.3915 78.9639C31.6457 78.951 31.9001 78.9383 32.1544 78.9255C36.2571 68.5794 24.8013 71.5224 26.8966 78.8892Z" fill="#1C3B87"/>
<path d="M37.3874 78.2972C37.5039 78.7069 38.1825 78.5579 38.6059 78.5366C39.698 78.4817 40.7901 78.4268 41.8821 78.3718C42.1365 78.3591 42.3908 78.3463 42.6452 78.3334C42.6452 78.3335 42.6452 78.3333 42.6452 78.3334C46.7478 67.9874 35.2921 70.9304 37.3874 78.2972Z" fill="#1C3B87"/>
<path d="M6.71939 88.3387C6.83589 88.7484 7.51456 88.5994 7.93794 88.5781C9.02999 88.5232 10.1221 88.4683 11.2142 88.4133L11.9772 88.3749C11.9772 88.3751 11.9773 88.3748 11.9772 88.3749C16.0799 78.0289 4.6241 80.9719 6.71939 88.3387Z" fill="#1C3B87"/>
<path d="M14.0045 89.9176C14.1211 90.3273 14.7998 90.1782 15.2231 90.157C16.3152 90.102 17.4073 90.0471 18.4994 89.9922C18.7537 89.9794 19.008 89.9666 19.2624 89.9538C19.2623 89.9539 19.2624 89.9537 19.2624 89.9538C23.365 79.6078 11.9093 82.5507 14.0045 89.9176Z" fill="#1C3B87"/>
<path d="M26.8966 89.9176C27.0132 90.3273 27.6918 90.1782 28.1152 90.157C29.2072 90.102 30.2993 90.0471 31.3915 89.9922C31.6457 89.9794 31.9001 89.9666 32.1544 89.9538C32.1544 89.9539 32.1545 89.9537 32.1544 89.9538C36.2571 79.6078 24.8013 82.5507 26.8966 89.9176Z" fill="#1C3B87"/>
<path d="M38.4669 87.4505C38.5835 87.8603 39.2622 87.7113 39.6855 87.69C40.7776 87.635 41.8697 87.5801 42.9618 87.5251L43.7248 87.4868C43.7247 87.4869 43.7249 87.4866 43.7248 87.4868C47.8275 77.1407 36.3717 80.0837 38.4669 87.4505Z" fill="#1C3B87"/>
<path d="M7.02603 115.057C7.14253 115.467 7.8212 115.318 8.24452 115.297C9.33663 115.242 10.4287 115.187 11.5208 115.132L12.2838 115.094C12.2838 115.094 12.2839 115.094 12.2838 115.094C16.3865 104.748 4.93074 107.691 7.02603 115.057Z" fill="#1C3B87"/>
<path d="M17.2101 114.367C17.3267 114.777 18.0053 114.627 18.4286 114.606C19.5208 114.551 20.6128 114.496 21.7049 114.441L22.468 114.403C22.4679 114.403 22.468 114.403 22.468 114.403C26.5706 104.057 15.1149 107 17.2101 114.367Z" fill="#1C3B87"/>
<path d="M6.32682 101.143C6.44331 101.553 7.12198 101.404 7.54536 101.383C8.63741 101.328 9.72952 101.273 10.8216 101.218L11.5846 101.18C15.6872 90.8336 4.23152 93.7766 6.32682 101.143Z" fill="#1C3B87"/>
<path d="M14.5934 101.856C14.71 102.266 15.3886 102.117 15.812 102.096C16.904 102.041 17.9961 101.986 19.0882 101.931C19.3425 101.918 19.5969 101.905 19.8512 101.892C23.9538 91.5464 12.4981 94.4895 14.5934 101.856Z" fill="#1C3B87"/>
<path d="M28.7052 112.59C28.8218 113 29.5004 112.851 29.9238 112.83C31.0158 112.775 32.1079 112.72 33.2 112.665L33.963 112.627C38.0657 102.281 26.6099 105.224 28.7052 112.59Z" fill="#1C3B87"/>
<path d="M36.9718 113.303C37.0884 113.713 37.767 113.564 38.1904 113.543C39.2825 113.488 40.3745 113.433 41.4667 113.378C41.7209 113.365 41.9753 113.352 42.2296 113.34C46.3323 102.993 34.8765 105.937 36.9718 113.303Z" fill="#1C3B87"/>
<path d="M7.21598 127.886C7.33247 128.296 8.01114 128.147 8.43452 128.125C9.52657 128.071 10.6187 128.016 11.7107 127.961C11.9651 127.948 12.2194 127.935 12.4738 127.922C12.4738 127.922 12.4738 127.922 12.4738 127.922C16.5765 117.576 5.12068 120.519 7.21598 127.886Z" fill="#1C3B87"/>
<path d="M17.4001 127.195C17.5166 127.605 18.1952 127.456 18.6186 127.435C19.7107 127.38 20.8028 127.325 21.8948 127.27L22.6579 127.232C22.6578 127.232 22.6579 127.231 22.6579 127.232C26.7605 116.886 15.3048 119.829 17.4001 127.195Z" fill="#1C3B87"/>
<path d="M31.1281 125.419C31.2446 125.829 31.9233 125.68 32.3466 125.658C33.4387 125.604 34.5308 125.549 35.6228 125.494L36.3859 125.455C36.3858 125.455 36.3859 125.455 36.3859 125.455C40.4886 115.109 29.0328 118.052 31.1281 125.419Z" fill="#1C3B87"/>
<path d="M39.3952 126.132C39.5117 126.542 40.1903 126.393 40.6137 126.371C41.7058 126.316 42.7979 126.261 43.8899 126.207L44.653 126.168C44.653 126.168 44.653 126.168 44.653 126.168C48.7557 115.822 37.2999 118.765 39.3952 126.132Z" fill="#1C3B87"/>
<path d="M27.5504 101.856C27.6669 102.266 28.3456 102.117 28.769 102.096C29.861 102.041 30.9532 101.986 32.0452 101.931C32.2996 101.918 32.5539 101.905 32.8082 101.892C36.9109 91.5464 25.4551 94.4895 27.5504 101.856Z" fill="#1C3B87"/>
<path d="M37.3874 101.856C37.5039 102.266 38.1825 102.117 38.6059 102.096C39.698 102.041 40.7901 101.986 41.8821 101.931C42.1365 101.918 42.3908 101.905 42.6452 101.892C42.6452 101.893 42.6452 101.892 42.6452 101.892C46.7478 91.5464 35.2921 94.4895 37.3874 101.856Z" fill="#1C3B87"/>
<path d="M50.568 128.057C48.3251 110.642 49.6871 92.0631 49.9391 74.6007C50.2357 54.0567 51.4648 33.5263 53.6244 13.0951C53.7023 12.3579 53.8229 11.5412 54.3967 11.0756C54.8554 10.7036 55.4871 10.6571 56.0757 10.6274C71.8373 9.83286 87.6364 9.79295 103.402 10.5078C104.907 10.5761 106.538 10.7004 107.668 11.7022C108.613 12.5398 109.009 13.8244 109.334 15.048C111.601 23.5976 112.372 32.4652 113.133 41.2801C115.455 68.1391 117.777 95.0313 117.999 121.991C118.01 123.403 117.981 124.929 117.135 126.057C116.109 127.424 114.239 127.76 112.549 127.98C91.8338 130.675 71.476 129.345 50.9151 130.548C50.7908 129.721 50.6753 128.89 50.568 128.057Z" fill="#88D84A"/>
<path d="M57.4429 32.3661C57.5906 32.8855 58.451 32.6965 58.9877 32.6695C60.3721 32.5999 61.7566 32.5302 63.141 32.4606C63.4635 32.4444 63.7859 32.4282 64.1083 32.412C64.1083 32.4121 64.1084 32.4118 64.1083 32.412C69.3093 19.296 54.7866 23.0269 57.4429 32.3661Z" fill="#1C3B87"/>
<path d="M69.23 28.7647C69.3777 29.2841 70.238 29.0952 70.7748 29.0682C72.1592 28.9986 73.5437 28.9289 74.9282 28.8593C75.2506 28.8431 75.573 28.8268 75.8954 28.8107C75.8954 28.8108 75.8955 28.8105 75.8954 28.8107C81.0965 15.6947 66.5737 19.4255 69.23 28.7647Z" fill="#1C3B87"/>
<path d="M83.8511 32.3661C83.9988 32.8855 84.8592 32.6965 85.3959 32.6695C86.7803 32.5999 88.1648 32.5302 89.5492 32.4606C89.8717 32.4444 90.1941 32.4282 90.5165 32.412C90.5165 32.4121 90.5166 32.4118 90.5165 32.412C95.7175 19.296 81.1948 23.0269 83.8511 32.3661Z" fill="#1C3B87"/>
<path d="M96.3218 32.3661C96.4695 32.8855 97.3298 32.6965 97.8666 32.6695C99.251 32.5999 100.635 32.5302 102.02 32.4606C102.342 32.4444 102.665 32.4282 102.987 32.412C102.987 32.4121 102.987 32.4118 102.987 32.412C108.188 19.296 93.6655 23.0269 96.3218 32.3661Z" fill="#1C3B87"/>
<path d="M57.4429 45.096C57.5906 45.6154 58.451 45.4265 58.9877 45.3995C60.3721 45.3299 61.7566 45.2602 63.141 45.1906C63.4635 45.1744 63.7859 45.1581 64.1083 45.142C64.1083 45.1421 64.1084 45.1418 64.1083 45.142C69.3093 32.0259 54.7866 35.7568 57.4429 45.096Z" fill="#1C3B87"/>
<path d="M68.5449 45.8468C68.6927 46.3662 69.553 46.1773 70.0897 46.1503C71.4742 46.0806 72.8586 46.0109 74.2431 45.9414C74.5655 45.9251 74.888 45.9089 75.2104 45.8927C80.4115 32.7768 65.8887 36.5076 68.5449 45.8468Z" fill="#1C3B87"/>
<path d="M83.0225 45.8468C83.1702 46.3662 84.0306 46.1773 84.5672 46.1503C85.9517 46.0806 87.3362 46.0109 88.7206 45.9414C89.0431 45.9251 89.3655 45.9089 89.688 45.8927C94.889 32.7768 80.3662 36.5076 83.0225 45.8468Z" fill="#1C3B87"/>
<path d="M96.3218 45.096C96.4695 45.6154 97.3298 45.4265 97.8666 45.3995C99.251 45.3299 100.635 45.2602 102.02 45.1906C102.342 45.1744 102.665 45.1581 102.987 45.142C102.987 45.1421 102.987 45.1418 102.987 45.142C108.188 32.0259 93.6655 35.7568 96.3218 45.096Z" fill="#1C3B87"/>
<path d="M57.4429 57.826C57.5906 58.3454 58.451 58.1565 58.9877 58.1295C60.3721 58.0598 61.7566 57.9902 63.141 57.9206C63.4635 57.9044 63.7859 57.8881 64.1083 57.8719C64.1083 57.8721 64.1084 57.8718 64.1083 57.8719C69.3093 44.7559 54.7866 48.4868 57.4429 57.826Z" fill="#1C3B87"/>
<path d="M66.6782 59.8277C66.826 60.3471 67.6863 60.1582 68.223 60.1312C69.6074 60.0615 70.9919 59.9919 72.3764 59.9223C72.6988 59.906 73.0213 59.8899 73.3437 59.8736C73.3437 59.8738 73.3438 59.8734 73.3437 59.8736C78.5447 46.7576 64.022 50.4886 66.6782 59.8277Z" fill="#1C3B87"/>
<path d="M83.0225 59.8277C83.1702 60.3471 84.0306 60.1582 84.5672 60.1312C85.9517 60.0615 87.3362 59.9919 88.7206 59.9223C89.0431 59.906 89.3655 59.8899 89.688 59.8736C89.6879 59.8738 89.688 59.8734 89.688 59.8736C94.889 46.7576 80.3662 50.4886 83.0225 59.8277Z" fill="#1C3B87"/>
<path d="M97.6904 56.7002C97.8382 57.2197 98.6985 57.0308 99.2352 57.0038C100.62 56.9341 102.004 56.8645 103.389 56.7948C103.711 56.7786 104.033 56.7624 104.356 56.7462C109.557 43.6303 95.0342 47.3611 97.6904 56.7002Z" fill="#1C3B87"/>
<path d="M57.832 91.698C57.9798 92.2175 58.8401 92.0286 59.3768 92.0016C60.7613 91.9319 62.1458 91.8623 63.5303 91.7927C63.8526 91.7764 64.1751 91.7602 64.4975 91.744C69.6986 78.6281 55.1758 82.3589 57.832 91.698Z" fill="#1C3B87"/>
<path d="M70.7422 90.8226C70.8899 91.342 71.7503 91.1531 72.287 91.1261C73.6715 91.0564 75.0559 90.9868 76.4404 90.9172C76.7628 90.9009 77.0852 90.8847 77.4077 90.8685C82.6087 77.7526 68.086 81.4834 70.7422 90.8226Z" fill="#1C3B87"/>
<path d="M56.9448 74.0589C57.0926 74.5783 57.9529 74.3894 58.4896 74.3624C59.8741 74.2928 61.2586 74.2231 62.6431 74.1535C62.9654 74.1373 63.2879 74.121 63.6103 74.1048C63.6103 74.105 63.6104 74.1047 63.6103 74.1048C68.8114 60.9888 54.2886 64.7197 56.9448 74.0589Z" fill="#1C3B87"/>
<path d="M67.4253 74.9624C67.573 75.4819 68.4334 75.293 68.9701 75.266C70.3545 75.1963 71.739 75.1267 73.1235 75.057C73.4459 75.0408 73.7684 75.0246 74.0908 75.0084C74.0907 75.0085 74.0909 75.0082 74.0908 75.0084C79.2918 61.8924 64.769 65.6233 67.4253 74.9624Z" fill="#1C3B87"/>
<path d="M85.3154 88.5706C85.4632 89.09 86.3235 88.9011 86.8602 88.8741C88.2447 88.8045 89.6292 88.7348 91.0137 88.6652C91.336 88.649 91.6585 88.6328 91.9809 88.6165C91.9809 88.6167 91.981 88.6164 91.9809 88.6165C97.182 75.5005 82.6592 79.2315 85.3154 88.5706Z" fill="#1C3B87"/>
<path d="M95.7954 89.4742C95.9432 89.9936 96.8035 89.8047 97.3402 89.7777C98.7246 89.708 100.109 89.6384 101.494 89.5688C101.816 89.5526 102.138 89.5363 102.461 89.5201C102.461 89.5203 102.461 89.52 102.461 89.5201C107.662 76.4041 93.1391 80.135 95.7954 89.4742Z" fill="#1C3B87"/>
<path d="M58.0723 107.961C58.22 108.481 59.0804 108.292 59.617 108.265C61.0015 108.195 62.386 108.125 63.7705 108.056C64.0929 108.04 64.4153 108.023 64.7378 108.007C64.7377 108.007 64.7378 108.007 64.7378 108.007C69.9388 94.8912 55.416 98.6221 58.0723 107.961Z" fill="#1C3B87"/>
<path d="M70.9829 107.086C71.1307 107.605 71.991 107.416 72.5277 107.389C73.9122 107.319 75.2966 107.25 76.6811 107.18C77.0035 107.164 77.326 107.148 77.6484 107.131C77.6484 107.132 77.6485 107.131 77.6484 107.131C82.8495 94.0155 68.3267 97.7463 70.9829 107.086Z" fill="#1C3B87"/>
<path d="M88.3867 104.834C88.5345 105.353 89.3948 105.164 89.9315 105.137C91.316 105.068 92.7004 104.998 94.0849 104.928C94.4073 104.912 94.7298 104.896 95.0522 104.88C95.0522 104.88 95.0523 104.88 95.0522 104.88C100.253 91.7638 85.7305 95.4947 88.3867 104.834Z" fill="#1C3B87"/>
<path d="M98.8667 105.737C99.0145 106.257 99.8748 106.068 100.412 106.041C101.796 105.971 103.18 105.902 104.565 105.832C104.887 105.816 105.21 105.8 105.532 105.783C105.532 105.783 105.532 105.783 105.532 105.783C110.733 92.6673 96.2104 96.3982 98.8667 105.737Z" fill="#1C3B87"/>
<path d="M83.8511 74.9624C83.9988 75.4819 84.8592 75.293 85.3959 75.266C86.7803 75.1963 88.1648 75.1267 89.5492 75.057C89.8717 75.0408 90.1941 75.0246 90.5165 75.0084C90.5165 75.0085 90.5166 75.0082 90.5165 75.0084C95.7175 61.8924 81.1948 65.6233 83.8511 74.9624Z" fill="#1C3B87"/>
<path d="M96.3218 74.9624C96.4695 75.4819 97.3298 75.293 97.8666 75.266C99.251 75.1963 100.635 75.1267 102.02 75.057C102.342 75.0408 102.665 75.0246 102.987 75.0084C102.987 75.0085 102.987 75.0082 102.987 75.0084C108.188 61.8924 93.6655 65.6233 96.3218 74.9624Z" fill="#1C3B87"/>
</g>
<path d="M356.165 229.512L356.165 275.213L401.866 275.213L447.566 275.213L356.165 183.812L356.165 229.512Z" fill="white"/>
<path d="M179.79 114.629C183.881 122.962 189.128 130.703 195.133 137.759C201.306 145.013 208.27 151.601 215.792 157.428C223.15 163.128 231.065 168.129 239.394 172.271C247.216 176.161 255.438 179.273 263.944 181.271C264.056 181.297 264.151 181.339 264.238 181.386L264.238 91L172.837 91L172.837 94.8035C174.304 101.67 176.703 108.34 179.79 114.629Z" fill="#F6CC47"/>
<path d="M447.566 229.512L447.566 183.812L401.865 183.812L356.165 183.812L447.566 275.213L447.566 229.512Z" fill="#E83323"/>
<g clip-path="url(#clip2_1310_2573)">
<path d="M79.9286 275.213L126.137 275.213C151.657 275.213 172.346 295.674 172.346 320.914C172.346 346.154 151.657 366.615 126.137 366.615L79.9286 366.615L79.9286 275.213Z" fill="#F6CC47"/>
</g>
<g clip-path="url(#clip3_1310_2573)">
<path d="M79.9286 182.796L172.346 182.796L172.346 91.3944L79.9286 91.3944L79.9286 182.796Z" fill="white"/>
<path d="M130.296 182.796L138.613 182.796L138.613 91.3944L130.296 91.3944L130.296 182.796Z" fill="#111EF7"/>
<path d="M146.931 182.796L155.249 182.796L155.249 91.3944L146.931 91.3944L146.931 182.796Z" fill="#111EF7"/>
<path d="M163.566 182.796L172.346 182.796L172.346 91.3944L163.566 91.3944L163.566 182.796Z" fill="#111EF7"/>
<path d="M97.0257 182.796L105.343 182.796L105.343 91.3944L97.0257 91.3944L97.0257 182.796Z" fill="#111EF7"/>
<path d="M79.9285 182.796L88.708 182.796L88.708 91.3944L79.9285 91.3944L79.9285 182.796Z" fill="#111EF7"/>
<path d="M113.661 182.796L121.979 182.796L121.979 91.3944L113.661 91.3944L113.661 182.796Z" fill="#111EF7"/>
</g>
<g clip-path="url(#clip4_1310_2573)">
<path d="M425.374 137.701C425.374 150.354 415.003 160.612 402.209 160.612C414.961 160.612 425.301 170.805 425.368 183.401L425.381 183.401C425.448 170.846 435.722 160.685 448.417 160.618L448.417 160.606C435.68 160.539 425.374 150.313 425.374 137.701Z" fill="#88D84A"/>
<path d="M402.208 114.789C415.003 114.789 425.374 125.047 425.374 137.701C425.374 125.088 435.68 114.862 448.417 114.795L448.417 114.783C435.722 114.717 425.448 104.556 425.381 92L425.368 92C425.301 104.597 414.961 114.789 402.208 114.789Z" fill="#88D84A"/>
<path d="M402.208 160.612C389.414 160.612 379.043 150.354 379.043 137.701C379.043 150.313 368.737 160.539 356 160.606L356 160.618C368.695 160.685 378.969 170.846 379.036 183.401L379.049 183.401C379.116 170.805 389.456 160.612 402.208 160.612Z" fill="#88D84A"/>
<path d="M356 114.783L356 114.795C368.737 114.862 379.043 125.088 379.043 137.701C379.043 125.047 389.414 114.789 402.208 114.789C389.456 114.789 379.116 104.597 379.049 92L379.036 92C378.969 104.556 368.695 114.717 356 114.783Z" fill="#88D84A"/>
<path d="M356 160.618L356 183.401L379.036 183.401C378.969 170.846 368.695 160.684 356 160.618Z" fill="white"/>
<path d="M379.042 137.701C379.042 125.088 368.737 114.862 356 114.795L356 160.606C368.737 160.539 379.042 150.313 379.042 137.701Z" fill="white"/>
<path d="M379.036 92L356 92L356 114.783C368.695 114.717 378.969 104.556 379.036 92Z" fill="white"/>
<path d="M402.209 160.612C389.456 160.612 379.116 170.805 379.049 183.401L425.368 183.401C425.301 170.805 414.961 160.612 402.209 160.612Z" fill="white"/>
<path d="M379.121 139.59C380.177 152.201 391.369 161.578 404.119 160.534C416.87 159.49 426.351 148.421 425.296 135.811C424.24 123.2 413.048 113.824 400.298 114.867C387.547 115.911 378.066 126.98 379.121 139.59Z" fill="white"/>
<path d="M402.209 114.789C414.961 114.789 425.301 104.597 425.368 92L379.049 92C379.116 104.597 389.456 114.789 402.209 114.789Z" fill="white"/>
<path d="M425.381 183.401L448.417 183.401L448.417 160.618C435.722 160.684 425.448 170.846 425.381 183.401Z" fill="white"/>
<path d="M425.374 137.701C425.374 150.313 435.68 160.539 448.417 160.606L448.417 114.795C435.68 114.862 425.374 125.088 425.374 137.701Z" fill="white"/>
<path d="M448.417 114.783L448.417 92L425.381 92C425.448 104.556 435.722 114.717 448.417 114.783Z" fill="white"/>
</g>
<g clip-path="url(#clip5_1310_2573)">
<path d="M172.346 275.213L172.346 182.796L79.9286 182.796L79.9286 275.213L172.346 275.213Z" fill="#88D84A"/>
<path d="M172.346 229.005L172.346 229.004C172.346 203.484 151.657 182.796 126.137 182.796L126.137 182.796C100.617 182.796 79.9286 203.484 79.9286 229.004L79.9286 229.005C79.9286 254.525 100.617 275.213 126.137 275.213L126.137 275.213C151.657 275.213 172.346 254.525 172.346 229.005Z" fill="white"/>
<path d="M147.028 229.004C147.028 217.467 137.675 208.114 126.137 208.114C114.6 208.114 105.247 217.467 105.247 229.004C105.247 240.542 114.6 249.895 126.137 249.895C137.675 249.895 147.028 240.542 147.028 229.004Z" fill="#E83323"/>
</g>
<g clip-path="url(#clip6_1310_2573)">
<path d="M333.125 359.059C321.945 353.68 311.726 346.398 302.514 338.173C293.059 329.732 284.594 320.178 277.338 309.826C272.062 302.299 267.39 294.282 263.747 285.842L263.747 366.615L356.14 366.615C348.153 365.27 340.407 362.563 333.125 359.059Z" fill="#F6CC47"/>
<path d="M349.527 294.885C351.589 296.831 353.816 298.546 356.165 300.043L356.165 275.213L335.627 275.213C339.252 282.521 343.688 289.373 349.527 294.885Z" fill="#F6CC47"/>
<path d="M309.956 313.527C317.493 320.988 326.78 328.289 335.392 334.53C341.705 339.106 348.642 343.5 356.165 345.975L356.165 326.078C351.285 323.851 346.635 321.148 342.32 317.951C335.955 313.235 330.38 307.596 325.51 301.389C320.669 295.22 316.495 288.582 312.638 281.777C311.407 279.604 309.956 277.767 309.956 275.213L284.348 275.213C284.348 289.155 301.125 304.785 309.956 313.527Z" fill="#F6CC47"/>
</g>
<g clip-path="url(#clip7_1310_2573)">
<path d="M263.356 275.721L263.356 367.63L217.851 367.63L172.346 367.63L172.346 275.721L172.346 183.812L217.851 183.812L263.356 183.812L263.356 275.721Z" fill="#FDF5DA"/>
<path d="M263.356 275.721L263.356 367.63L217.851 367.63L172.346 275.721L217.851 183.812L263.356 183.812L263.356 275.721Z" fill="#E83323"/>
<path d="M263.748 275.721L263.748 367.63L243.341 367.63L197.836 275.721L243.341 183.812L263.748 183.812L263.748 275.721Z" fill="#FDF5DA"/>
<path d="M263.748 275.721L263.748 367.63L263.451 367.63L217.401 275.721L263.451 183.812L263.748 183.812L263.748 275.721Z" fill="#E83323"/>
</g>
<g clip-path="url(#clip8_1310_2573)">
<path d="M356.164 184.812L335.853 184.812L335.853 274.812L356.164 274.812L356.164 184.812Z" fill="#F6CC47"/>
<path d="M309.448 184.812L284.059 184.812L284.059 274.812L309.448 274.812L309.448 184.812Z" fill="#F6CC47"/>
</g>
<g clip-path="url(#clip9_1310_2573)">
<path d="M418.088 337.313C418.393 327.959 418.166 318.046 417.272 308.73C416.911 304.962 416.441 301.161 415.114 297.616C411.653 288.373 402.975 282.217 397.518 273.995C404.292 280.369 411.454 286.331 418.95 291.836C419.593 292.307 420.487 291.804 420.435 291.008C419.535 277.432 420.689 263.72 423.851 250.485C427.384 248.837 426.312 268.422 426.694 278.575C437.263 268.504 439.584 255.479 451.635 247.242C453.177 247.438 451.767 251.317 449.413 254.182C443.948 260.835 433.97 278.639 433.046 287.202C438.775 286.61 447.437 278.874 453.166 278.281C446.942 281.495 440.462 284.929 436.49 290.704C432.258 296.858 431.539 304.69 430.951 312.138C430.298 320.41 429.644 328.683 428.991 336.956C428.928 337.757 428.779 338.694 428.067 339.065C427.568 339.325 426.964 339.203 426.415 339.074C423.841 338.471 421.267 337.868 418.692 337.265" fill="#1C3B87"/>
<path d="M391.285 267.626C392.65 270.232 394.251 272.704 396.037 274.964L391.285 267.626Z" fill="#1C3B87"/>
<path d="M391.543 267.491C394.779 268.509 396.563 271.445 396.266 274.783C396.266 274.783 395.809 275.145 395.809 275.145C392.364 274.628 390.005 271.147 391.027 267.762C391.027 267.762 391.543 267.491 391.543 267.491Z" fill="#1C3B87"/>
<path d="M389.529 278.106C392.324 279.017 395.195 279.667 398.05 280.036L389.529 278.106Z" fill="#1C3B87"/>
<path d="M389.62 277.829C392.647 276.297 395.972 277.151 398.088 279.747C398.087 279.747 398.013 280.326 398.013 280.326C395.186 282.363 391.068 281.521 389.439 278.384C389.439 278.384 389.62 277.829 389.62 277.829Z" fill="#1C3B87"/>
<path d="M395.927 262.252C396.465 265.144 397.267 267.979 398.309 270.666L395.927 262.252Z" fill="#1C3B87"/>
<path d="M396.213 262.198C399.005 264.126 399.847 267.457 398.581 270.56C398.581 270.56 398.038 270.771 398.038 270.771C394.898 269.262 393.668 265.239 395.64 262.305C395.64 262.305 396.213 262.198 396.213 262.198Z" fill="#1C3B87"/>
<path d="M383.491 247.7C385.201 250.092 387.127 252.32 389.207 254.312L383.491 247.7Z" fill="#1C3B87"/>
<path d="M383.728 247.53C387.073 248.093 389.244 250.754 389.409 254.101C389.409 254.101 389.006 254.523 389.006 254.523C385.523 254.486 382.707 251.363 383.254 247.87C383.254 247.87 383.728 247.53 383.728 247.53Z" fill="#1C3B87"/>
<path d="M403.515 250.874C404.053 253.766 404.856 256.6 405.898 259.287L403.515 250.874Z" fill="#1C3B87"/>
<path d="M403.802 250.82C406.594 252.747 407.435 256.079 406.169 259.181L405.626 259.393C402.486 257.883 401.256 253.861 403.228 250.927L403.802 250.82Z" fill="#1C3B87"/>
<path d="M380.406 259.769C382.115 262.162 384.04 264.391 386.119 266.384L380.406 259.769Z" fill="#1C3B87"/>
<path d="M380.643 259.599C383.988 260.164 386.157 262.827 386.321 266.173L385.917 266.595C382.434 266.556 379.621 263.432 380.169 259.939L380.643 259.599Z" fill="#1C3B87"/>
<path d="M393.722 250.258C394.986 252.913 396.492 255.445 398.19 257.772L393.722 250.258Z" fill="#1C3B87"/>
<path d="M393.985 250.132C397.179 251.274 398.85 254.276 398.426 257.6L397.955 257.944C394.533 257.296 392.309 253.727 393.459 250.383L393.985 250.132Z" fill="#1C3B87"/>
<path d="M408.063 261.3C408.602 264.192 409.404 267.027 410.446 269.713L408.063 261.3Z" fill="#1C3B87"/>
<path d="M408.35 261.246C411.142 263.173 411.983 266.505 410.718 269.608C410.718 269.608 410.174 269.819 410.174 269.819C407.035 268.31 405.805 264.287 407.777 261.353C407.777 261.353 408.35 261.246 408.35 261.246Z" fill="#1C3B87"/>
<path d="M460.482 243.757C458.097 245.478 455.878 247.415 453.894 249.504L460.482 243.757Z" fill="#1C3B87"/>
<path d="M460.652 243.994C460.101 247.344 457.449 249.527 454.106 249.705C454.106 249.705 453.683 249.303 453.683 249.303C453.709 245.816 456.82 242.987 460.311 243.52C460.311 243.521 460.652 243.994 460.652 243.994Z" fill="#1C3B87"/>
<path d="M468.775 242.685C466.391 244.406 464.172 246.342 462.188 248.432L468.775 242.685Z" fill="#1C3B87"/>
<path d="M468.946 242.922C468.395 246.272 465.743 248.455 462.4 248.633C462.4 248.633 461.977 248.231 461.977 248.231C462.003 244.744 465.114 241.914 468.605 242.448C468.605 242.448 468.946 242.922 468.946 242.922Z" fill="#1C3B87"/>
<path d="M460.793 234.482C458.57 236.407 456.529 238.531 454.737 240.788L460.793 234.482Z" fill="#1C3B87"/>
<path d="M460.984 234.703C460.729 238.089 458.28 240.497 454.965 240.969L454.509 240.606C454.228 237.131 457.078 234.038 460.603 234.261L460.984 234.703Z" fill="#1C3B87"/>
<path d="M402.335 266.791C401.988 269.713 401.912 272.659 402.108 275.534L402.335 266.791Z" fill="#1C3B87"/>
<path d="M402.624 266.826C404.717 269.498 404.529 272.929 402.398 275.514L401.817 275.554C399.268 273.177 399.29 268.97 402.045 266.757L402.624 266.826Z" fill="#1C3B87"/>
<path d="M408.119 244.477C409.901 246.817 411.893 248.985 414.033 250.914L408.119 244.477Z" fill="#1C3B87"/>
<path d="M408.351 244.3C411.711 244.762 413.962 247.356 414.228 250.697C414.228 250.697 413.838 251.13 413.838 251.13C410.355 251.199 407.447 248.162 407.887 244.654C407.887 244.654 408.351 244.3 408.351 244.3Z" fill="#1C3B87"/>
<path d="M391.073 239.469C392.855 241.808 394.847 243.977 396.987 245.905L391.073 239.469Z" fill="#1C3B87"/>
<path d="M391.305 239.292C394.665 239.753 396.916 242.348 397.182 245.688C397.182 245.688 396.792 246.122 396.792 246.122C393.309 246.19 390.401 243.154 390.841 239.646C390.841 239.646 391.305 239.292 391.305 239.292Z" fill="#1C3B87"/>
<path d="M399.448 232.323C401.23 234.663 403.222 236.831 405.361 238.76L399.448 232.323Z" fill="#1C3B87"/>
<path d="M399.68 232.146C403.04 232.608 405.29 235.203 405.556 238.543L405.166 238.977C401.684 239.045 398.775 236.009 399.216 232.5L399.68 232.146Z" fill="#1C3B87"/>
<path d="M436.085 232.918C434.166 235.147 432.458 237.547 431.014 240.041L436.085 232.918Z" fill="#1C3B87"/>
<path d="M436.306 233.108C436.549 236.495 434.477 239.236 431.267 240.187C431.267 240.187 430.763 239.895 430.763 239.895C429.977 236.498 432.345 233.021 435.865 232.727C435.865 232.727 436.306 233.108 436.306 233.108Z" fill="#1C3B87"/>
<path d="M477.592 259.657C475.674 261.886 473.965 264.286 472.522 266.781L477.592 259.657Z" fill="#1C3B87"/>
<path d="M477.813 259.848C478.056 263.234 475.984 265.975 472.774 266.927C472.774 266.927 472.27 266.634 472.27 266.634C471.484 263.238 473.852 259.761 477.372 259.467C477.372 259.467 477.813 259.848 477.813 259.848Z" fill="#1C3B87"/>
<path d="M431.397 222.979C429.478 225.208 427.769 227.608 426.326 230.102L431.397 222.979Z" fill="#1C3B87"/>
<path d="M431.617 223.169C431.86 226.556 429.788 229.297 426.578 230.249L426.074 229.956C425.288 226.559 427.656 223.083 431.176 222.788L431.617 223.169Z" fill="#1C3B87"/>
<path d="M432.453 245.112C430.775 247.528 429.324 250.092 428.146 252.722L432.453 245.112Z" fill="#1C3B87"/>
<path d="M432.692 245.278C433.283 248.621 431.506 251.562 428.412 252.841C428.412 252.841 427.88 252.603 427.88 252.603C426.747 249.306 428.743 245.603 432.213 244.945C432.213 244.945 432.692 245.278 432.692 245.278Z" fill="#1C3B87"/>
<path d="M433.713 261.478C432.035 263.894 430.584 266.458 429.406 269.088L433.713 261.478Z" fill="#1C3B87"/>
<path d="M433.952 261.644C434.544 264.988 432.766 267.929 429.672 269.208L429.14 268.969C428.008 265.672 430.003 261.969 433.474 261.311L433.952 261.644Z" fill="#1C3B87"/>
<path d="M440.914 237.415C439.236 239.831 437.785 242.395 436.607 245.026L440.914 237.415Z" fill="#1C3B87"/>
<path d="M441.153 237.582C441.745 240.925 439.968 243.866 436.873 245.145C436.873 245.145 436.341 244.906 436.341 244.906C435.209 241.609 437.204 237.906 440.675 237.248C440.675 237.249 441.153 237.582 441.153 237.582Z" fill="#1C3B87"/>
<path d="M441.153 248.675C439.475 251.091 438.024 253.655 436.847 256.285L441.153 248.675Z" fill="#1C3B87"/>
<path d="M441.393 248.841C441.984 252.185 440.207 255.125 437.113 256.405C437.113 256.404 436.581 256.166 436.581 256.166C435.448 252.869 437.443 249.166 440.914 248.508C440.914 248.508 441.393 248.841 441.393 248.841Z" fill="#1C3B87"/>
<path d="M426.313 239.639C425.967 242.56 425.89 245.506 426.086 248.381L426.313 239.639Z" fill="#1C3B87"/>
<path d="M426.603 239.673C428.695 242.345 428.507 245.777 426.377 248.362C426.377 248.362 425.795 248.401 425.795 248.401C423.247 246.025 423.269 241.818 426.024 239.604C426.024 239.604 426.603 239.673 426.603 239.673Z" fill="#1C3B87"/>
<path d="M412.163 230.151C412.6 233.06 413.304 235.921 414.252 238.642L412.163 230.151Z" fill="#1C3B87"/>
<path d="M412.451 230.107C415.175 232.13 415.9 235.489 414.528 238.546C414.528 238.546 413.977 238.738 413.977 238.738C410.892 237.121 409.802 233.058 411.875 230.194C411.875 230.194 412.451 230.107 412.451 230.107Z" fill="#1C3B87"/>
<path d="M413.124 257.162C414.873 259.526 416.834 261.722 418.946 263.68L413.124 257.162Z" fill="#1C3B87"/>
<path d="M413.358 256.988C416.711 257.497 418.925 260.123 419.144 263.466C419.144 263.466 418.748 263.895 418.748 263.895C415.265 263.914 412.399 260.837 412.889 257.336C412.889 257.336 413.358 256.988 413.358 256.988Z" fill="#1C3B87"/>
<path d="M419.547 232.779C420.319 235.617 421.349 238.377 422.606 240.97L419.547 232.779Z" fill="#1C3B87"/>
<path d="M419.829 232.702C422.768 234.395 423.877 237.647 422.868 240.843C422.868 240.843 422.344 241.098 422.344 241.098C419.092 239.849 417.539 235.94 419.266 232.855C419.266 232.855 419.829 232.702 419.829 232.702Z" fill="#1C3B87"/>
<path d="M418.188 243.476C418.959 246.315 419.99 249.075 421.247 251.668L418.188 243.476Z" fill="#1C3B87"/>
<path d="M418.469 243.4C421.409 245.093 422.518 248.345 421.509 251.541L420.984 251.795C417.732 250.547 416.18 246.638 417.907 243.553L418.469 243.4Z" fill="#1C3B87"/>
<path d="M446.604 238.315C447.375 241.154 448.406 243.914 449.663 246.507L446.604 238.315Z" fill="#1C3B87"/>
<path d="M446.885 238.239C449.825 239.932 450.934 243.184 449.925 246.379L449.4 246.634C446.148 245.386 444.596 241.477 446.323 238.392L446.885 238.239Z" fill="#1C3B87"/>
<path d="M461.328 252.082C458.481 252.816 455.71 253.811 453.103 255.035L461.328 252.082Z" fill="#1C3B87"/>
<path d="M461.401 252.364C459.669 255.284 456.405 256.351 453.227 255.299C453.227 255.299 452.98 254.77 452.98 254.77C454.272 251.532 458.198 250.03 461.255 251.799C461.255 251.799 461.401 252.364 461.401 252.364Z" fill="#1C3B87"/>
<path d="M469.122 271.25C466.477 272.533 463.957 274.057 461.643 275.773L469.122 271.25Z" fill="#1C3B87"/>
<path d="M469.249 271.513C468.128 274.718 465.139 276.41 461.816 276.008C461.816 276.007 461.469 275.539 461.469 275.539C462.096 272.108 465.648 269.858 468.994 270.988C468.994 270.988 469.249 271.513 469.249 271.513Z" fill="#1C3B87"/>
<path d="M462.48 281.415C459.627 280.708 456.717 280.267 453.842 280.106L462.48 281.415Z" fill="#1C3B87"/>
<path d="M462.41 281.698C459.501 283.445 456.123 282.834 453.825 280.397C453.826 280.397 453.858 279.814 453.858 279.814C456.531 277.578 460.699 278.121 462.55 281.131C462.55 281.132 462.41 281.698 462.41 281.698Z" fill="#1C3B87"/>
<path d="M457.125 288.918C454.272 288.212 451.362 287.771 448.487 287.609L457.125 288.918Z" fill="#1C3B87"/>
<path d="M457.054 289.201C454.145 290.948 450.767 290.337 448.47 287.9L448.503 287.318C451.176 285.081 455.343 285.624 457.194 288.635L457.054 289.201Z" fill="#1C3B87"/>
<path d="M459.525 270.031C457.437 272.102 455.545 274.36 453.91 276.733L459.525 270.031Z" fill="#1C3B87"/>
<path d="M459.729 270.238C459.705 273.633 457.424 276.203 454.15 276.899L453.67 276.567C453.154 273.119 455.787 269.84 459.319 269.823L459.729 270.238Z" fill="#1C3B87"/>
<path d="M447.178 270.325C446.404 273.164 445.893 276.066 445.662 278.939L447.178 270.325Z" fill="#1C3B87"/>
<path d="M447.46 270.402C449.134 273.355 448.442 276.721 445.953 278.962L445.372 278.916C443.203 276.188 443.846 272.03 446.897 270.249L447.46 270.402Z" fill="#1C3B87"/>
<path d="M468.231 261.411C466.143 263.482 464.251 265.74 462.616 268.113L468.231 261.411Z" fill="#1C3B87"/>
<path d="M468.436 261.618C468.412 265.013 466.131 267.582 462.856 268.278C462.856 268.278 462.376 267.947 462.376 267.947C461.86 264.499 464.494 261.219 468.026 261.203C468.026 261.203 468.436 261.618 468.436 261.618Z" fill="#1C3B87"/>
<path d="M455.55 259.099C454.948 261.979 454.611 264.906 454.553 267.788L455.55 259.099Z" fill="#1C3B87"/>
<path d="M455.836 259.159C457.684 262.006 457.195 265.407 454.844 267.794C454.844 267.794 454.261 267.782 454.261 267.782C451.933 265.19 452.326 261.001 455.265 259.04C455.265 259.04 455.836 259.159 455.836 259.159Z" fill="#1C3B87"/>
<path d="M411.687 272.365C411.34 275.287 411.263 278.233 411.459 281.108L411.687 272.365Z" fill="#1C3B87"/>
<path d="M411.976 272.4C414.068 275.072 413.88 278.503 411.75 281.088C411.75 281.088 411.168 281.128 411.168 281.128C408.62 278.752 408.642 274.545 411.397 272.331C411.397 272.331 411.976 272.4 411.976 272.4Z" fill="#1C3B87"/>
</g>
<g clip-path="url(#clip10_1310_2573)">
<path d="M396.817 214.398C396.472 210.673 395.57 207.041 394.625 203.427C394.006 201.059 392.846 198.896 392.031 196.603C390.955 193.575 389.643 190.649 388.152 187.809C386.119 183.94 383.695 180.355 380.21 177.607C379.733 177.231 379.277 176.826 378.824 176.419C378.18 175.84 378.184 175.746 378.808 175.213C378.9 175.134 379 175.063 379.096 174.989C384.488 170.784 390.298 167.236 396.316 164.014C396.845 163.73 397.462 163.568 397.799 163H395.608C395.576 163.024 395.546 163.054 395.511 163.073C389.377 166.418 383.398 170.005 377.966 174.435C377.463 174.846 377.106 174.714 376.706 174.327C376.066 173.705 375.425 173.083 374.756 172.493C374.15 171.958 373.458 171.742 372.619 171.897C369.23 172.523 365.807 172.978 362.486 173.932C359.427 174.81 356.503 176.012 353.884 177.846C350.506 180.21 347.66 183.168 344.868 186.17C343.96 187.145 343.202 188.267 342.435 189.364C341.586 190.578 341.056 191.949 340.856 193.415C340.458 196.321 340.5 199.249 340.66 202.165C340.702 202.938 340.491 203.278 339.866 203.56C338.461 204.193 337.052 204.82 335.673 205.509C330.409 208.139 325.239 210.947 320.227 214.032C310.544 219.993 300.511 225.312 290.396 230.485C288.302 231.555 286.212 232.663 283.908 233.227C280.246 234.123 276.585 235.032 272.901 235.826C270.049 236.44 267.173 236.9 264.364 237.746C261.3 238.669 258.167 239.367 255.064 240.16C253.644 240.523 252.222 240.929 250.968 241.682C246.954 244.092 244.873 247.391 245.753 251.974C246.018 253.358 246.349 254.72 246.896 256.028C246.696 256.084 246.618 256.13 246.548 256.12C246.348 256.092 246.15 256.044 245.953 255.999C245.037 255.79 244.535 255.21 244.446 254.259C244.337 253.06 243.98 251.964 243.215 251.008C242.759 250.438 242.348 249.832 241.931 249.233C241.301 248.33 240.453 247.735 239.402 247.441C238.465 247.178 237.519 246.948 236.574 246.713C234.38 246.166 232.24 246.363 230.126 247.141C228.701 247.665 227.408 248.419 226.183 249.289C223.935 250.887 221.401 252.058 219.313 253.891C217.881 255.148 216.524 256.498 215.047 257.699C211.377 260.683 208.313 264.265 205.069 267.67C204.142 268.644 203.227 269.628 202.306 270.608C202.306 270.608 195.812 277.651 194.326 278.659C193.251 279.389 192.218 280.165 191.266 281.059C189.224 282.974 187.134 284.837 184.81 286.416C183.871 287.055 182.939 287.706 182.021 288.375C178.272 291.109 174.867 294.231 171.659 297.578C169.974 299.337 168.217 301.016 166.296 302.527C164.256 304.132 162.273 305.811 160.298 307.495C156.776 310.497 153.204 313.437 149.371 316.034C145.534 318.634 141.908 321.511 138.412 324.533C134.731 327.717 131.025 330.871 127.341 334.052C124.724 336.313 121.76 338.105 119.104 340.308C118.637 340.696 118.281 340.645 117.845 340.234C116.898 339.341 115.884 338.525 114.647 338.054C113.022 337.434 112.607 337.534 111.424 338.775C110.64 339.597 109.853 340.418 109.061 341.231C108.231 342.083 107.262 342.754 106.207 343.286C104.713 344.041 103.085 344.418 101.484 344.861L98.7612 345.932C98.0507 346.488 97.5456 347.23 96.9759 347.917C95.5786 349.6 93.8354 350.829 91.8682 351.767C89.1599 353.059 86.4524 354.357 83.9103 355.964C83.2255 356.397 82.5231 356.818 81.9017 357.333C79.4829 359.337 76.8834 361.042 74 362.301V363.275C75.4351 363.069 76.6332 362.281 77.8891 361.652C79.126 361.032 80.2124 360.166 81.2793 359.293C83.6817 357.327 86.3864 355.858 89.1131 354.416C89.6784 354.117 90.003 354.219 90.4589 354.676C92.6348 356.858 94.8986 358.949 97.2129 360.985C100.079 363.506 102.726 366.251 105.309 369.055C106.546 370.399 107.811 371.713 109.102 373.002C112.345 376.242 115.58 379.489 118.857 382.694C121.956 385.725 125.37 388.297 129.519 389.761C130.824 390.221 132.054 390.847 133.068 391.826C133.417 392.163 133.796 392.483 133.891 393H135.351C134.757 391.417 133.494 390.471 132.113 389.664C131.416 389.256 130.677 388.894 129.917 388.622C125.973 387.21 122.7 384.796 119.757 381.883C117.249 379.399 114.815 376.836 112.246 374.418C108.785 371.161 105.676 367.569 102.346 364.19C99.8635 361.672 97.1788 359.383 94.5519 357.027C93.586 356.161 92.6459 355.262 91.7441 354.329C91.0944 353.658 91.1757 353.412 92.0168 353.019C94.5512 351.834 96.8059 350.298 98.462 347.981C99.1217 347.058 100.022 346.48 101.144 346.212C102.089 345.986 103.002 345.626 103.946 345.395C107.253 344.588 109.739 342.577 111.88 340.047C112.958 338.773 113.582 338.644 114.984 339.529C115.668 339.96 116.291 340.489 116.941 340.974C117.328 341.263 117.474 341.568 117.06 341.969C116.89 342.134 116.732 342.342 116.651 342.561C116.526 342.902 116.649 343.203 116.977 343.385C117.27 343.549 117.529 343.47 117.725 343.211C117.821 343.083 117.873 342.922 117.967 342.792C118.172 342.51 118.435 342.475 118.697 342.699C118.881 342.856 119.045 343.04 119.195 343.231C120.901 345.41 122.915 347.303 124.841 349.276C125.577 350.03 126.353 350.744 127.18 351.405C129.852 353.54 132.179 356.03 134.473 358.553C136.445 360.72 138.734 362.543 140.908 364.49C142.964 366.331 145.073 368.107 147.241 369.814C147.718 370.189 148.155 370.515 147.875 371.317C147.629 372.019 148.089 372.327 148.857 372.069C149.165 371.965 149.465 371.74 149.773 371.954C150.237 372.276 150.687 372.626 151.095 373.014C151.292 373.202 151.142 373.478 151.01 373.685C149.964 375.328 149.132 377.095 148.033 378.711C145.224 382.842 142.174 386.788 139.041 390.675C138.467 391.388 137.752 392.039 137.543 393H139.003C139.148 392.382 139.573 391.929 139.948 391.456C142.595 388.118 145.248 384.79 147.705 381.302C149.347 378.971 150.777 376.528 152.16 374.048C152.773 372.947 152.664 372.616 151.614 371.816C151.421 371.668 151.234 371.512 151.036 371.371C150.632 371.082 150.641 370.829 151.038 370.521C151.903 369.85 152.766 369.177 153.515 368.368C155.858 365.839 158.226 363.332 160.56 360.794C161.135 360.169 161.627 359.467 162.142 358.788C162.828 357.883 163.492 356.961 164.176 356.054C167.011 352.297 169.935 348.604 172.666 344.773C175.935 340.185 179.67 336.029 183.85 332.285C186.358 330.038 188.882 327.812 191.278 325.445C193.566 323.186 196.112 321.248 198.67 319.312C199.969 318.328 201.51 317.784 202.76 316.678C203.959 315.615 205.493 314.981 207.111 314.599C211.33 313.602 215.622 312.882 219.702 311.343C219.928 311.257 220.169 311.209 220.403 311.142C224.65 309.921 228.92 308.769 233.079 307.263C235.445 306.406 237.689 305.255 239.985 304.23C240.463 304.016 240.931 303.769 241.485 303.782C242.781 303.814 244.078 303.87 245.373 303.842C248.325 303.778 251.189 303.295 253.799 301.815C255.142 301.054 256.209 300.031 256.622 298.47C256.672 298.281 256.704 298.065 257.041 298.051C257.406 298.531 257.798 299.041 258.183 299.557C258.479 299.954 258.838 300.275 259.279 300.502C260.947 301.359 262.73 301.713 264.58 301.512C266.929 301.258 268.851 300.076 270.561 298.504C270.919 298.174 271.184 297.705 271.765 297.523C271.703 299.711 272.791 301.339 273.876 302.96C274.275 303.556 274.912 303.834 275.573 304.08C278.079 305.011 280.671 305.098 283.256 304.704C287.382 304.077 291.476 303.265 295.555 302.362C297.773 301.871 299.269 300.663 300.217 298.666C300.461 298.153 300.702 297.639 300.927 297.117C302.443 293.591 303.266 289.85 304.095 286.137C305.156 281.383 306.359 276.665 307.433 271.916C307.972 269.535 309.303 267.714 311.22 266.288C312.294 265.489 313.389 264.715 314.515 263.993C317.76 261.913 321.045 259.896 324.277 257.798C329.722 254.263 335.187 250.762 340.741 247.402C342.754 246.184 344.792 245.007 346.821 243.816C347.167 243.613 347.515 243.347 347.937 243.654C349.114 244.51 350.578 244.833 351.721 245.792C352.498 246.444 353.497 246.74 354.579 246.549C356.743 246.168 358.93 246.05 361.122 246.148C362.976 246.23 364.766 245.956 366.497 245.318C368.856 244.45 371.212 243.568 373.55 242.645C378.283 240.776 382.748 238.376 387.002 235.596C389.043 234.262 391.004 232.753 392.416 230.744C395.855 225.849 397.37 220.373 396.817 214.398ZM176.139 294.831C177.784 293.211 179.585 291.77 181.391 290.337C181.733 290.065 182.039 290.027 182.33 290.392C183.643 292.033 184.954 293.675 186.267 295.316C186.628 295.768 186.435 296.025 185.981 296.242C185.142 296.643 184.322 297.085 183.482 297.486C181.95 298.219 180.628 299.251 179.367 300.358C179.181 300.32 179.094 300.184 179.001 300.052C178.072 298.728 177.17 297.386 176.106 296.159C175.568 295.539 175.575 295.387 176.139 294.831ZM196.05 308.905C196.881 310.532 196.711 311.231 195.248 312.35C193.835 313.431 192.244 314.101 190.135 314.033C188.739 314.255 187.666 313.418 186.801 312.081C185.236 309.661 183.715 307.227 182.661 304.526C182.323 303.66 181.872 302.837 181.45 302.006C181.189 301.495 181.223 301.124 181.735 300.767C183.537 299.507 185.424 298.421 187.534 297.763C188.742 297.387 189.195 297.52 189.917 298.561C192.207 301.863 194.226 305.329 196.05 308.905ZM191.313 298.338C192.463 299.277 194.01 301.778 194.513 303.476C193.368 301.812 192.485 299.985 191.313 298.338ZM197.81 310.858C198.166 311.488 197.909 311.955 197.496 312.383C195.879 314.059 194.173 315.557 191.737 315.957C191.046 316.07 190.404 316.442 189.656 316.488C188.702 316.547 188.003 316.264 187.525 315.432C187.331 315.094 187.013 314.825 186.927 314.393C190.907 316.36 196.398 314.581 197.81 310.858ZM193.905 321.499C189.909 324.759 186.406 328.557 182.494 331.919C178.955 334.96 175.823 338.438 173.058 342.226C169.613 346.946 166.083 351.602 162.537 356.247C160.983 358.281 159.424 360.297 157.668 362.159C155.831 364.108 154.009 366.071 152.154 368.002C151.651 368.525 151.067 368.977 150.49 369.421C149.556 370.139 149.514 370.15 148.613 369.412C146.604 367.768 144.579 366.139 142.633 364.422C139.957 362.061 137.191 359.794 134.779 357.147C134.041 356.337 133.315 355.516 132.559 354.724C131.438 353.55 130.272 352.423 129.018 351.386C125.695 348.636 122.741 345.513 119.91 342.268C119.377 341.657 119.365 341.546 120.051 341.016C121.078 340.223 122.13 339.459 123.206 338.734C125.872 336.938 128.198 334.718 130.715 332.739C133.815 330.303 136.593 327.504 139.649 325.027C143.241 322.116 146.823 319.196 150.657 316.588C154.414 314.032 157.924 311.137 161.366 308.164C163.145 306.626 164.967 305.135 166.809 303.671C169.134 301.824 171.269 299.777 173.325 297.641C173.649 297.304 173.933 296.835 174.605 297.021C175.086 297.048 175.53 297.258 175.882 297.716C176.85 298.972 177.73 300.286 178.543 301.645C178.733 301.962 178.817 302.313 178.875 302.68C179.082 303.975 179.582 305.151 180.276 306.267C181.09 307.576 181.837 308.927 182.611 310.261C183.856 312.406 185.327 314.398 186.763 316.415C187.554 317.525 188.609 317.948 189.944 317.68C190.143 317.64 190.345 317.619 190.543 317.577C191.26 317.424 191.77 317.618 192.161 318.299C192.664 319.175 193.176 320.066 193.974 320.726C194.356 321.042 194.193 321.264 193.905 321.499ZM199.704 317.147C198.526 318.003 197.353 318.866 196.165 319.709C195.705 320.035 194.717 319.905 194.313 319.408C193.856 318.845 193.485 318.212 193.092 317.6C192.873 317.26 192.956 316.97 193.336 316.818C195.092 316.113 196.588 315.028 197.935 313.718C198.091 313.566 198.319 313.469 198.471 313.656C199.163 314.507 199.646 315.486 200.1 316.333C200.175 316.814 199.935 316.979 199.704 317.147ZM255.57 297.696C255.287 299.094 254.456 300.036 253.298 300.697C250.54 302.27 247.548 302.787 244.377 302.434C245.55 301.632 246.578 300.72 247.502 299.69C247.964 299.175 248.377 298.622 248.665 297.988C248.79 297.713 248.835 297.416 248.548 297.221C248.262 297.027 248.002 297.165 247.802 297.4C247.671 297.554 247.56 297.726 247.451 297.897C246.347 299.628 244.808 300.881 242.964 301.705C239.521 303.242 236.07 304.768 232.567 306.16C229.022 307.568 225.295 308.436 221.654 309.56C220.763 309.835 219.837 310.007 218.966 310.333C215.302 311.705 211.456 312.367 207.669 313.251C205.906 313.663 204.256 314.266 202.726 315.219C202.451 315.391 202.167 315.548 201.886 315.711C201.505 315.933 201.198 315.873 200.963 315.482C200.399 314.542 199.831 313.605 199.258 312.672C199.069 312.364 199.154 312.041 199.174 311.722C199.221 310.979 199.097 310.268 198.821 309.578C197.521 306.334 196.062 303.166 194.276 300.158C193.445 298.758 192.468 297.472 191.345 296.283C190.611 295.505 189.805 295.104 188.753 295.307C187.993 295.453 187.486 295.215 187.242 294.467C187.152 294.191 187.011 293.951 186.786 293.761C185.476 292.649 184.488 291.253 183.427 289.923C182.9 289.263 182.908 289.197 183.627 288.696C185.591 287.327 187.578 285.992 189.362 284.384C189.843 283.95 190.341 283.532 190.815 283.09C192.18 281.816 193.553 280.558 195.134 279.542C195.813 279.106 196.432 278.57 197.056 278.054C197.545 277.649 201.586 273.221 202.827 271.834C204.341 270.141 205.91 268.496 207.481 266.855C209.472 264.775 211.338 262.572 213.492 260.651C215.701 258.679 217.871 256.658 220.158 254.781C222.955 252.486 226.136 250.747 229.208 248.856C229.752 248.52 230.392 248.331 231 248.109C232.604 247.524 234.245 247.442 235.911 247.794C236.11 247.836 236.314 247.853 236.51 247.903C240.838 248.996 240.025 248.708 242.555 252.206C242.968 252.777 243.161 253.435 243.194 254.145C243.215 254.59 243.289 255.032 243.346 255.474C243.445 256.246 243.857 256.733 244.638 256.885C244.837 256.924 245.027 257.011 245.227 257.037C246.507 257.207 247.49 257.795 248.186 258.924C249.025 260.285 249.553 261.687 249.161 263.308C248.999 263.978 248.87 264.66 248.654 265.314C248.267 266.481 248.652 267.374 249.536 268.125C249.629 268.204 249.716 268.292 249.818 268.357C252.264 269.906 253.064 272.271 253.157 275.012C253.19 275.971 252.988 276.872 252.65 277.744C252.241 278.798 252.256 279.789 252.846 280.775C253.312 281.552 253.506 282.42 253.641 283.312C253.923 285.167 254.577 286.925 255.162 288.695C256.145 291.668 256.186 294.654 255.57 297.696ZM254.099 277.747C254.944 279.153 255.317 280.45 254.703 282.162C254.385 280.589 252.917 279.486 254.099 277.747ZM346.117 242.857C338.493 247.184 331.136 251.946 323.776 256.702C320.369 258.903 316.92 261.04 313.507 263.233C312.45 263.911 311.436 264.66 310.423 265.404C308.246 267.002 306.833 269.104 306.217 271.754C305.087 276.616 303.915 281.467 302.804 286.334C302.03 289.727 301.305 293.157 299.916 296.383C299.723 296.83 299.516 297.271 299.331 297.721C298.491 299.762 297.011 300.86 294.814 301.333C291.325 302.083 287.809 302.68 284.311 303.372C281.631 303.903 278.917 303.951 276.255 303.064C275.485 302.807 274.847 302.452 274.448 301.735C274.054 301.027 273.663 300.316 273.283 299.599C272.645 298.396 273.087 297.138 273.117 295.902C273.119 295.799 273.229 295.688 273.311 295.6C274.443 294.382 275.534 293.121 277.069 292.365C277.881 291.965 278.703 291.663 279.623 291.666C280.276 291.668 280.92 291.571 281.512 291.274C281.743 291.159 281.887 290.953 281.818 290.676C281.749 290.403 281.533 290.272 281.275 290.281C280.912 290.294 280.55 290.357 280.188 290.398C277.241 290.415 275.02 291.88 273.159 293.996C271.978 295.339 270.757 296.645 269.454 297.861C266.904 300.24 263.959 301.038 260.59 299.818C259.801 299.532 259.127 299.079 258.695 298.363C257.866 296.988 257.208 295.596 257.227 293.88C257.248 292.065 256.976 290.244 256.384 288.492C255.903 287.071 255.483 285.629 255.049 284.192C254.89 283.666 254.779 283.161 255.523 282.931C255.859 282.828 255.91 282.438 255.99 282.122C256.3 280.905 256.238 279.701 255.788 278.533C255.439 277.628 255.05 276.738 254.641 275.858C254.499 275.554 254.433 275.251 254.389 274.929C254.29 274.206 254.143 273.487 254.08 272.761C253.902 270.71 252.822 269.18 251.27 267.966C249.14 266.3 249.557 266.392 250.15 264.532C250.949 262.028 250.299 259.905 248.931 257.863C248.693 257.507 248.481 257.234 248.864 256.811C249.176 256.467 248.992 256.098 248.601 255.925C247.874 255.604 247.671 254.943 247.466 254.284C247.005 252.802 246.75 251.263 246.74 249.729C246.725 247.579 247.841 245.893 249.306 244.391C250.968 242.689 253.093 241.933 255.295 241.324C259.359 240.201 263.479 239.298 267.531 238.115C269.467 237.549 271.529 237.425 273.489 236.924C277.143 235.989 280.837 235.231 284.49 234.301C287.111 233.634 289.438 232.267 291.839 231.099C294.391 229.857 296.86 228.445 299.387 227.153C307.411 223.05 315.148 218.444 322.893 213.846C328.473 210.535 334.133 207.354 340.102 204.764C342.112 203.892 344.03 202.829 345.878 201.643C346.948 200.956 346.94 200.984 347.758 201.912C351.642 206.323 354.206 211.43 355.724 217.08C356.576 220.253 357.669 223.369 358.166 226.629C358.587 229.395 358.936 232.174 359.268 234.953C359.416 236.201 359.305 236.293 358.155 236.752C353.96 238.425 350.033 240.634 346.117 242.857ZM354.856 245.168C354.123 245.525 353.347 245.405 352.645 244.99C351.572 244.357 350.645 243.485 349.401 243.126C348.955 242.997 349.039 242.647 349.412 242.424C349.897 242.134 350.383 241.841 350.884 241.579C353.178 240.381 355.467 239.173 357.854 238.165C358.078 238.071 358.299 237.967 358.531 237.898C359.128 237.72 359.258 237.813 359.295 238.417C359.302 238.538 359.296 238.66 359.296 238.781C359.291 241.939 357.512 243.872 354.856 245.168ZM391.946 229.3C390.382 231.775 388.062 233.538 385.608 235.081C382.24 237.2 378.789 239.185 375.102 240.701C372.027 241.966 368.921 243.162 365.796 244.296C364.03 244.936 362.169 245.13 360.279 245.007C359.476 244.955 358.666 244.999 357.7 244.999C358.197 244.389 358.575 243.917 358.962 243.452C360.175 241.993 360.395 240.217 360.542 238.427C360.593 237.805 360.607 237.237 361.246 236.863C361.624 236.641 361.664 236.17 361.248 235.976C360.447 235.604 360.485 234.885 360.395 234.226C360.131 232.296 359.891 230.363 359.665 228.429C359.429 226.408 359.061 224.411 358.489 222.462C357.347 218.571 356.487 214.596 354.834 210.859C353.309 207.413 351.347 204.264 348.904 201.405C348.139 200.511 347.383 199.609 346.627 198.708C345.946 197.895 345.217 197.138 344.309 196.572C343.997 196.378 343.679 196.193 343.309 196.147C342.92 196.099 342.541 196.171 342.434 196.607C342.322 197.061 342.629 197.269 343.029 197.357C344.271 197.631 345.006 198.554 345.747 199.473C346.039 199.836 346.014 200.133 345.621 200.384C344.629 201.017 343.651 201.678 342.58 202.171C342.046 202.417 341.829 202.281 341.732 201.721C341.704 201.563 341.705 201.396 341.72 201.236C341.898 199.414 341.826 197.585 341.846 195.759C341.873 193.232 342.664 191.022 344.17 188.981C346.749 185.486 349.929 182.6 353.218 179.83C356.06 177.436 359.435 176.036 362.976 175.024C366.143 174.119 369.412 173.72 372.636 173.1C372.915 173.046 373.229 172.976 373.474 173.126C374.62 173.827 375.727 174.611 376.281 175.88C376.482 176.341 376.623 176.667 377.15 176.712C377.448 176.738 377.653 176.952 377.877 177.127C382.18 180.495 385.348 184.735 387.738 189.632C389.683 193.618 391.258 197.754 392.809 201.891C394.295 205.852 395.061 210.02 395.57 214.221C396.233 219.694 394.849 224.707 391.946 229.3Z" fill="#1C3B87"/>
<path d="M260.972 274.046C260.075 274.33 259.283 274.817 258.568 275.423C258.118 275.806 257.855 276.386 257.184 276.541C256.846 276.62 256.826 277.04 256.822 277.373C256.861 277.743 256.92 278.125 257.304 278.288C257.719 278.464 258.028 278.231 258.202 277.882C258.891 276.503 260.018 275.64 261.408 275.065C261.718 274.937 262.026 274.733 261.894 274.343C261.739 273.886 261.325 273.934 260.972 274.046Z" fill="#1C3B87"/>
<path d="M255.323 257.552C255.173 257.501 255.006 257.497 254.965 257.49C253.282 257.463 251.355 259.583 251.46 261.213C251.476 261.476 251.571 261.705 251.844 261.767C252.115 261.829 252.322 261.67 252.434 261.438C252.644 261 252.826 260.548 253.021 260.103C253.369 259.309 253.928 258.771 254.806 258.611C255.005 258.575 255.208 258.537 255.392 258.461C255.589 258.381 255.712 258.218 255.692 257.985C255.673 257.753 255.522 257.619 255.323 257.552Z" fill="#1C3B87"/>
<g clip-path="url(#clip11_1310_2573)">
<path d="M280.954 292.891C281.326 292.849 281.697 292.784 282.07 292.771C282.335 292.762 282.557 292.896 282.627 293.175C282.698 293.459 282.551 293.669 282.314 293.788C281.706 294.091 281.044 294.19 280.374 294.188C279.429 294.186 278.586 294.494 277.752 294.903C276.175 295.677 275.056 296.967 273.893 298.214C273.81 298.303 273.697 298.417 273.694 298.522C273.664 299.787 273.21 301.075 273.864 302.306C274.254 303.039 274.656 303.766 275.061 304.491C275.47 305.224 276.125 305.588 276.916 305.851C279.649 306.758 282.436 306.709 285.187 306.166C288.779 305.458 292.389 304.847 295.971 304.079C298.226 303.596 299.746 302.472 300.608 300.384C300.798 299.923 301.011 299.472 301.209 299.014C302.635 295.714 303.379 292.205 304.174 288.733C305.315 283.753 306.519 278.789 307.678 273.815C308.311 271.103 309.761 268.953 311.997 267.317C313.037 266.556 314.078 265.79 315.163 265.096C318.668 262.853 322.209 260.666 325.707 258.413C333.264 253.547 340.817 248.675 348.645 244.247C352.665 241.973 356.697 239.713 361.004 238.001C362.185 237.531 362.299 237.437 362.146 236.16C361.807 233.316 361.448 230.473 361.015 227.643C360.505 224.307 359.384 221.119 358.508 217.873C356.949 212.092 354.317 206.867 350.329 202.353C349.49 201.404 349.498 201.375 348.399 202.078C346.502 203.291 344.533 204.379 342.469 205.272C336.341 207.921 330.529 211.176 324.8 214.564C316.848 219.268 308.905 223.981 300.666 228.179C298.071 229.502 295.536 230.946 292.917 232.216C290.451 233.412 288.062 234.81 285.371 235.493C281.62 236.445 277.827 237.22 274.076 238.177C272.064 238.69 269.947 238.817 267.958 239.395C263.799 240.606 259.568 241.53 255.396 242.679C253.135 243.302 250.953 244.075 249.247 245.817C247.742 247.354 246.597 249.079 246.612 251.279C246.623 252.849 246.884 254.423 247.357 255.94C247.568 256.614 247.777 257.291 248.523 257.619C248.925 257.796 249.113 258.174 248.793 258.525C248.4 258.958 248.617 259.237 248.862 259.601C250.267 261.691 250.933 263.863 250.113 266.426C249.504 268.329 249.076 268.234 251.263 269.939C252.856 271.181 253.965 272.747 254.149 274.844C254.213 275.588 254.364 276.323 254.465 277.064C254.511 277.393 254.579 277.703 254.724 278.014C255.145 278.914 255.544 279.825 255.902 280.751C256.364 281.946 256.427 283.178 256.11 284.424C256.027 284.747 255.975 285.145 255.63 285.251C254.866 285.486 254.98 286.003 255.143 286.541C255.589 288.011 256.02 289.487 256.514 290.941C257.122 292.734 257.401 294.597 257.38 296.454C257.36 298.209 258.035 299.634 258.887 301.041C259.33 301.774 260.022 302.237 260.833 302.529C264.292 303.778 267.315 302.961 269.933 300.527C271.271 299.282 272.525 297.947 273.738 296.573C275.648 294.408 277.928 292.908 280.954 292.891Z" fill="#111EF7"/>
</g>
<g clip-path="url(#clip12_1310_2573)">
<path d="M254.187 288.984C253.604 287.22 252.953 285.467 252.671 283.618C252.536 282.728 252.343 281.863 251.879 281.088C251.291 280.106 251.276 279.117 251.683 278.066C252.02 277.197 252.222 276.299 252.189 275.343C252.096 272.611 251.299 270.253 248.861 268.708C248.759 268.644 248.673 268.556 248.58 268.478C247.699 267.728 247.315 266.839 247.7 265.675C247.916 265.023 248.045 264.344 248.207 263.675C248.597 262.059 248.07 260.662 247.234 259.304C246.541 258.179 245.561 257.594 244.285 257.424C244.086 257.398 243.896 257.311 243.698 257.272C242.92 257.12 242.509 256.635 242.41 255.865C242.353 255.425 242.279 254.984 242.259 254.541C242.226 253.832 242.033 253.177 241.622 252.608C239.1 249.121 239.911 249.407 235.597 248.318C235.402 248.269 235.198 248.251 235.001 248.209C233.34 247.858 231.704 247.94 230.106 248.524C229.5 248.745 228.862 248.933 228.319 249.268C225.258 251.154 222.088 252.887 219.3 255.175C217.02 257.046 214.858 259.061 212.656 261.026C210.51 262.942 208.65 265.137 206.665 267.211C205.1 268.848 203.536 270.487 202.027 272.175C200.79 273.558 196.763 277.972 196.275 278.376C195.653 278.89 195.037 279.424 194.359 279.859C192.784 280.872 191.415 282.126 190.055 283.396C189.583 283.837 189.087 284.253 188.606 284.686C186.829 286.289 184.848 287.62 182.891 288.985C182.174 289.485 182.166 289.55 182.691 290.208C183.749 291.534 184.734 292.926 186.04 294.034C186.264 294.224 186.404 294.463 186.494 294.737C186.737 295.483 187.242 295.721 188 295.575C189.048 295.373 189.852 295.773 190.583 296.548C191.702 297.734 192.676 299.016 193.504 300.411C195.285 303.41 196.739 306.568 198.034 309.802C198.309 310.49 198.432 311.199 198.386 311.94C198.366 312.258 198.281 312.58 198.47 312.886C199.041 313.817 199.607 314.751 200.169 315.688C200.404 316.078 200.709 316.137 201.089 315.916C201.369 315.753 201.652 315.597 201.926 315.426C203.451 314.475 205.095 313.874 206.853 313.464C210.627 312.583 214.46 311.923 218.112 310.555C218.98 310.23 219.903 310.058 220.791 309.784C224.42 308.663 228.134 307.798 231.667 306.394C235.159 305.007 238.598 303.486 242.029 301.953C243.867 301.132 245.401 299.883 246.502 298.157C246.611 297.987 246.721 297.815 246.852 297.662C247.051 297.428 247.31 297.29 247.595 297.484C247.881 297.678 247.836 297.974 247.712 298.248C247.424 298.881 247.013 299.432 246.552 299.945C245.631 300.972 244.607 301.88 243.438 302.68C246.598 303.032 249.58 302.517 252.329 300.948C253.483 300.29 254.312 299.35 254.594 297.957C255.208 294.924 255.167 291.948 254.187 288.984Z" fill="#1C3B87"/>
<path d="M193.203 320.915C192.408 320.258 191.898 319.369 191.397 318.496C191.007 317.817 190.498 317.624 189.784 317.776C189.587 317.818 189.385 317.84 189.187 317.879C187.856 318.146 186.805 317.725 186.016 316.618C184.585 314.608 183.119 312.621 181.878 310.483C181.107 309.153 180.363 307.806 179.551 306.501C178.86 305.389 178.361 304.216 178.155 302.926C178.097 302.559 178.013 302.21 177.824 301.894C177.013 300.539 176.137 299.229 175.172 297.977C174.821 297.52 174.378 297.311 173.899 297.284C173.229 297.098 172.946 297.566 172.623 297.902C170.575 300.032 168.447 302.072 166.129 303.914C164.294 305.373 162.478 306.86 160.704 308.393C157.274 311.357 153.775 314.242 150.031 316.79C146.21 319.39 142.64 322.302 139.06 325.204C136.014 327.672 133.245 330.463 130.156 332.892C127.647 334.864 125.329 337.077 122.671 338.868C121.599 339.591 120.55 340.353 119.527 341.143C118.843 341.671 118.855 341.782 119.387 342.391C122.208 345.626 125.152 348.739 128.465 351.481C129.714 352.515 130.876 353.638 131.993 354.808C132.747 355.598 133.47 356.417 134.206 357.224C136.61 359.863 139.367 362.123 142.034 364.476C143.974 366.188 145.991 367.812 147.993 369.452C148.892 370.187 148.934 370.175 149.864 369.46C150.44 369.018 151.021 368.567 151.523 368.045C153.372 366.12 155.188 364.163 157.019 362.221C158.769 360.365 160.323 358.355 161.871 356.327C165.405 351.696 168.923 347.054 172.357 342.349C175.113 338.573 178.235 335.106 181.761 332.074C185.66 328.722 189.152 324.936 193.135 321.686C193.422 321.452 193.585 321.231 193.203 320.915Z" fill="#1C3B87"/>
</g>
</g>
<g clip-path="url(#clip13_1310_2573)">
<path d="M292.284 92.9315C320.869 94.2229 347.266 95.2357 375.864 96.1677C377.241 96.2127 378.697 96.2382 379.898 95.5358C380.931 94.9316 381.63 93.871 382.291 92.8471C384.494 89.4355 386.697 86.0238 388.9 82.6122C389.524 81.3396 387.886 79.9404 364.213 80.1677C355.349 80.2527 346.153 79.9901 337.297 79.5683C329.709 79.2068 310.812 77.9043 303.43 79.5683C298.172 80.7536 290.418 90.2274 292.284 92.9315Z" fill="#E83323"/>
<path d="M297.916 108.477C297.93 108.962 297.966 109.506 298.219 109.816C298.412 110.054 298.681 110.087 298.932 110.108C301.604 110.336 304.284 110.371 306.959 110.214C307.501 110.182 308.084 110.12 308.501 109.609C309.051 108.934 309.114 107.742 309.135 106.686C309.237 101.416 309.339 96.1457 309.441 90.8756C309.449 90.457 309.444 89.9863 309.242 89.6925C309.048 89.4102 308.743 89.3981 308.471 89.4036C305.997 89.4531 300.361 87.881 298.563 91.1267C296.752 94.3954 297.789 104.496 297.916 108.477Z" fill="#E83323"/>
<path d="M311.974 78.4651C311.986 79.1778 312.016 79.9773 312.226 80.4335C312.386 80.7821 312.61 80.8312 312.818 80.8626C315.039 81.197 317.267 81.2489 319.49 81.018C319.939 80.9712 320.424 80.8793 320.771 80.1283C321.228 79.1367 321.28 77.3855 321.297 75.8339C321.297 67.8824 321.625 59.9284 321.579 51.9791C321.564 49.4376 320.357 50.219 319.074 50.0086C318.195 49.8646 317.341 49.3987 316.468 49.1877C314.812 48.7873 312.942 48.9031 312.175 51.3524C310.67 56.1548 311.869 72.6162 311.974 78.4651Z" fill="#E83323"/>
<path d="M310.811 43.4117C308.879 43.4262 306.712 43.4619 305.475 43.7158C304.53 43.9098 304.397 44.1803 304.311 44.4322C303.405 47.1168 303.264 49.8089 303.89 52.4958C304.017 53.0396 304.266 53.6254 306.302 54.0441C308.99 54.597 313.738 54.6602 317.945 54.6809C332.671 54.7555 347.397 54.8249 362.122 54.8968C369.528 54.9331 376.934 54.9707 384.34 55.0095C384.958 55.0128 385.613 55.0048 386.136 54.6445C387.651 53.5998 388.49 49.3453 387.768 47.6908C387.104 46.1675 385.516 45.4299 384.126 44.972C382.758 44.521 381.337 44.2596 379.921 44.0619C366.902 42.2431 326.668 43.2842 310.811 43.4117Z" fill="#E83323"/>
<path d="M310.779 60.44C308.847 60.4545 306.679 60.4902 305.442 60.7441C304.498 60.9381 304.364 61.2086 304.279 61.4606C303.373 64.1452 303.232 66.8372 303.858 69.5241C303.985 70.068 304.234 70.6537 306.27 71.0725C308.958 71.6253 313.706 71.6886 317.913 71.7091C338.905 71.8117 359.897 71.9144 380.89 72.017C382.415 72.0246 384.505 72.6642 385.915 71.6757C387.228 70.7556 387.869 68.5234 388.036 66.9242C388.106 66.258 388.102 65.572 387.923 64.9309C387.03 61.7405 382.361 61.387 379.889 61.0902C366.869 59.2715 326.636 60.3125 310.779 60.44Z" fill="#E83323"/>
<path d="M372.37 80.6569C372.381 81.3794 372.408 82.1899 372.6 82.6523C372.747 83.0057 372.952 83.0555 373.143 83.0874C375.178 83.4263 377.219 83.4788 379.255 83.2448C379.667 83.1975 380.111 83.1042 380.429 82.3429C380.848 81.3378 380.896 79.5626 380.911 77.9896C380.989 70.1404 381.067 62.2911 381.145 54.4419C381.151 53.8184 381.147 53.1174 380.993 52.6799C380.845 52.2594 380.614 52.2413 380.406 52.2494C378.523 52.3233 374.231 49.9819 372.863 54.816C371.484 59.6842 372.273 74.7278 372.37 80.6569Z" fill="#E83323"/>
<path d="M358.634 112.967C358.648 113.505 358.682 114.108 358.924 114.452C359.108 114.715 359.366 114.752 359.605 114.776C362.159 115.028 364.721 115.068 367.277 114.893C367.795 114.858 368.352 114.789 368.75 114.222C369.276 113.474 369.336 112.152 369.356 110.981C369.454 105.137 369.551 99.2932 369.649 93.4493C369.657 92.9851 369.652 92.4632 369.459 92.1375C369.273 91.8244 368.982 91.8109 368.722 91.8169C366.357 91.872 360.971 90.1288 359.253 93.7278C357.523 97.3523 358.513 108.552 358.634 112.967Z" fill="#E83323"/>
<path d="M376.89 107.11C376.902 107.649 376.931 108.253 377.137 108.597C377.295 108.861 377.515 108.898 377.719 108.922C379.902 109.174 382.09 109.213 384.274 109.039C384.716 109.004 385.192 108.934 385.533 108.367C385.982 107.618 386.034 106.295 386.05 105.122C386.134 99.2726 386.217 93.4228 386.301 87.573C386.307 87.1083 386.303 86.5858 386.138 86.2598C385.979 85.9463 385.731 85.9329 385.508 85.939C383.488 85.994 378.886 84.249 377.418 87.8517C375.94 91.4799 376.786 102.691 376.89 107.11Z" fill="#E83323"/>
<path d="M317.104 106.393C317.117 106.808 317.149 107.273 317.374 107.538C317.546 107.741 317.786 107.769 318.009 107.787C320.39 107.982 322.778 108.012 325.16 107.878C325.643 107.851 326.162 107.797 326.534 107.36C327.024 106.784 327.08 105.765 327.098 104.863C327.189 100.36 327.28 95.8576 327.371 91.3548C327.379 90.9971 327.374 90.5949 327.194 90.344C327.021 90.1027 326.75 90.0923 326.507 90.097C324.303 90.1394 319.283 88.7963 317.681 91.5694C316.068 94.362 316.991 102.992 317.104 106.393Z" fill="#E83323"/>
<path d="M308.165 66.2641C314.965 65.8705 321.773 65.6193 328.583 65.5108C329.148 65.5019 329.15 64.6187 328.583 64.6278C321.773 64.7363 314.965 64.9874 308.165 65.381C307.603 65.4136 307.599 66.2969 308.165 66.2641Z" fill="#FDF5DA"/>
<path d="M360.083 66.2889C353.765 66.4982 347.447 66.7073 341.129 66.9166C340.565 66.9353 340.562 67.8185 341.129 67.7997C347.447 67.5904 353.765 67.3812 360.083 67.1719C360.648 67.1532 360.65 66.2701 360.083 66.2889Z" fill="#FDF5DA"/>
<path d="M376.273 49.2623C364.413 49.52 352.552 49.6593 340.689 49.6804C340.124 49.6813 340.123 50.5645 340.689 50.5634C352.552 50.5424 364.413 50.4031 376.273 50.1454C376.838 50.1331 376.84 49.25 376.273 49.2623Z" fill="#FDF5DA"/>
<path d="M316.178 47.1519C324.862 47.9514 333.573 48.3912 342.294 48.4706C342.859 48.4758 342.86 47.5927 342.294 47.5875C333.573 47.5082 324.862 47.0683 316.178 46.2688C315.615 46.217 315.618 47.1003 316.178 47.1519Z" fill="#FDF5DA"/>
<path d="M377.879 83.3731C364.382 84.2241 350.854 84.464 337.335 84.0916C336.769 84.076 336.77 84.9592 337.335 84.9747C350.854 85.347 364.382 85.1072 377.879 84.2562C378.441 84.2208 378.445 83.3375 377.879 83.3731Z" fill="#FDF5DA"/>
<path d="M312.678 86.5427C318.988 87.2435 325.313 87.7926 331.648 88.1898C332.213 88.2252 332.211 87.342 331.648 87.3066C325.313 86.9096 318.988 86.3604 312.678 85.6596C312.116 85.5973 312.121 86.4809 312.678 86.5427Z" fill="#FDF5DA"/>
<path d="M299.705 89.2612C303.157 89.404 306.609 89.5468 310.061 89.6897C310.627 89.7131 310.626 88.8299 310.061 88.8066C306.609 88.6638 303.157 88.521 299.705 88.3781C299.139 88.3548 299.14 89.2379 299.705 89.2612Z" fill="#FDF5DA"/>
<path d="M308.602 82.0795C313.944 82.4134 319.294 82.6048 324.646 82.6532C325.212 82.6583 325.212 81.7753 324.646 81.7701C319.294 81.7217 313.944 81.5304 308.602 81.1963C308.037 81.1611 308.039 82.0442 308.602 82.0795Z" fill="#FDF5DA"/>
<path d="M373.65 89.5563C365.289 89.3698 356.926 89.3627 348.565 89.5352C348 89.5469 347.998 90.43 348.565 90.4182C356.926 90.2457 365.289 90.2528 373.65 90.4393C374.216 90.452 374.216 89.5689 373.65 89.5563Z" fill="#FDF5DA"/>
</g>
<defs>
<clipPath id="clip0_1310_2573">
<rect width="91.4015" height="92.4171" fill="white" transform="translate(265.417) rotate(90)"/>
</clipPath>
<clipPath id="clip1_1310_2573">
<rect width="118" height="136" fill="white" transform="translate(0 10)"/>
</clipPath>
<clipPath id="clip2_1310_2573">
<rect width="92.4171" height="91.4015" fill="white" transform="translate(172.346 366.615) rotate(-180)"/>
</clipPath>
<clipPath id="clip3_1310_2573">
<rect width="92.4171" height="91.4015" fill="white" transform="translate(172.346 182.796) rotate(-180)"/>
</clipPath>
<clipPath id="clip4_1310_2573">
<rect width="91.4015" height="92.4171" fill="white" transform="translate(448.417 92) rotate(90)"/>
</clipPath>
<clipPath id="clip5_1310_2573">
<rect width="92.4171" height="92.4171" fill="white" transform="translate(172.346 182.796) rotate(90)"/>
</clipPath>
<clipPath id="clip6_1310_2573">
<rect width="91.4015" height="92.4171" fill="white" transform="translate(356.165 275.213) rotate(90)"/>
</clipPath>
<clipPath id="clip7_1310_2573">
<rect width="183.819" height="91.4015" fill="white" transform="translate(263.748 183.812) rotate(90)"/>
</clipPath>
<clipPath id="clip8_1310_2573">
<rect width="91.4015" height="92.4171" fill="white" transform="translate(356.165 183.812) rotate(90)"/>
</clipPath>
<clipPath id="clip9_1310_2573">
<rect width="97" height="116" fill="white" transform="translate(385.623 217) rotate(7.24172)"/>
</clipPath>
<clipPath id="clip10_1310_2573">
<rect width="262" height="230" fill="white" transform="translate(74 163)"/>
</clipPath>
<clipPath id="clip11_1310_2573">
<rect width="115.588" height="104.966" fill="white" transform="translate(246.612 201.591)"/>
</clipPath>
<clipPath id="clip12_1310_2573">
<rect width="136" height="122" fill="white" transform="translate(119 248)"/>
</clipPath>
<clipPath id="clip13_1310_2573">
<rect width="97" height="72" fill="white" transform="translate(292 43)"/>
</clipPath>
</defs>
</svg>
