<?xml version="1.0" encoding="utf-8"?>
<!-- Generator: Adobe Illustrator 26.0.1, SVG Export Plug-In . SVG Version: 6.00 Build 0)  -->
<svg version="1.1" id="Calque_1" xmlns="http://www.w3.org/2000/svg" xmlns:xlink="http://www.w3.org/1999/xlink" x="0px" y="0px"
	 viewBox="0 0 5000 5000" style="enable-background:new 0 0 5000 5000;" xml:space="preserve">
<style type="text/css">
	.st0{fill:#E7D846;}
	.st1{fill:#D57B36;}
	.st2{fill:#1D4C9C;}
</style>
<g>
	<path class="st0" d="M1431.91,3292.62c186.94-4.23,371.19-1.45,555.41-1.61c13.43-0.01,26.87,3.47,43.66,5.79
		c2.23,20.86,3.17,39.04,6.3,56.83c5.23,29.68,6.27,61.79,18.85,88.2c64.93,136.31,147.61,259.47,269.64,352.91
		c38.99,29.85,78.63,44.82,128.66,42.95c128.31-4.78,256.78-6.81,385.19-6.86c86.33-0.04,172.71,4.36,258.98,8.53
		c25.31,1.22,50.72,6.98,75.37,13.42c21.85,5.71,37.41,20.33,36.85,45.03c-0.57,25.14-9.59,45.47-36.88,52.82
		c-8.61,2.32-16.75,6.4-25.86,9.97c0,13.68,0,25.05,0,40.09c10.93,6.07,23.25,12.05,34.66,19.42c39.49,25.5,38.16,70.39-3.03,94.56
		c-9.58,5.62-20.82,8.41-32.76,13.07c0,20.41,0,38.54,0,59.76c21.69,8.47,42.58,16.62,66.96,26.13
		c-32.98,82.09-6.69,168.34-28.01,249.53c-24.55,17.7-48.54,15.92-74.2,4.18c-18.73-31.91-4.49-69.26-17.13-105.11
		c-6.38-2.81-14.46-9-22.95-9.64c-27.7-2.09-36.46,4.38-37.93,28.21c-1.73,27.97-1,56.07-2.17,84.09
		c-0.77,18.44-3.03,36.81-4.49,53.58c-45.98,20.42-45.98,20.42-96.71,3.42c-16.84-52.59-4.08-109.63-12.98-166.39
		c-47.25-20.05-96.85-9.98-144.78-13.05c-45.92-2.94-92.21-11.08-138.63-3.96c-15.57,26.55-9.95,52.92-12.37,77.83
		c-4.13,42.51-14.54,52.09-57.62,50.89c-6.92-0.19-13.95-1.58-20.61-3.51c-4.29-1.24-8-4.48-12.97-7.41
		c-19.42-35.43-7.66-77.43-20.38-119.8c-17.01-1.48-34.33-2.99-51.93-4.53c-23.42,47.46-3.36,96.63-20.05,143.1
		c-28.55,20.03-60.02,13.6-93.17,6.66c-23.14-46.67-7.31-97.28-17.79-149.01c-13.07-7.05-28.7-15.48-46.97-25.33
		c8.66-45.29,36.9-77.75,72.94-98.33c33.31-19.02,73.16-26.55,113.34-40.24c0-14.56,0-30.14,0-48.51
		c-10.9-4.03-21.22-8.57-31.95-11.67c-36.15-10.46-45.09-20.25-45.02-50.74c0.07-32.86,8.01-44.34,41.15-53.89
		c16.04-4.62,32.59-6.3,35-27.6c2.01-17.74-4.33-23.58-34.65-35.25c-12.51-4.81-29.22-9.6-34.73-19.54
		c-13.52-24.43-33.01-30.46-57.86-30.4c-86.4,0.2-173.93-8.87-258.96,1.91c-167.83,21.29-335.58,5.71-503.18,11.82
		c-25.36,0.92-50.72,1.46-77.7,2.22c4.38,24.76,23.45,24.37,36.78,29.97c124.61,52.36,233.08,127.99,325.1,226.77
		c77.43,83.12,137.75,176.78,167.89,287.71c3.56,13.1,4.35,26.96,7.04,44.52c-14.44,4.63-26.84,11.77-39.42,12.09
		c-56.01,1.43-112.07,1.02-168.11,1.06c-107.42,0.08-214.84,0.26-322.25-0.18c-25.15-0.1-51.38,4.14-78.91-13.18
		c-1.4-18.89-3.99-39.34-4.28-59.81C1414.92,3922.25,1418.91,3359.22,1431.91,3292.62z M2573,4178.1
		c159.12,15.07,312.54,18.63,466.29,10.61c3.97-0.21,7.71-4.63,12.35-7.59c7.46-19.8,9.77-39.46-8.48-59.58
		c-14.19-1.47-30.19-4.38-46.23-4.6c-121.26-1.67-242.53-2.89-363.8-4c-13.94-0.13-27.97,0.63-41.81,2.26
		c-16.42,1.94-24.28,13-24.21,28.76C2567.15,4152.84,2570.03,4161.69,2573,4178.1z M3052.62,3959.43
		c-7.24-2.34-15.77-7.46-24.35-7.54c-139.65-1.26-279.3-1.98-418.95-2.39c-9-0.03-18.8,1.88-26.73,5.87
		c-5.01,2.52-10.74,11.21-9.9,16.05c1.37,7.93,6.51,19.85,12.39,21.44c15.4,4.17,32.06,4.81,48.22,4.86
		c123.36,0.39,246.73,0.38,370.09,0.23c11.53-0.01,23.4-0.45,34.51-3.14C3055.4,3990.57,3057.05,3977.14,3052.62,3959.43z
		 M1701.74,3528.3c1.56-24.56-15.31-46.24-38.43-49.43c-24.88-3.42-49.35,19.21-49.48,45.76c-0.12,23.99,19.08,44.77,42.37,45.86
		C1679.49,3571.58,1700.21,3552.38,1701.74,3528.3z M1990.93,3379.85c-0.91-23.58-21.7-43.52-45.6-43.74
		c-24.14-0.23-44.61,19.18-45.66,43.27c-1.15,26.25,22.86,49.67,48.75,47.55C1971.81,3425.02,1991.82,3402.86,1990.93,3379.85z
		 M1559.21,3379.96c-0.6-24.62-19.84-43.58-44.45-43.8c-23.88-0.22-44.92,19.25-46.19,42.74c-1.38,25.43,23.07,49.49,48.5,47.73
		C1540.84,3424.99,1559.8,3403.99,1559.21,3379.96z M1847.14,3666.15c-1.32-22.9-23.24-43.56-45.97-43.33
		c-26.11,0.27-46.95,24.76-43.82,51.49c2.87,24.49,23.42,40.95,48.42,38.76C1829.4,3711.01,1848.48,3689.36,1847.14,3666.15z
		 M1559.27,3668.28c-0.29-23.93-20.28-44.76-43.58-45.41c-25.61-0.72-49.3,24.15-46.95,49.29c2.21,23.62,23.43,41.99,47.48,41.11
		C1540.92,3712.37,1559.56,3692.88,1559.27,3668.28z M1990.88,3528.02c1.77-22.68-17.45-45.78-40.75-48.98
		c-25.03-3.43-50.85,19.98-50.71,46c0.12,23.17,21.23,44.95,44.3,45.72C1966.72,3571.52,1989.06,3551.27,1990.88,3528.02z
		 M1513.44,3478.52c-22.51,0.47-44.61,22.44-45.32,45.08c-0.81,25.68,24.4,49.33,49.94,46.84c23.93-2.33,42.3-23.82,41.02-47.99
		C1557.83,3498.83,1536.23,3478.04,1513.44,3478.52z M1948.15,3856.01c24.41-1.33,43.42-21.38,42.55-44.88
		c-0.88-23.87-20.53-42.58-45.04-42.89c-26.92-0.34-48.73,22.85-45.82,48.7C1902.47,3840.33,1923.53,3857.35,1948.15,3856.01z
		 M1799.12,3426.64c22.92,1.29,45.25-17.97,47.71-41.15c2.78-26.23-18.98-49.56-45.96-49.26c-24.66,0.28-43.5,19.16-43.9,44.01
		C1756.59,3404.45,1775.53,3425.31,1799.12,3426.64z M1798.69,3570.56c23.31,1.71,45.21-17.05,47.91-41.04
		c2.91-25.79-19.6-51.05-45.35-50.91c-22.94,0.12-43.77,21.15-44.45,44.86C1756.1,3547.63,1774.95,3568.81,1798.69,3570.56z
		 M1990.81,3664.85c-2-23.03-24.41-42.83-47.4-41.89c-26.24,1.08-47.63,26.97-43.36,52.49c3.94,23.59,26.3,40.18,50.4,37.4
		C1974.28,3710.11,1992.82,3688.06,1990.81,3664.85z M1517.13,3855.92c24.92-1.32,42.56-20.29,41.75-44.89
		c-0.81-24.58-19.5-42.56-44.33-42.64c-26.56-0.08-48.78,23.49-45.81,48.61C1471.51,3840.45,1492.37,3857.23,1517.13,3855.92z
		 M1654.92,3426.57c23.04,1.82,44.49-16.83,46.6-40.52c2.26-25.35-13.15-45.86-37.04-49.28c-26.78-3.84-49.42,15.57-50.33,43.14
		C1613.35,3403.96,1631.49,3424.72,1654.92,3426.57z M1846.78,3816.04c1.86-23.14-16.23-44.54-39.81-47.11
		c-25.25-2.74-45.86,12.46-49.31,36.39c-3.94,27.3,14.69,49.69,42.19,50.69C1824.57,3856.91,1844.89,3839.6,1846.78,3816.04z
		 M1657.33,3623.25c-23.39,0.3-42.85,20.1-43.32,44.07c-0.54,27.44,20.96,47.93,47.98,45.73c24.18-1.98,40.83-21.59,39.72-46.79
		C1700.64,3642.16,1680.82,3622.95,1657.33,3623.25z M1701.4,3811.38c-0.43-25.47-18.56-42.88-44.25-42.51
		c-25.25,0.36-42.92,18.74-42.56,44.26c0.36,25.23,18.74,42.83,44.33,42.47C1684.32,3855.23,1701.83,3837.01,1701.4,3811.38z
		 M2940.83,4240.3c0-0.28,0-0.56,0-0.83c-59.29,0-118.58,0-177.87,0c0,0.28,0,0.56,0,0.83
		C2822.25,4240.3,2881.54,4240.3,2940.83,4240.3z M2883.53,3903.64c-5.83,0.44-4.84,0.37-3.84,0.29c-2.07-0.56-4.13-1.61-6.2-1.62
		c-28.78-0.11-57.57-0.07-86.35-0.07c0,0.47-0.01,0.93-0.01,1.4C2816.99,3903.64,2846.84,3903.64,2883.53,3903.64z M2477.05,4211.33
		c0,0.26,0,0.51,0,0.77c24.25,0,48.51,0,72.76,0c0-0.26,0-0.51,0-0.77C2525.56,4211.33,2501.3,4211.33,2477.05,4211.33z
		 M2621.84,3875.16c-0.01-0.04-0.01-0.09-0.02-0.13c-10.94,0-21.89,0-32.83,0c0.02,0.04,0.04,0.09,0.05,0.13
		C2599.97,3875.16,2610.91,3875.16,2621.84,3875.16z M2383.96,4282.72c8.59,0,12.65,0.21,16.68-0.07c2.54-0.18,5.02-1.07,7.53-1.65
		c-2.21,0.01-4.43-0.11-6.63,0.05C2397.19,4281.38,2392.85,4281.86,2383.96,4282.72z"/>
	<path class="st1" d="M3837.99,3931.12c-4.2-32.13,15.49-56.95,25.88-84.61c18.99-50.59,46.42-98.33,53.3-151.61
		c-19.52-29.55-48.44-26.58-74.97-26.58c-95.28,0.01-190.57,1.4-285.85,2.24c-10.8,0.1-21.61,0.01-37.68,0.01
		c-76.21-73.22-154.78-148.36-232.95-223.91c-80.31-77.63-160.49-155.39-240.24-233.6c-76.85-75.37-156.82-147.76-228.42-224.59
		c12.4-23.52,27.49-20.65,40.19-20.68c204.23-0.44,408.47-0.29,612.7-0.58c27.61-0.04,52.92,6.19,79.05,15.92
		c86.88,32.35,173.26,65.09,251.99,115.25c13.1,8.34,28.81,12.57,42.75,18.45c100.93-165.84,163.62-662.95,102.65-872.52
		c-8.7,27.45-15.15,48.08-21.77,68.66c-6.36,19.78-12.87,39.5-20.78,63.72c-15.21-12.46-28.89-23.67-46.66-38.23
		c-5.01,22.25-8.93,39.7-13.03,57.91c-13.13-0.58-23.7-1.04-37.71-1.66c-3.96,17.34-8.05,35.29-12.42,54.44
		c-9.24,3.98-18.99,8.18-29.05,12.51c-9.04,36.12-18.14,72.51-28.22,112.77c-9.42-6.91-18.34-9.93-20.42-15.51
		c-21.69-58.15-40.63-117.24-50.17-178.74c-2-12.9-0.22-27.12,2.93-39.97c9.59-39.07,42.8-68.71,43.75-112.34
		c0.21-9.78,16.44-21.32,27.62-28.36c34.24-21.6,69.61-41.4,108.18-64.04c-29.72-16.08-53.83,14.95-84.01,6.38
		c-23.86-6.77-54.84,12.72-82.93,19.42c-27.9,6.66-57.24,8.85-83.89,18.63c-26.54,9.74-48.72,33.1-84.03,22.61
		c9.54-33.44,34.17-51.57,57.04-69.22c25.68-19.82,54.72-35.26,82.21-52.76c23.74-15.11,58.3-12.39,79.22-48.78
		c-15.79-1.71-25.26-4.43-34.29-3.37c-18.89,2.21-36.14,4.2-55.45-4.07c-48.19-20.64-98.99-23.29-150.53-13.03
		c-3.95,0.79-9.02-4.03-13.56-6.26c76.18-84.57,179.5-102.22,344.98-58.96c9.94-14.62,19.88-29.24,31.41-46.21
		c-21.93-17-43.16-33.46-64.73-50.18c16.2-25.87-11.05-34.2-16.8-50.25c-6.44-17.98,0.33-38.93-24.05-50.1
		c-18.37-8.42-34.49-21.77-64.37-41.24c57.33,3.23,95.47,15.67,131.62,35.06c36.54,19.6,70.17,44.44,91.08,80.07
		c20,34.09,69.64,43.74,68.85,90.7c13.65,0,24.2,0,38.29,0c82.35-133.29,210.98-174.97,362.49-173.62
		c-2.03,25.95-22.01,26.32-34.76,27.13c-44.47,2.82-73.01,28.05-97.17,60.78c4.72,6.42,9.17,12.46,13.19,17.92
		c-15.73,23.01-60.01,4.24-60.26,45.32c-21.82,9.67-43.64,19.34-73.02,32.36c9.14,6.91,14.96,11.31,22.94,17.33
		c-8.98,8.36-19.75,18.38-31.92,29.71c7,2.28,11.32,5.08,15.43,4.8c40.55-2.77,81.31-10.18,121.51-7.81
		c28.68,1.69,58.24,13.06,84.34,26.21c21.2,10.68,42.18,27.55,55.15,47.07c10.51,15.81,8.95,39.65,12.73,59.87
		c-24.25,9.1-48.04-32.97-72.74,0.73c-2.21,3.02-19.73-4.09-29.55-7.99c-19.67-7.8-38.92-16.64-62.79-26.96
		c11.2,41.13,29.21,69.07,58.73,90.31c29.04,20.9,53.23,46.95,67.92,80.16c3.91,8.83,3.61,19.54,7.86,45.22
		c-30.87-30.9-61.02-36.95-82.17-53.09c-21.68-16.54-42.75-28.75-68.13-37.01c-27.37-8.91-53.69-21.05-80.96-31.98
		c-8.75,23.55,8.48,26.37,17.63,33.5c10.69,8.34,23.09,14.49,33.84,22.77c12.91,9.95,25.43,20.56,37.08,31.96
		c9.69,9.48,19.02,19.77,26.36,31.09c6.82,10.52,10.81,22.89,18.31,39.42c-19.57-4.91-31.92-8-49.14-12.32
		c12.71,54.91,47.32,102.86,31.58,159.29c-9.43,0-16.82,0-24.5,0c-25.72,49.57-50.31,100.87-107.13,133.61
		c-10.55-33.21,16.89-54.46,13.79-80.79c-2.8-23.76-3.07-47.83-4.59-74.04c-6.96-5.95-25.87-15.7-24.82-22.24
		c7.11-44.14-24.83-74.18-36.72-114.11c-9.73,2.77-19.49,5.56-33.14,9.45c-11.65-26.28-23.93-53.98-35.91-81
		c-19.34,3.34-17.57,16.38-15.86,25.98c45.68,255.93,30.32,510.27-20.44,763.45c-10.12,50.46-26.05,99.76-40.04,152.38
		c14.08,31.51,44.35,51.7,68.89,76.46c77.5,78.18,140.97,166.02,186.35,266.46c11.17,24.71,20.75,50.43,28.12,76.52
		c14.64,51.79,5.25,65.06-45.78,68.98c-18.98,1.46-38.27,0.35-57,3.18c-12.56,1.9-24.38,8.69-38.05,13.86
		c3.55,30.28,6.64,56.67,9.73,83.06l1.47-1.14c-23.54-13.69-25.87-39.95-35.85-61.5c-10.43-22.51-28-32.66-51.7-32.14
		c-23.23,0.5-42.96,9.59-52.38,32.05c-19.95,47.55-37.17,96.29-58.46,143.2c-13.09,28.87-18.85,62.89-48.39,82.37
		C3836.8,3930.15,3837.99,3931.12,3837.99,3931.12z"/>
	<path class="st1" d="M1038.52,2542c-22.4,4.06-35.62,6.45-52.64,9.53c-15.7-28.43-11.71-57.58,12.36-73.87
		c39.6-26.8,42.35-63.03,41.73-103.82c-1.49-98.09-2.03-196.2-2.86-294.3c-0.2-23.24-0.03-46.49-0.03-69.51
		c19.14-5.63,20.33,9.41,25.24,17.51c66.18,109.11,164.55,161.41,290.29,165.69c205.73,6.99,340.07,214.61,262.22,405.2
		c-23.58,57.73-58.24,105.91-112.64,138.9c-19.79,12-38.25,26.76-55.52,42.27c-30.87,27.72-62.79,39.36-100.95,14.64
		c-3.08-1.99-8.93,0.31-13.5,0.62c-40.05,43.88-62.34,90.56-105.8,232.63c-18.89,61.77-43.7,123.26-31.46,193.79
		c51.74-4.87,76.88-52.21,119.02-69.36c8.07,16.35-5.68,22.14-12.54,29.17c-69.32,71.05-100.24,156.84-94.92,254.87
		c4.67,86.23,13.17,172.25,20.02,258.36c3.89,48.89,8.16,97.76,11.56,146.68c0.62,8.9-2.15,18.04-3.64,29.25
		c-39.64,17.8-78.22,2.78-117.79,1.44c-17.73-24.48-17.52-53.18-23.33-80c-19.76-91.24-38.71-182.67-59.56-273.66
		c-22.24-97.06-74.4-175.26-153.14-236.12c-32.97-25.49-64.9-52.33-99.27-80.15c20.07-12.75,28.62,2.55,39.48,7.39
		c10.59,4.72,20.21,11.62,30.29,17.49c12.1,7.05,24.23,14.06,36.37,21.03c10.12,5.81,20.21,11.68,30.44,17.3
		c12.27,6.75,24.66,13.28,37.02,19.86c10.3,5.49,20.38,11.47,31.01,16.22c12.41,5.54,25.31,9.97,36.24,14.2
		c20.39-15.87,10.67-32.34,7.55-47.11c-27.19-128.55-39.78-258.41-36.33-389.78c0.48-18.43,2.32-36.82,3.42-53.61
		c16.97-8.8,25.48-0.79,29.29,10.9c9.36,28.77,18.92,57.69,25.06,87.25c11.39,54.85,20.03,110.26,30.74,165.26
		c1.98,10.17,8.37,19.48,13.48,30.88c46.79-51.42,96.03-154.94,152.07-316.31c-11.94-15.88-23.24-11.68-33.4,1.72
		c-12.24,16.15-17.56,39.27-47.09,42.31c-8.62-16.55-17.86-34.27-25.82-49.55c-39.12-22.4-54.68,19.48-81.09,26.11
		c-19.03-18.12-37.02-35.23-54.99-52.36c-1.69-1.61-3.49-3.16-4.91-4.99c-13.49-17.35-19.82-36.38-16.06-58.79
		c4.6-27.39,28.1-26.64,50.25-33.9C1044.53,2633.19,1038.14,2591.92,1038.52,2542z"/>
	<path class="st0" d="M1551.31,996.73c11.5-2.53,18.27-5.37,25.02-5.32c179.75,1.41,359.5,3.14,539.24,4.76
		c89.4,0.81,89.7,0.76,89.87,89.59c0.26,137.92,0.34,275.84-0.25,413.76c-0.1,22.47,5.79,46.86-15.56,70.69
		c-66.19-9.06-125.55-40.98-184.1-73.7c-59.27-33.13-114.54-72.24-162.63-120.82c-47.63-48.11-100.23-92.38-134.41-151.7
		c-33.37-57.92-62.14-118.5-95.01-181.93c-12.99,20.8-9.42,41.73-9.48,61.34c-0.42,140.26,0.5,280.52-0.76,420.77
		c-0.38,41.85-7.33,83.6-9.55,125.49c-2.07,39.21-1.86,78.55-2.73,121.66c-26.13-6.51-29.4-27.71-40.95-40.47
		c-14.09-15.56-26.76-32.51-41.7-47.18c-13.25-13.02-28.31-24.36-43.41-35.28c-14.88-10.76-30.83-20.06-42.07-27.28
		c2.6-34.63,6.64-64.45,6.78-94.29c0.67-147.27,0.25-294.54,0.39-441.81c0.02-21.02,0.21-42.1,1.75-63.04
		c1.07-14.58,6.3-27.36,24.38-28.25c15.33-0.75,25.62,7.49,27.17,25.04c1.85,20.9,2.32,41.98,2.34,62.99
		c0.19,147.27-0.04,294.54,0.29,441.81c0.05,20.94,0.99,42.09,4.19,62.72c1.98,12.76,13.84,19.88,26.23,16.99
		c7.64-1.78,18.36-9.56,19.56-16.14c3.73-20.47,4.72-41.66,4.76-62.57c0.35-149.61,0.05-299.21,0.35-448.82
		C1541.07,1050.36,1537.71,1024.31,1551.31,996.73z"/>
	<g>
		<path class="st1" d="M1678.43,2264.32c23.28-17.76,33.91-44.05,46.3-69.1c76.62-154.87,153.12-309.8,229.86-464.6
			c11.33-22.85,23.74-45.16,35.38-67.19c54.04-8.99,104.77-7.12,154.48-2.26c14.43,22.08-0.11,37.86-7.65,53.34
			c-55.25,113.34-111.4,226.23-167.24,339.28c-28.95,58.62-57.99,117.19-86.61,175.97c-7.07,14.51-12.69,29.73-19.34,45.48
			c9.97,22.04,18.91,43.52,29.2,64.32c81.81,165.33,163.87,330.52,245.84,495.77c3.11,6.27,6.47,12.48,8.99,18.99
			c12.59,32.66,36.74,46.39,70.97,44.36c6.96-0.41,13.99,0.41,20.99,0.37c35.99-0.2,51.01,10.47,51.66,49.42
			c0.61,36.51,19.24,66.92,36.92,97.13c112.62,192.48,262.92,344.14,470.28,433.82c4.09,1.77,7.5,5.14,11.22,7.76
			c-0.73,1.82-0.97,4.46-2.31,5.27c-1.83,1.1-4.49,1.08-6.8,1.08c-144.69,0.05-289.38,0.08-434.06,0.01c-6.98,0-14-0.63-20.91-1.59
			c-4.56-0.63-9.04-2.18-13.41-3.74c-2.11-0.75-3.87-2.48-5.79-3.76c-2.92-3.56-7.84-6.8-8.44-10.72
			c-9.88-63.95-40.91-118.43-75.07-171.76c-71.25-111.22-157.64-208.78-264.48-286.57c-43.16-31.42-90.88-56.63-136.99-83.89
			c-15.5-9.16-32.42-15.91-56.51-27.54c69.22-13.7,132.51,6.52,197.02-16.59c-7.03-19.53-11.52-37.12-19.37-53.05
			c-94.02-190.54-188.54-380.83-282.93-571.19L1678.43,2264.32z"/>
		<path class="st1" d="M1990.02,2269.54c95.83-191.67,192.65-385.34,288.19-576.44c18.57-0.84,20.54,8.38,21.03,17.6
			c0.85,16.3,1,32.64,0.99,48.97c-0.28,345.34-0.58,690.68-1.08,1036.02c-0.03,20.71-1.7,41.41-3.04,71.84
			c-11.93-11.87-19.56-16.51-22.96-23.27c-91.24-181.25-182.08-362.7-272.76-544.23
			C1996.28,2291.84,1994.36,2282.55,1990.02,2269.54z"/>
	</g>
	<path class="st0" d="M1159.9,1621.58c-65.21,45.81-69.03,28.3-164.21,159.33c-20.73-246.53-15.69-490.56-15.28-734.46
		c0.03-15.83,4.35-31.66,6.53-46.44c45.08-9.3,52.34-5.59,54.69,27.95c1.3,18.6,0.93,37.34,0.94,56.02
		c0.07,144.79-0.04,289.58,0.13,434.37c0.02,20.98,0.52,42.02,2.18,62.92c1,12.71,8.8,21.22,22.29,22.56
		c14.26,1.42,27.29-8.68,28.59-24.2c1.75-20.89,2.17-41.94,2.19-62.92c0.17-147.12-0.03-294.25,0.25-441.38
		c0.04-20.94,1.16-41.97,3.43-62.78c1.46-13.38,11.48-19.06,24.67-18.95c13.5,0.11,22.87,7.14,24.33,19.96
		c2.37,20.79,3.24,41.85,3.28,62.8c0.26,151.8-0.12,303.59,0.39,455.39C1154.39,1559.34,1157.64,1586.92,1159.9,1621.58z"/>
	<path class="st2" d="M1289.57,2048.95c-77.43-1-135.9-59.94-136.4-137.5c-0.51-79.96,62.03-142.55,140.86-140.96
		c75.72,1.53,136.74,62.94,137.61,138.5C1432.55,1987.58,1369.2,2049.98,1289.57,2048.95z"/>
	<path class="st0" d="M1369.17,1000.74c2.02,10.55,6.06,21.85,6.08,33.15c0.32,179.72,0.23,359.44-0.22,539.17
		c-0.02,8.83-4.07,17.65-6.1,25.86c-37.62,2.32-44.07-0.82-46.7-24.81c-1.77-16.18-1.8-32.61-1.81-48.92
		c-0.12-151.72-0.12-303.44,0.02-455.16c0.01-16.32,0.19-32.73,1.9-48.93C1324.86,997.18,1332.98,993.8,1369.17,1000.74z"/>
	<path class="st0" d="M1259.18,1000.19c1.87,17.02,5.54,35.13,5.59,53.26c0.45,163.1,0.31,326.21,0.19,489.31
		c-0.01,11.62-0.3,23.36-1.96,34.83c-3.04,20.98-11.4,24.69-50.33,22.22c-1.1-15.38-3.21-31.27-3.23-47.16
		c-0.22-163.1-0.14-326.21-0.01-489.31c0.01-13.97,0.16-28.01,1.61-41.88C1213.58,997.03,1220.75,993.74,1259.18,1000.19z"/>
	<g>
		<path class="st0" d="M694.19,3110.92c37.12-14.55,51.77-9.39,56.59,19.78c2.19,13.27,1.24,27.4-0.57,40.83
			c-0.75,5.58-6.59,12.92-11.77,14.74c-4.93,1.72-15.28-0.79-17.6-4.76c-14.34-24.44-31.16-42.19-62.08-46.28
			c-9.85-1.3-19.24-18.58-25.63-30.31c-7.87-14.46-10.5-30.87,1.99-45.11c7.92-9.02,26.42-1.27,39.18,17.17
			C681.83,3087.86,687.77,3099.85,694.19,3110.92z"/>
		<path class="st0" d="M1459.08,2973.63c-11.3-53.44-2.54-68.09,48.53-81.17C1519.58,2941.72,1507.62,2961.73,1459.08,2973.63z"/>
		<path class="st0" d="M1467.05,3077.59c-0.61-13.02-4.1-24.32-0.99-33.33c8.14-23.55,27.27-36.44,51.11-41.18
			c5.62-1.12,14.31,1.52,17.98,5.64c3.72,4.18,5.57,13.23,3.74,18.62C1528.14,3059.03,1504.69,3073.91,1467.05,3077.59z"/>
		<path class="st0" d="M1353.66,2889.24c36.05,50.75,36.11,57.56,4.32,97.08C1317.4,2953.46,1315.98,2936.49,1353.66,2889.24z"/>
		<path class="st0" d="M1268.38,3044.32c26.42,9.73,30.8,28.14,29.44,46.23c-1.14,15.19-7.53,30.52-14.51,44.31
			c-1.54,3.03-19.72,3.11-22.87-1.04C1237.93,3104.14,1240.14,3074.91,1268.38,3044.32z"/>
		<path class="st0" d="M1056.01,3057.11c-2.57-4.87-6.66-10.54-8.67-16.87c-5.96-18.7-3.05-36.58,7.68-52.92
			c7.72-11.76,16.48-22.75,32.92-20.02c10.85,1.8,18.51,18.33,13.25,34.81c-4.76,14.91-12.73,29.07-21.13,42.4
			C1077.04,3049.33,1068.67,3050.77,1056.01,3057.11z"/>
		<path class="st0" d="M816.1,2698.43c-3.14,4.98-5.46,12.74-10.49,15.44c-4.88,2.62-14.08,2.39-18.74-0.65
			c-23.05-15.02-33.03-37.28-29.33-64.48c0.77-5.64,6.55-12.92,11.77-14.95c5.03-1.96,13.67,0.04,18.39,3.5
			C807.66,2651.92,813.9,2673.64,816.1,2698.43z"/>
		<path class="st0" d="M911.33,2727.33c-40.11-8.57-55.37-25.35-55.6-61.13c-0.07-11.47,14.28-21.24,24.04-16.36
			C910.74,2665.34,919.46,2686.74,911.33,2727.33z"/>
		<path class="st0" d="M786.2,3018.01c21.87,0.78,32.11,16.61,38.86,33.51c4.87,12.18,5.47,26.4,6.19,39.8
			c0.45,8.42-13.22,14.23-21.08,10.75c-18.21-8.05-29.18-22.1-34.05-40.91C772.04,3045.41,768.6,3029.34,786.2,3018.01z"/>
		<path class="st0" d="M617.97,2679.98c41.72-5.12,63.25,12.25,76.97,41.64c2.33,4.98,1.28,14.53-2.19,18.43
			c-3.68,4.14-12.58,6.56-18.36,5.43C642.19,2739.14,620.84,2721.88,617.97,2679.98z"/>
		<path class="st0" d="M533.31,2789.69c2.4-1.96,4.18-4.68,5.93-4.66c39.55,0.4,65.95,17.97,70.33,48.23
			c0.66,4.55-7.2,14.91-10.51,14.66c-13.15-0.99-27.71-2.32-38.69-8.75C542.49,2828.69,528.34,2813.42,533.31,2789.69z"/>
		<path class="st0" d="M663.65,3190.17c-5.22,3.21-11.91,7.65-18.96,11.39c-1.54,0.82-4.49-0.57-6.62-1.37
			c-31.43-11.86-48.25-32.46-47.01-60.32c0.2-4.57,8.53-12.55,13.1-12.54C632.3,3127.36,657.04,3152.65,663.65,3190.17z"/>
		<path class="st0" d="M1380.46,3143.73c47.02-38.52,56.32-38.46,94.39-3.52C1440.79,3175.39,1428.5,3176.25,1380.46,3143.73z"/>
		<path class="st0" d="M1616.05,2847.43c14.71,47,5.2,74.75-28.06,89.56c-10.1,4.49-18.66-2.19-20.39-11.8
			C1560.97,2888.32,1577.54,2864.27,1616.05,2847.43z"/>
		<path class="st0" d="M851.08,3143.49c27.83,21.63,31.2,46.1,25.01,72.15c-1.75,7.38-9.94,14.98-17.13,18.55
			c-3.48,1.73-13.64-4.14-17.05-9.12C821.73,3195.53,823.51,3179.6,851.08,3143.49z"/>
		<path class="st0" d="M522.92,3108.98c-13.45,17.4-26.95,12.88-39.62,6.54c-24.59-12.32-24.6-13.02-37.89-57.62
			c11.48-0.92,23-4.94,32.33-2C504.17,3064.24,518.75,3083.69,522.92,3108.98z"/>
		<path class="st0" d="M585.01,2912.44c41.6-1.39,57.42,21.61,66.84,51.31c1.67,5.26-0.62,14.38-4.53,18.08
			c-3.89,3.68-13,5.32-18.28,3.46C598.02,2974.4,580.67,2953.64,585.01,2912.44z"/>
		<path class="st0" d="M913.64,3010.83c-3.99,2.55-9.37,8.96-14.54,8.8c-33.5-1.07-59.68-22.98-61.92-51.98
			c-0.36-4.64,6.7-13.59,11.24-14.25c28.24-4.12,56.55,17.31,65.86,48.31C914.87,3003.68,914.02,3006.09,913.64,3010.83z"/>
		<path class="st0" d="M1333.96,3243.33c2.41-3.86,3.89-9.32,7.35-11.27c33.26-18.75,61.58-18.14,80.94,2.62
			c3.05,3.28,2.18,16.49-0.25,17.59c-14.01,6.31-28.8,13.15-43.8,14.45C1360.12,3268.3,1341.01,3265.56,1333.96,3243.33z"/>
		<path class="st0" d="M870.08,2781.71c48.51,16.18,55.42,28.4,44.13,78.04C865.38,2845.32,859.27,2834.52,870.08,2781.71z"/>
		<path class="st0" d="M533.92,2958.2c-4.48,2.83-9.7,8.93-15.09,9.08c-25.72,0.74-44.23-12.82-55.64-34.71
			c-3.63-6.96-4.56-19.76-0.48-25.05c4.08-5.28,16.85-7.73,24.31-5.76c21.21,5.63,36.19,20.2,44.66,40.68
			C533.34,2946.48,533.01,2951.35,533.92,2958.2z"/>
		<path class="st0" d="M1372.26,3096.22c-14.22-19.72-9.11-39.61,3.36-56.62c7.52-10.26,20.32-17.28,31.98-23.43
			c3.09-1.63,15.27,5.08,15.44,8.38c0.7,13.23,0.86,27.53-3.51,39.73C1413.14,3082.13,1403.32,3086.91,1372.26,3096.22z"/>
		<path class="st0" d="M827.21,2866.22c-43.6,8.3-64.82-1.83-75.14-36.43c-1.57-5.25,2.15-13.06,5.47-18.4
			c1.76-2.83,8.38-4.8,12.05-3.94C800.91,2814.87,824.23,2830.43,827.21,2866.22z"/>
		<path class="st0" d="M642.44,3283.01c-6.53-2.27-19.68-5.57-31.46-11.57c-4.62-2.35-9.02-11.12-8.34-16.28
			c0.73-5.49,6.69-12.86,11.97-14.63c10.53-3.53,22.18-5.33,33.31-5.1c24.65,0.52,43.52,13.73,40.7,26.66
			C685.99,3274.13,669.74,3282.74,642.44,3283.01z"/>
		<path class="st0" d="M748.58,2984.97c-31.3,0.55-42.13-19.77-50.04-41.73c-4.74-13.17-4.98-27.72,6.95-38.4
			c7.2-6.44,25.56,2.36,34.73,15.39C754.34,2940.32,758.99,2961.12,748.58,2984.97z"/>
		<path class="st0" d="M1314.2,3159.7c-1.15-1.31-2.3-2.6-3.45-3.9c3.09-2.67,6.18-5.33,9.27-8c1.05,1.31,3.15,3.64,3,3.79
			C1320.24,3154.44,1317.2,3157.05,1314.2,3159.7z"/>
	</g>
	<path class="st2" d="M3013.71,1045.21c-0.3,0.15-0.45,0.3-0.75,0.45c0.3,0.15,0.6,0.15,0.9,0.15
		C3013.71,1045.66,3013.71,1045.36,3013.71,1045.21z M3013.71,1045.21c-0.3,0.15-0.45,0.3-0.75,0.45c0.3,0.15,0.6,0.15,0.9,0.15
		C3013.71,1045.66,3013.71,1045.36,3013.71,1045.21z M3013.71,1045.21c-0.3,0.15-0.45,0.3-0.75,0.45c0.3,0.15,0.6,0.15,0.9,0.15
		C3013.71,1045.66,3013.71,1045.36,3013.71,1045.21z M3013.71,1045.21c-0.3,0.15-0.45,0.3-0.75,0.45c0.3,0.15,0.6,0.15,0.9,0.15
		C3013.71,1045.66,3013.71,1045.36,3013.71,1045.21z M3013.71,1045.21c-0.3,0.15-0.45,0.3-0.75,0.45c0.3,0.15,0.6,0.15,0.9,0.15
		C3013.71,1045.66,3013.71,1045.36,3013.71,1045.21z M3739.62,3013.24c-6.93,0.15-31.81-35.28-30.75-44.32
		c-5.73-2.11-13.57-3.47-16.89-5.88c-0.9-0.6-1.51-1.21-1.66-1.96c-3.62-12.97-3.77-26.99-5.43-42.66
		c8.59,1.96,13.87,3.32,19.15,4.52c7.24-26.84,5.73-31.06-14.93-45.23c1.36-1.51,2.86-3.02,4.22-4.37
		c-7.84-1.06-15.83-1.96-26.99-3.47c4.98-7.39,9.95-15.08,15.98-24.42c-6.63,2.26-10.7,3.77-14.47,5.13
		c2.11-7.54,7.09-15.68,4.98-20.96c-1.96-4.82-11.61-6.48-15.53-8.44c3.92-6.03,6.33-14.02,11.01-15.53
		c13.87-4.52,6.94-9.8,2.41-16.13c-1.96-2.56-3.01-5.73-4.07-8.74c-7.69-20.65-22.31-31.36-41.76-30.15
		c-6.33-14.17-11.46-29.1-19.45-42.51c-3.47-5.73-9.2-9.65-0.3-13.12c2.71-1.06,9.95,4.37,12.36,8.59
		c7.39,11.91,13.12,24.72,20.2,36.94c1.81,3.32,6.03,5.43,9.2,7.99c0.9-1.06,1.96-2.11,3.02-3.17c-2.71-4.22-6.78-8.14-7.99-12.66
		c-4.22-15.83-24.42-26.99-14.02-47.34c1.06-2.11-3.17-7.54-5.88-10.4c-3.92-3.92-9.2-6.48-12.97-10.55
		c-5.88-6.33-14.32-12.97-15.83-20.5c-5.43-26.84-6.63-29.55-32.72-34.37v-31.96c-4.52,2.41-8.44,4.37-13.87,7.09
		c-6.03-10.7-11.91-21.26-17.79-31.81c-6.33-11.31-11.16-24.12-19.75-33.62c-10.7-11.91-25.18-20.2-36.64-31.36
		c-5.88-5.73-8.14-14.77-13.12-21.56c-4.37-5.88-10.86-10.25-15.23-16.13c-10.86-14.62-20.2-30.3-31.81-44.47
		c-35.43-43.57-71.46-86.69-107.34-129.96c-2.56-3.17-5.88-7.09-6.03-10.7c-0.75-21.71-13.72-36.03-27.89-50.2
		c-4.22-4.07-9.95-9.2-10.4-14.32c-1.96-20.35-9.95-37.09-21.11-54.27c-21.86-33.92-44.32-43.72-83.37-30.76
		c-33.17,11.01-66.49,21.26-99.65,31.96c-25.18,7.99-50.35,16.13-75.53,24.42c-24.72,7.99-49.3,16.13-74.78,24.57
		c-1.81-4.22-3.77-8.74-5.58-13.27c-0.45,0.15-1.06,0.15-1.51,0.3c1.66,4.97,3.17,9.95,4.67,14.77
		c-20.81,9.5-40.7,18.39-61.66,27.89c-3.47-8.44-7.09-16.73-10.55-25.18c5.43,27.14,5.43,27.14-0.3,30.45
		c-16.89-32.87-20.05-47.64-11.01-54.43c2.26,6.33,4.52,12.36,6.63,18.24c1.36-5.43-1.36-10.1-1.51-14.62
		c0-3.62,1.96-9.65,4.67-10.7c40.55-16.58,81.11-33.62,122.42-48.24c50.05-17.79,100.86-33.77,151.67-49.45
		c21.26-6.48,43.12-10.86,64.83-14.78c13.27-2.26,20.05,6.18,23.67,18.54c3.02,10.25,7.69,20.05,11.61,30
		c3.47-11.01,1.96-22.92,15.38-23.37c2.11-6.48,2.56-15.08,5.43-15.98c12.36-3.47,25.33-5.43,38.14-6.48
		c3.62-0.15,9.65,7.69,11.16,6.78c11.91-7.84,17.79,3.17,25.03,7.39c34.52,20.5,74.78,10.25,92.87-24.27
		c19.45-36.63,3.77-82.17-34.22-99.8c-35.58-16.43-74.63-1.06-89.4,35.28c-1.06,2.56-2.26,4.97-3.32,7.54
		c-4.37-0.9-7.99-1.81-13.72-3.17c3.62,20.2-11.31,18.85-22.61,22.16c-12.36,3.62-24.42,8.59-29.85-8.14
		c-11.46,4.98-21.41,9.2-31.21,13.57c-0.9-0.75-1.96-1.51-2.86-2.26c6.94-9.65-11.91-26.53,8.59-30.15
		c-4.37-12.97-8.74-25.63-12.97-38.44c0.9-0.45,1.81-0.9,2.86-1.36c5.58,6.78,11.16,13.57,14.62,17.79
		c8.9-6.93,16.73-12.66,24.27-18.85c4.98-4.07,11.61-8.14,13.57-13.57c3.92-11.16,4.22-23.82,7.99-35.13
		c4.37-13.27,6.33-26.08,1.81-39.65c-0.75-1.96,0.15-4.37,0.3-7.69c2.56,2.71,4.22,4.52,6.03,6.33c1.21-0.15,2.41-0.15,3.62-0.15
		c0-4.82-0.6-9.8,0.15-14.62c0.6-4.07,2.41-11.61,4.07-11.61c17.34-1.36,18.39-19,28.49-27.29c-4.07,1.66-8.29,3.32-12.97,5.28
		c2.71-27.74,5.43-31.51,16.58-24.27c-1.21-10.4-2.41-20.81-3.77-31.06c-2.86-21.26-6.03-42.36-8.44-63.62
		c-0.9-6.63-1.36-13.87,0-20.35c3.17-13.87,7.24-27.59,11.76-41.01c2.86-8.59,7.39-16.73,10.7-25.18
		c1.96-4.98,4.82-10.55,4.37-15.53c-1.36-12.51,5.73-21.41,14.17-25.63c13.57-6.78,12.81-18.69,16.28-29.7
		c3.01-9.35,5.13-21.56,11.91-26.38c15.38-10.7,22.01-24.27,25.33-41.61c5.13-25.78,25.78-40.4,43.27-60.45
		c0.45,6.78,0.6,10.55,0.9,14.47c11.61-3.62,23.82-19.45,22.77-28.95c-0.15-2.56-1.36-6.03-3.17-7.39
		c-9.8-7.09-4.82-13.72,0.15-20.2c14.78-19.15,30.45-37.54,44.47-57.29c25.78-35.73,34.83-74.93,21.41-118.2
		c-3.47-11.16-0.75-20.35,10.1-27.44c13.42-8.44,17.79-24.88,11.61-40.71c-3.77-9.95-5.73-19-2.41-30
		c5.88-19.15,9.35-39.2,14.32-58.65c3.32-12.82-0.15-21.26-12.21-27.59c-59.85-31.06-118.5-64.68-179.56-93.17
		c-55.78-26.23-110.66-58.5-176.39-52.31c-10.25,1.06-25.93,1.51-29.4,7.54c-7.99,14.47-15.38,14.17-26.69,6.63
		c-4.07,5.28-7.84,10.1-14.32,18.54c-1.81-8.74-2.11-13.87-4.07-18.24c-1.51-3.47-5.13-7.84-7.99-7.99
		c-3.02-0.15-7.84,3.32-9.35,6.33c-3.32,7.69-5.13,15.98-8.14,25.33c-7.24-5.13-11.61-8.29-15.98-11.46
		c0.75-1.05,1.51-2.11,2.11-3.17c3.62,0.9,7.24,1.96,9.65,2.71c4.07-8.44,7.54-15.83,11.46-23.97c-5.73,2.11-11.31,4.22-18.54,7.09
		c1.81-5.13,2.71-7.39,3.62-9.8c-1.06-0.9-1.96-1.81-3.02-2.71c-7.69,6.48-15.08,12.97-23.07,19c-3.17,2.41-7.99,5.73-11.01,4.82
		c-15.98-4.67-31.51-10.7-50.81-17.49c9.05-5.13,16.43-7.24,19.9-12.06c2.86-4.07,1.21-11.31,1.51-17.19
		c-1.66-0.75-3.32-1.36-4.98-1.96c12.21-10.55,24.27-21.26,36.79-31.36c7.24-5.88,15.23-10.7,22.92-15.83
		c21.26-14.02,34.07-35.28,48.7-55.03c6.48-8.9,3.77-35.88-2.86-44.78c-2.56-3.47-3.92-7.99-4.37-9.05
		c8.29-9.5,14.93-17.19,21.56-25.03c0.75,0.45,1.36,0.9,1.96,1.36c-3.47,10.4-6.93,20.65-10.4,30.91c4.07-3.32,7.39-7.24,8.9-11.76
		c7.69-24.27,13.12-49.6,23.22-72.82c7.84-17.79,4.52-32.56-1.66-48.39c-3.32-8.29-7.84-15.98-11.61-24.12
		c-4.98-11.01-12.66-21.71-14.17-33.17c-2.86-20.35-9.65-37.54-25.18-51.11c-12.21-10.4-24.12-21.26-36.18-31.81
		c-3.62-3.32-7.69-6.33-8.59-7.09c-9.2-5.43-14.77-8.9-20.35-12.21c0.15,1.06,0.45,3.17,0.75,5.28c-1.06,0.9-1.96,1.81-3.02,2.86
		c-7.24-17.49-20.65-27.59-36.64-33.62c-16.73-6.33-33.92-11.16-50.96-16.58c-0.45,1.05-0.75,2.11-1.05,3.17
		c14.47,5.43,28.95,10.86,43.42,16.28c-0.6,1.36-1.05,2.71-1.51,3.92c-25.93-2.11-52.16,11.16-77.34-1.06
		c-3.02-17.64,7.39-21.11,20.05-22.31c-13.87,0-27.44-11.76-41.31,0.75c14.17,1.66,12.21,11.91,7.24,18.39
		c-4.22,5.28-13.27,8.29-20.5,9.05c-12.51,1.51-25.33,0.45-38.14,0.45v2.41c4.67,0.45,9.35,0.9,14.47,1.36
		c-1.36,3.02-2.11,4.67-2.71,6.18c11.76-1.51,22.46-2.86,34.07-4.22c-6.94,6.18-11.61,10.55-15.98,14.62h23.82
		c8.74,24.57,0.15,45.38-20.05,46.43c3.01-4.07,5.58-7.84,8.29-11.76c-0.75-1.06-1.51-2.11-2.26-3.02
		c-14.93,25.48-42.06,22.31-64.83,30.91c-1.66-1.66-3.17-3.32-4.67-5.13c-15.38-17.49-20.05-25.78,6.18-34.68
		c0.75-0.3,1.36-1.51,1.96-2.71c-6.78,1.06-13.57,2.26-23.07,3.92c12.66-35.58,40.4-50.35,69.35-64.07
		c-32.41,7.54-60.91,21.26-83.67,45.53c3.77-1.66,7.69-3.32,11.46-4.98c0.75,1.06,1.51,2.26,2.26,3.32
		c-3.92,4.07-7.84,8.29-11.61,12.51l-0.15,0.15c-9.65,4.52-19.15,9.2-28.65,13.87c-0.6-0.6-1.06-1.21-1.51-1.81
		c9.5-7.84,18.85-15.53,28.34-23.37c-13.72,8.29-27.59,16.43-41.31,24.88c-2.11,1.51-5.58,5.28-5.13,6.03
		c7.84,12.82-6.78,15.38-10.25,22.92c-2.41,5.28-6.63,9.8-9.95,14.62c4.37,10.7,1.05,21.26-11.61,31.21
		c1.06-6.63,1.81-11.31,2.56-15.98c-5.88,11.31-9.95,23.97-17.79,33.32c-30.6,36.79-44.78,76.89-29.85,124.38
		c8.29,26.53,16.13,53.37,22.61,74.78c7.09,3.92,11.91,5.28,14.62,8.29c19.45,21.56,37.84,44.32,65.13,56.84
		c1.81,3.92,3.32,7.99,5.13,11.91c-1.51,1.21-3.02,2.41-4.52,3.62c-4.07-3.77-8.14-7.69-12.51-11.31c-2.26-1.81-4.98-3.62-7.84-4.52
		c-4.67-1.36-10.25-0.6-14.32-2.86c-6.33-3.32-11.91-8.29-17.79-12.66c-1.06,1.06-2.26,2.11-3.32,3.02
		c3.01,3.47,5.43,7.54,9.05,9.95c22.92,15.68,46.28,30.76,69.2,46.28c3.17,2.11,5.13,5.88,7.69,8.9c-3.32,2.71-6.48,7.24-10.1,7.69
		c-6.18,0.9-12.66-0.9-19-1.66c3.02,5.88,5.88,11.91,8.9,17.79c-1.51,0.9-3.02,1.66-4.37,2.41c-3.02-3.47-5.28-7.69-8.9-10.25
		c-5.43-3.77-11.91-6.18-17.79-9.35c-1.96,5.88-4.98,11.61-5.28,17.34c-0.15,4.82,1.81,10.55,4.67,14.62
		c6.18,8.74,13.12,17.04,20.66,24.57c13.72,13.87,27.74,27.74,49.9,15.83c1.36-0.6,3.47,0.3,4.97,0.3
		c10.86,22.46,10.86,22.31,36.48,21.11c10.55-0.45,21.11,0,33.17,0v42.36c21.41,2.26,23.07,4.52,22.01,30
		c-4.52,2.41-9.2,4.52-13.42,7.39c-4.37,3.17-8.44,6.94-13.12,10.86c1.06,5.73,2.26,12.21,3.17,18.54
		c3.17,20.65,3.02,20.81-17.49,26.99c-6.18,1.96-12.51,3.92-18.24,6.93c-10.1,5.28-18.54,5.13-25.78-4.82
		c-7.99-10.55-18.09-10.25-28.95-5.28c-3.77,1.81-7.84,3.77-10.55,6.78c-7.24,7.84-13.42,6.18-20.05-0.75
		c-3.17-3.17-8.89-8.9-10.1-8.14c-11.16,7.09-16.73-3.17-23.97-7.24c-12.06,12.81-12.06,12.81,4.07,28.19
		c-4.07,13.87-7.99,27.74-12.06,41.46c-2.26,4.82-4.82,9.5-6.94,14.47c-5.28,12.66-0.6,29.7-16.58,37.84
		c-0.9,0.6-1.06,4.98-0.15,6.63c10.55,18.39,3.02,37.54,2.41,56.23c-0.45,13.12-3.17,24.57-19.6,27.44
		c-10.55,1.66-15.38,8.44-6.78,20.05c27.14-7.09,54.58-14.17,82.16-21.26c6.18,17.04,11.76,32.87,19,52.92
		c-10.85-5.88-17.94-9.5-23.52-12.51c12.51,25.03,32.87,42.82,59.55,51.56c-3.02,9.65-5.73,18.39-8.44,27.14
		c1.21,0.6,2.26,1.05,3.47,1.66c2.41-1.81,4.82-3.47,7.99-5.58c0.6,4.37,1.21,7.84,1.51,9.95c2.86-6.03,6.33-12.81,9.65-19.45
		c1.21,0.45,2.41,0.9,3.62,1.51V1420H2785c-1.21-7.39-2.26-14.93-3.47-22.31c-1.36-0.3-2.71-0.45-4.22-0.75
		c-1.81,4.67-3.77,9.35-6.63,16.43c5.13-2.11,6.93-2.71,8.74-3.47c1.36,1.06,2.56,2.11,3.92,3.17c-4.22,7.24-8.89,14.32-12.66,22.01
		c-2.56,5.13-5.13,10.7-5.58,16.43c-0.9,10.86-0.3,21.86-0.3,33.17c-9.05-0.75-19.75-5.73-18.24,8.29
		c2.26,23.52-11.16,39.65-24.42,55.63c-9.35,11.16-19,22.46-30.6,31.06c-12.82,9.65-27.74,16.43-41.76,24.42
		c-0.75,0.45-2.11,0.3-2.86,0c-11.76-6.03-19-1.21-23.37,11.61c-10.55-3.17-20.05-6.48-29.85-8.89
		c-11.01-2.86-22.16-7.24-33.17-7.24c-11.46,0.15-23.37,3.77-34.37,7.54c-29.7,9.8-59.7,19-88.35,31.21
		c-69.8,29.85-139,60.46-207.75,92.42c-15.38,7.09-29.7,18.85-40.86,31.51c-14.17,15.98-23.82,35.58-36.79,52.46
		c-8.59,11.01-12.21,22.92-11.16,36.18c0.9,11.61-5.58,26.84,12.21,32.56c0.75,0.15,0.9,2.41,1.36,3.77
		c18.54,65.13,53.07,122.72,85.03,181.52c10.85,20.05,28.65,30.15,47.34,39.65c1.96,0.9,4.97-0.45,8.59-0.9
		c-4.22-7.84-7.69-14.47-11.16-21.11c15.38,11.61,29.4,24.27,40.71,39.05c10.7,14.17,29.4,20.81,35.58,39.2
		c0.75,2.26,6.48,2.71,9.65,4.52c3.17,1.81,7.69,3.92,8.44,6.63c3.47,13.12,14.78,14.02,24.57,17.79c4.37,1.81,7.84,5.73,11.61,8.74
		c10.1,7.99,19.45,16.73,30.15,23.67c7.24,4.67,20.65,4.22,23.82,10.1c9.5,17.64,27.59,14.47,41.46,20.81
		c3.01,1.36,8.59-1.66,10.7,0.15c18.54,14.62,41.31,12.66,62.11,12.82c15.38,0.3,18.24,5.73,20.2,18.39h-53.67
		c2.86,2.41,3.77,3.77,4.82,3.92c24.27,1.21,48.7,2.11,73.12,3.32c2.11,0.15,5.58,0.6,6.18,1.96c6.18,13.87,14.02,8.14,22.16,2.41
		c9.65-6.94,17.94-6.18,23.52,4.37c3.02-2.41,5.88-5.73,9.5-6.93c28.65-9.8,37.24-35.58,44.47-60.15
		c5.73-19.3,1.51-39.65-12.21-56.23c-6.33-7.39-13.42-14.02-20.2-21.11c0.9-1.66,1.81-3.17,2.56-4.82
		c17.04,4.82,34.07,9.5,48.39,13.57c-22.16-23.07-49.75-40.1-86.39-36.63c-1.51,0.15-3.32-1.36-4.98-2.11
		c5.28-8.14-6.94-2.71-5.88-7.54c13.42-14.93,13.42-14.93-2.11-22.92c-0.6,0.9-1.81,1.96-2.11,3.17
		c-4.07,19.15-22.01,25.63-34.22,37.09c-1.51,1.36-5.58,1.51-7.54,0.45c-16.73-9.2-34.52-9.35-52.92-8.59
		c-5.73,0.3-12.21-2.11-17.34-5.28c-6.03-3.62-10.7-9.5-16.43-13.87c-11.01-8.59-24.12-15.38-33.02-25.78
		c-12.06-13.87-24.42-28.95-32.56-44.93c-7.99-15.83-21.26-25.48-30.91-38.9c-6.48-9.2-11.76-19.6-16.43-30
		c-4.52-10.25-6.18-22.01-11.61-31.66c-6.33-11.46,1.51-38.59,13.87-41.76c31.81-8.59,63.77-16.89,95.58-25.93
		c4.22-1.21,8.59-6.03,10.4-10.4c3.32-8.14,7.24-12.51,17.04-10.55c7.69,1.51,15.98,2.26,23.37,0.6
		c17.04-3.92,22.92-1.51,30.6,14.78c4.97,11.01,9.05,23.22,16.89,31.66c10.85,11.76,25.63,19.6,37.24,30.6
		c5.58,5.43,8.59,14.02,11.91,21.41c4.52,10.4,7.09,21.56,12.36,31.36c5.43,10.1,12.97,19.15,19.45,28.64
		c5.88,8.44,27.14,16.43,35.43,13.87c9.35,15.08,19.15,29.7,27.44,44.93c10.7,19.6,19.6,40.1,30.6,59.25
		c5.28,9.2,4.22,15.53,0.15,24.42c-6.33,13.42-12.21,27.59-14.17,41.91c-1.96,15.53,0.75,31.66,1.81,47.49
		c0.15,3.77,1.66,7.54,2.56,11.31c0.6,0,1.06-0.15,1.66-0.3c0.6-6.03,1.21-11.91,1.81-19.3c6.78,22.92,13.27,43.72,18.54,64.98
		c1.05,4.07-0.9,10.4-3.62,14.02c-8.89,11.16-5.88,24.42,5.88,28.65v26.99c-3.62-7.39-7.09-14.47-10.7-21.71
		c-1.81,7.69-1.51,15.08-0.45,22.16c1.96,11.91,6.63,23.97,6.03,35.58c-0.9,15.23-6.48,30.15-8.74,45.38
		c-1.06,6.78,0.3,14.32,1.96,21.11c2.56,9.8,10.4,20.05,8.89,28.8c-9.05,50.5-6.93,102.67-22.61,152.12
		c-1.21,4.07-1.66,11.31,0.75,13.27c11.61,9.5,11.46,23.82,15.98,36.18c6.18,16.73,14.32,32.41,31.81,38.9
		c10.1,3.77,13.72,9.95,12.21,19c-1.36,7.39-5.73,14.17-7.84,21.41c-1.36,4.82-2.56,14.02-1.36,14.47
		c11.01,4.07,7.24,12.51,7.09,19.9v30.75c0.3,0,0.45,0,0.6,0.15c0.75-8.89,1.36-17.79,2.11-26.53c1.21,0,2.56-0.15,3.77-0.15
		c-0.3,24.57,34.22,40.7,15.53,69.8c-0.45,0.6,0.15,1.81,0.45,2.71c7.54,26.08,0.6,50.81-6.18,75.98
		c-2.41,8.89-4.07,17.94-5.13,27.14c-1.36,9.65-2.26,19.6-3.62,29.4c-0.75,6.94-0.15,14.02-0.9,20.96
		c-1.51,16.43,11.61,31.06,4.07,49c-4.22,9.65-6.63,15.68-18.09,13.12c-4.82-1.06-9.95-0.75-15.98-1.06
		c3.02-9.65,5.58-18.09,8.14-26.23c-7.09-2.71-12.51-5.73-18.39-6.78c-14.62-3.02-26.08-21.71-45.53-3.62
		c-11.31,10.55-31.66,11.76-48.09,16.58c-6.78,1.96-14.17,3.32-21.26,3.77c-14.47,1.06-28.95,0.6-43.42,1.96
		c-22.77,2.26-45.53,9.05-67.84-2.71c-2.86-1.51-7.39-1.06-11.01-0.45c-11.01,1.96-21.71,5.28-32.72,6.63
		c-6.78,0.75-13.72-0.9-20.65-1.96c-3.92-0.6-7.99-2.86-11.91-2.71c-22.61,0.75-44.17-1.06-62.87-16.28
		c-10.25-8.44-22.61-8.29-35.88-6.78c-13.27,1.51-26.69,14.32-40.4,1.21c-0.45-0.45-1.81,0.15-2.71,0.45
		c-7.24,1.81-14.47,3.62-23.52,5.88c-6.48,10.25-14.93,23.37-23.07,36.63c-0.9,1.66-0.15,4.52,0.3,6.78
		c2.26,11.76,10.4,14.77,21.26,15.68c9.35,0.9,18.54,3.92,28.19,6.03c-10.7,7.54-19.15,13.72-28.34,20.35
		c22.92,18.85,22.92,18.69,46.89,19.45c7.84,0.15,15.98,0.3,23.67,1.66c4.82,0.9,9.35,3.92,15.23,6.48
		c-20.2,4.22-37.99,7.99-55.33,11.61c-2.41,25.33-1.66,26.23,26.38,37.99c-2.56,3.77-7.84,8.44-9.2,13.87
		c-2.71,11.61-3.77,23.67-4.37,35.58c-0.15,3.02,1.06,6.18,2.41,9.2c25.93,4.52,54.42,11.91,84.12,23.52
		c19.75-2.11,39.2-4.22,58.19-8.44c16.28-3.62,30.91-15.38,47.49-24.12c0.3,0.6,2.26,3.62,2.41,3.92
		c8.14-3.17,15.08-7.84,22.16-8.29c13.87-0.9,27.59-6.33,41.76,1.66c6.33,3.47,17.19,3.47,24.12,0.6
		c14.62-6.03,29.7-1.66,44.47-4.82c12.06-2.56,25.48-1.66,37.69,0.45c14.47,2.56,42.82-12.06,50.2-27.14
		c0.3,4.22,0.9,8.59,1.21,12.82c1.81,27.89,6.03,54.42,25.03,77.34c6.48,7.69,7.99,21.71,7.24,32.41
		c-0.9,13.27,3.62,18.24,15.83,18.39v16.58c-3.01-4.37-4.67-6.78-6.33-9.35c-1.06,0.15-2.26,0.3-3.47,0.45
		c2.56,25.78,3.32,52.01,8.44,77.34c5.58,27.59,15.23,54.43,23.52,82.62c-5.43,9.05-16.28,19.75-17.19,31.21
		c-0.9,9.95,9.5,20.81,15.98,33.17c-12.36,1.06-23.07,13.42-37.39,0c-7.84-7.54-19.15-1.21-19.6,10.4
		c-0.3,10.25-3.77,15.23-13.87,19c-5.73,2.26-11.76,11.76-12.21,18.39c-1.51,17.49-0.75,35.13-0.6,54.58
		c132.52,51.26,242.12,71.91,304.99,56.54c-2.26-2.71-4.52-5.28-6.48-7.69c2.11-8.14,2.71-16.13,6.33-22.46
		c2.56-4.37,9.2-9.2,13.87-9.05c12.81,0.15,25.63,1.06,38.44,1.96c0.75-1.51,1.51-3.32,2.11-5.13c-10.4-0.15-20.96-0.45-31.51-0.75
		c-4.37-0.15-8.74-4.37-12.36-6.48c-1.66,1.51-4.22,3.92-6.78,6.33c-1.36-2.56-2.71-5.28-4.22-7.84
		c-3.92-6.78-6.63-15.08-12.21-20.05c-6.48-6.03-7.99-10.25-4.98-19c3.32-10.4,4.07-22.01,3.47-33.02
		c-0.6-15.53-3.62-30.75-6.03-49.15c8.74-6.94,12.51-21.56,7.99-34.68c-9.95-28.04,0.15-54.27,2.71-81.26
		c0.15-1.81,0.45-3.62,0.6-4.22c-18.24,9.2-36.63,18.54-55.18,28.04c-11.16-8.44-13.12-19.45-3.62-34.52v19.75
		c20.96-12.66,41.76-24.57,61.81-37.69c3.47-2.26,4.97-9.2,5.43-14.17c1.51-18.24-3.17-37.39,8.89-53.97
		c0.75-1.05,0.3-3.47,1.06-3.92c28.19-13.12,22.01-42.06,27.59-64.38c7.69-30.6,10.1-62.72,12.81-94.38
		c1.21-14.17,11.91-12.97,21.56-19.75c-4.22,15.23,0.45,20.5,13.12,15.83c9.95,27.14,19.75,39.05,34.37,36.63
		c5.73-1.06,12.21-4.22,19.75-9.8c1.81-1.21,3.62-2.56,5.58-4.07v1.66c15.53-7.09,33.02-13.57,52.62-19
		c-7.39-6.18-9.35-16.13-7.69-32.26c15.83-0.9,31.96-2.71,47.94-2.71c8.59,0,14.93,3.92,18.24,14.02c0.9,3.01,1.96,6.18,3.17,9.2
		c2.86,6.63,7.09,12.51,15.83,14.93c3.17,0.75,6.33,7.24,6.94,11.46c1.36,9.05,1.36,18.39,1.36,27.74c0.15,22.16,0,44.32,0,66.49
		c1.36-0.15,2.71-0.15,3.92-0.15v-134.03c1.51-0.15,5.13-0.45,8.59-0.75c69.05-4.98,138.25-9.05,207.15-15.53
		c49.6-4.52,94.98-24.73,140.36-44.02c9.5-3.92,17.49-10.7,17.34-24.88c-10.55,1.66-20.5,3.17-31.51,4.82
		C3727.41,3097.97,3742.04,3057.87,3739.62,3013.24z M3313.57,1972.69c19.15-6.78,42.21,0.9,53.67,17.04
		c11.61,16.28,10.85,37.09-2.26,54.73c-1.96,2.56-4.07,4.98-6.18,7.54c8.59-9.35,17.19-18.69,24.12-26.38
		c3.17,21.26-26.23,44.78-53.67,38.14c5.28-1.51,10.4-3.02,15.53-4.37c-10.1-1.21-20.35-2.41-28.19-3.47
		c2.11-14.62,4.07-25.78,4.82-36.94c0-1.66-5.13-3.62-7.84-5.43c11.76-10.86,9.2-14.93-20.35-27.59
		C3301.21,1980.68,3306.79,1975.1,3313.57,1972.69z M3437.2,1000.43c-1.21,3.62-2.26,6.94-4.07,12.36c5.13-0.75,9.2-2.11,13.12-1.66
		c2.11,0.3,3.92,3.77,5.73,5.73c4.52,0.9,9.2,1.66,13.72,2.56c-8.14,3.02-1.96,29.7-20.2,12.97c2.26-5.28,4.07-9.8,6.03-14.32
		c-18.85,6.94-30-0.3-32.26-21.71C3425.14,997.72,3430.71,998.92,3437.2,1000.43z M3388.05,1179.53
		c10.25,12.36,6.94,18.24-1.36,21.56c-2.86,1.06-7.09-0.9-10.55-1.51C3379.61,1193.55,3383.23,1187.52,3388.05,1179.53z
		 M3384.43,1346.12c7.54-1.36,13.12,4.37,10.1,12.82c-7.39,0.9-12.97,1.81-22.61,3.01
		C3376.89,1355.32,3380.06,1346.88,3384.43,1346.12z M3387.3,1366.48c1.06,1.51,2.11,3.01,3.32,4.37
		c-3.17,5.88-6.18,11.76-8.9,16.89c-20.81-3.47-13.27,18.69-24.27,23.97c3.62-12.06,5.73-24.72,11.31-35.43
		C3371.47,1371.15,3380.96,1369.64,3387.3,1366.48z M3336.19,1209.23c9.65,1.06,19.45,1.96,33.02,3.32
		c-13.42,12.81-23.37-1.66-33.02,3.02V1209.23z M2699.67,441.86c15.38-9.65,28.79-22.31,43.12-33.62
		c11.46,4.52,5.73,12.06,0.9,15.68c-19.75,15.08-40.25,28.95-61.36,43.87C2686.86,458.29,2688.67,448.64,2699.67,441.86z
		 M2746.71,431.15c6.18,8.59,11.76,16.43,17.49,24.57c-28.34,12.36-56.08,24.57-83.97,36.63
		C2696.36,465.08,2718.07,444.57,2746.71,431.15z M2684.6,504.58c28.95-14.02,58.19-27.14,88.04-38.9
		c5.58-2.26,14.17,3.17,23.37,5.58c-3.02,4.37-5.58,8.29-7.69,11.76c14.02-13.72,34.22-1.51,51.56-0.9c0.3-1.66,0.45-3.32,0.75-5.13
		c-10.4-3.02-20.81-6.18-31.36-9.35c4.52-11.31,28.04-21.26,36.18-15.53c3.02,2.11,5.13,7.84,4.98,11.76
		c-1.21,30.3-3.17,60.61-4.98,91.06c-1.21,18.24-9.95,27.89-27.59,31.06c-7.24,1.36-15.23,1.51-21.86,4.52
		c-24.12,11.46-41.91-5.13-61.21-13.72c-2.26-0.9-3.62-8.74-2.11-11.91c4.98-10.4,11.31-20.05,17.19-30
		c-0.9-0.6-1.81-1.06-2.71-1.66c-7.54,12.06-15.23,24.27-22.61,36.18c-23.97-6.48-47.79-29.85-47.79-47.79
		C2676.76,515.88,2680.23,506.84,2684.6,504.58z M2751.39,712.02c-20.5-8.89-38.14-16.28-55.48-24.42c-1.96-0.9-3.62-5.58-3.02-8.14
		c2.86-14.47,6.48-28.8,10.1-44.47c6.78,5.73,11.76,10.1,16.74,14.32c-3.92-6.78-7.84-13.57-13.12-22.31
		c30-12.82,55.93-34.37,91.06-21.71c9.95,3.62,20.81,5.13,31.36,7.09c2.56,0.45,5.73-1.21,7.84-3.77
		c-15.08-2.71-30.3-5.28-45.38-7.99c0-1.66,0-3.47-0.15-5.13c16.73-3.02,33.32-6.03,52.62-9.65v132.97
		c-18.09,11.16-39.05,5.28-59.7,0.3c-13.72-3.47-29.55-3.62-35.43-20.65C2749.43,701.62,2750.03,704.64,2751.39,712.02z
		 M2688.67,683.68c-8.9-6.03-15.83-10.7-25.18-17.04c11.16-11.61,20.96-21.71,30.76-31.96c1.21,0.9,2.26,1.81,3.32,2.56
		C2694.7,652.02,2691.83,666.79,2688.67,683.68z M2712.19,612.37c8.44-35.88,18.09-39.05,50.96-13.87
		c-17.79,5.88-33.92,11.16-50.05,16.43C2712.49,613.12,2712.19,612.67,2712.19,612.37z M2626.4,592.32
		c5.73-24.57,16.73-46.28,32.41-69.8c9.05,13.27,16.74,24.73,23.52,34.52c0.15-0.3,0.6-2.41,1.36-4.98
		c11.31,7.09,21.86,13.57,32.11,20.5c1.96,1.36,3.47,5.88,2.71,8.14c-4.07,11.76-8.9,23.22-14.32,37.09
		c-3.77-4.07-5.88-6.48-5.88-6.48c-2.71,4.98-4.82,11.31-8.74,16.28c-7.84,9.95-16.28,19.75-25.63,28.49
		c-2.56,2.41-10.55,3.02-13.42,0.9C2628.82,640.86,2620.07,619.61,2626.4,592.32z M2641.33,686.09
		c-4.52-10.86-8.74-21.26-13.12-31.66C2652.33,675.09,2655.35,676.59,2641.33,686.09z M2720.33,777.45
		c-0.9-2.56-1.66-5.88-3.47-6.94c-21.41-11.16-19.9-32.41-24.88-51.56c0.6,9.05,1.36,18.09,2.26,30.45
		c-20.2-15.98-37.09-30.76-44.63-53.22c-1.21-3.47,0.9-9.05,3.17-12.51c1.06-1.51,7.54-1.36,9.65,0.3
		c28.34,22.31,61.21,34.98,95.43,44.63c3.17,0.9,6.03,2.56,10.86,4.67c-3.02,4.67-4.98,9.05-8.14,12.51
		c-7.99,8.74-15.98,17.49-24.88,25.33C2731.64,774.59,2725.45,775.34,2720.33,777.45z M2843.65,838.51
		c-25.03-3.17-50.05-6.63-75.23-9.5c-12.66-1.36-17.49-9.5-21.71-20.81c17.79,4.37,34.52,8.59,51.11,12.82
		c15.83,3.92,31.51,7.99,47.34,11.91C2844.71,834.74,2844.1,836.7,2843.65,838.51z M2832.04,795.85c3.92,5.13,6.18,7.99,8.59,11.31
		c-36.03,12.97-66.03-5.28-96.49-19.15c-3.02-1.36-5.28-13.12-2.86-16.13c7.39-9.35,16.73-17.34,26.38-24.12
		c2.26-1.66,10.7,2.26,13.87,5.88c10.7,11.61,20.2,24.42,30.3,36.63c1.81,2.11,4.67,3.62,8.29,4.22
		c-13.72-16.89-27.29-33.92-41.76-52.01c19.15-11.76,36.94,1.06,50.2-2.26c6.48-4.67,10.25-7.54,14.17-10.55
		c1.81,4.82,5.13,9.5,5.43,14.32c1.36,18.39,1.81,36.79,2.71,57.59C2844.25,799.46,2839.58,798.11,2832.04,795.85z M2646.76,2163.55
		c0.6-1.66,1.21-4.52,1.96-4.67c12.21-0.15,24.57-0.15,37.99-0.15c-3.17,14.62-13.42,14.93-23.67,15.08
		c-4.52,2.56-8.9,6.63-13.57,7.24c-11.46,1.66-23.22,1.66-37.69,2.41C2624.9,2164.3,2635.3,2159.18,2646.76,2163.55z
		 M2524.64,2148.78c25.03,4.07,48.54,7.69,71.91,11.46c0.45,1.36,0.75,2.56,1.06,3.77c-4.22,0.9-8.44,2.71-12.66,2.56
		c-7.69-0.45-15.38-2.41-23.22-3.32c-2.86-0.3-5.88,0.45-8.89,0.6c0.75,3.62,1.51,7.24,2.56,12.36c5.28-8.59,23.97-8.44,39.65,1.81
		c-6.94,1.21-13.87,2.26-20.65,3.47c4.98,0.6,10.55,1.36,16.13,2.11c0.75,1.36,1.36,2.71,2.11,4.07c-3.47,1.96-7.09,5.88-10.25,5.58
		c-9.05-0.9-17.94-3.77-26.83-5.43c-2.86-0.45-5.88,0.3-8.74,2.71c10.86,2.11,21.86,3.92,32.56,6.48c2.86,0.6,4.97,3.92,7.54,6.03
		c-2.86,1.36-6.03,4.37-8.44,3.92c-17.34-3.77-34.68-8.14-53.37-12.66c0.6-5.28,1.66-10.7,1.66-16.13
		c-0.15-3.92-2.41-7.69-2.56-11.61c0-3.62,1.66-7.09,2.56-10.7c1.21,0.15,2.41,0.3,3.77,0.6
		C2528.86,2154.2,2527.05,2152.09,2524.64,2148.78z M2490.42,2136.87c0.9,0.6,1.81,1.21,2.71,1.81c-2.11,6.78-4.37,13.42-6.93,21.86
		c-4.82-1.36-9.2-2.71-15.68-4.67C2478.36,2148.32,2484.39,2142.6,2490.42,2136.87z M2414.13,2032.54
		c-3.32,4.82-6.63,9.65-9.95,14.47c-1.96-0.9-3.92-1.81-5.88-2.56c0.6-4.52-0.3-11.76,1.96-12.81
		C2403.88,2029.83,2409.31,2032.09,2414.13,2032.54z M2402.67,2006.01c0.3,1.06-2.86,4.37-4.37,4.37c-2.26,0.15-5.58-1.51-6.33-3.17
		c-2.41-5.58-3.62-11.46-5.88-18.7C2400.87,1987.76,2399.96,1998.62,2402.67,2006.01z M2406.9,1894.29
		c-1.81,2.71-7.39,2.71-11.16,4.37c-2.86,1.06-7.39,2.41-7.69,4.37c-3.17,16.43-17.94,16.58-30.6,22.31
		c-3.17-6.48-5.73-11.76-8.74-18.24c18.85-8.59,36.79-16.89,57.14-26.08C2406.44,1886.6,2408.71,1891.88,2406.9,1894.29z
		 M2895.51,1922.48c-0.45-2.41,4.22-7.99,7.39-8.74c39.5-9.8,79.15-19,118.65-28.49c7.99-1.81,12.06,0.6,13.72,8.9
		c3.32,15.98,7.54,31.81,11.46,48.24c-13.42,3.92-20.65,0.3-22.92-12.81c-1.66-9.65-4.37-19-6.94-30.15
		c-32.11,7.39-63.77,14.47-95.43,22.46c-2.41,0.6-5.13,7.09-4.67,10.4c1.36,9.65,3.32,19.3,6.78,28.34
		c4.98,13.27,0.6,22.01-11.91,29.7C2906.07,1967.41,2900.34,1944.95,2895.51,1922.48z M2960.94,2028.47
		c-14.17,4.07-28.34,8.29-44.93,13.12c-0.9-8.14-1.51-12.81-2.26-20.05c15.23,9.5,27.44,11.01,37.99-2.56
		c0.6-0.75,6.78,3.17,10.4,4.82C2961.7,2025.3,2961.4,2026.96,2960.94,2028.47z M3012.35,2056.36c-8.59,2.26-17.49,3.77-25.78,6.94
		c-12.36,4.52-18.84,0.6-20.8-11.91c-0.75-4.52-1.66-8.9-0.75-13.72c1.96,5.88,3.77,11.76,6.33,19.45
		c18.39-3.92,36.18-7.69,54.88-11.61c-2.71-14.02-4.52-24.12-6.48-34.07c-1.81-8.89,0.45-12.06,10.1-9.2
		c13.42,3.77,23.82-3.02,23.67-16.13c-30.15,7.09-60,13.87-89.85,20.81c-11.01,2.56-21.86,5.73-32.87,7.69
		c-4.37,0.75-12.66-0.15-12.97-1.66c-1.51-6.78-1.36-14.02-0.45-20.96c0.6-3.92,3.77-7.54,5.88-11.31c1.66,1.06,3.32,1.96,4.97,3.02
		c1.81,5.58,3.47,11.01,5.73,17.94c33.02-7.84,66.03-15.83,100.26-23.97c-1.66-9.95-3.17-19.3-4.82-28.65
		c12.51-4.22,18.69-2.41,22.01,11.01c3.62,15.68,10.85,30.3,16.43,45.53c-13.12,2.11-25.93,4.07-42.51,6.63
		c0.45,4.67,0.45,12.06,1.81,19C3031.2,2051.08,3031.2,2051.39,3012.35,2056.36z M3036.47,2058.47c-0.3-1.21-0.75-2.41-1.21-3.62
		c13.72-3.92,27.29-7.84,40.86-11.76C3064.97,2054.1,3050.19,2054.7,3036.47,2058.47z M3221.31,1832.78
		c-5.13-11.76-10.4-23.52-15.53-35.43c1.81-0.6,3.62-1.36,5.43-2.11c4.37,12.21,8.9,24.42,13.27,36.63
		C3223.42,1832.18,3222.36,1832.48,3221.31,1832.78z M3245.28,1456.18c-13.27-2.26-25.78-5.88-29.85-22.16
		c6.93,5.28,13.87,10.55,22.31,17.04c3.92-7.99,7.09-14.62,10.25-21.26c0.75,0.15,1.36,0.45,2.11,0.6
		C3248.59,1438.54,3247.09,1446.83,3245.28,1456.18z M3295.33,1429.5c-1.06-5.88-1.81-9.95-2.71-15.53h-19.6
		c-0.15-1.06-0.3-1.96-0.45-2.86c6.18-1.66,12.36-3.32,20.05-5.43c-2.71-6.33-5.28-11.91-7.69-17.49c-0.15-0.15-0.45-0.15-0.6-0.3
		v-0.6c-3.62-1.51-7.54-2.86-12.21-4.82c-3.62,7.09-7.09,13.72-10.55,20.35c-1.21-0.45-2.41-0.75-3.77-1.21
		c1.81-6.93,3.47-14.02,5.88-23.22c-8.89,0.9-16.43,1.51-23.97,2.11c-0.3-1.36-0.6-2.56-0.9-3.92c7.84-1.66,17.19-6.48,23.07-3.92
		c7.54,3.47,21.41,0.45,22.46,14.62c0.15,0,0.15,0.15,0.3,0.15c0.15,0.3,0.15,0.45,0.3,0.75
		C3298.5,1394.07,3303.32,1410.95,3295.33,1429.5z M3203.97,883.74c15.23,2.41,30.3,4.82,45.53,7.39c-0.3,1.51-0.45,3.02-0.75,4.52
		c-15.08-2.71-30.15-5.43-45.38-7.99C3203.67,886.3,3203.82,885.1,3203.97,883.74z M3183.17,888.87
		c8.29,3.47,16.73,7.09,25.03,10.55c-0.6,1.36-1.36,2.56-1.96,3.77c-8.44-2.86-16.89-5.88-25.33-8.74
		C3181.66,892.48,3182.41,890.68,3183.17,888.87z M3090.3,988.82c8.74,6.03,17.49,12.06,26.23,18.24c-1.06,1.66-2.11,3.32-3.17,4.98
		c-9.05-5.58-18.24-11.01-27.29-16.58C3087.43,993.19,3088.94,990.93,3090.3,988.82z M2980.09,950.38
		c23.22,9.2,44.17,23.67,66.34,35.43c5.13,2.86,11.31,3.92,16.58,6.78c6.18,3.47,11.91,8.14,17.94,12.21
		c3.62,2.41,7.24,5.13,11.16,7.24c11.61,6.33,23.22,12.51,34.83,18.69c25.18,13.72,50.5,27.14,75.53,41.01
		c31.36,17.49,65.88,26.84,98.15,41.61c9.05,4.07,16.28,11.91,25.18,18.54c-61.36,69.35-114.28,140.81-115.48,237.15
		c-2.26-3.92-4.52-7.69-6.94-11.61c-9.35,8.74-9.35,8.74-18.24-2.86c-10.4,4.98-20.96,9.2-30.76,15.08
		c-10.7,6.33-14.32,15.68-3.62,30.3c-9.5-0.75-15.53-0.9-21.41-1.96c-8.59-1.66-11.76,0.3-13.57,9.95
		c-1.36,6.93-9.05,14.77-15.83,18.09c-7.54,3.62-17.49,2.11-26.08,3.92c-3.77,0.9-6.94,4.37-10.4,6.78
		c3.77,2.26,7.24,4.67,11.16,6.48c1.51,0.9,3.47,0.6,5.88,4.07c-34.52,7.39-69.2,14.93-107.19,23.22c0-7.54-0.6-15.98,0-24.27
		c0.9-10.86-1.81-19.3-11.61-25.18c-2.41-1.51-5.58-4.37-5.73-6.94c-1.51-16.43-2.26-32.87-3.47-53.07
		c9.05,5.88,15.23,9.95,23.67,15.53c-0.75-6.03-0.6-11.61-2.26-16.43c-4.37-13.12,1.96-24.88,14.62-29.85
		c5.73-2.11,11.76-7.84,14.32-13.57c5.88-13.27,15.53-20.65,28.8-26.38c22.92-10.1,44.78-22.76,69.2-1.21
		c3.32-8.29,5.28-13.27,6.78-17.04c-10.85-8.14-19.9-16.13-30.15-22.31c-6.94-4.22-15.98-4.97-23.52-8.74
		c-3.32-1.81-7.39-7.54-6.78-10.7c2.71-15.08-2.26-27.29-10.25-39.65c-5.43-8.14-12.81-17.79-3.17-26.23
		c8.9,1.36,17.49,5.28,21.56,2.56c9.2-5.88,17.19-14.47,23.37-23.52c3.92-5.58-8.9-21.86-16.43-22.16c-1.66,0-3.62,1.06-4.82,2.41
		c-11.76,12.36-11.76,12.36-29.55,15.23c-5.88-12.97-11.91-26.08-18.85-40.86c10.4-7.24,21.26-14.62,32.87-22.61
		c3.62,10.4,6.78,19.3,10.1,28.19c1.21-0.3,2.41-0.6,3.62-0.75c-1.21-5.43-1.66-11.01-3.77-15.98c-4.67-11.16-3.77-19.45,8.29-25.03
		c5.88-2.71,9.8-6.63,5.13-14.32c-4.37-7.39-8.59-6.94-16.13-4.67c-10.25,3.17-21.26,4.07-31.96,5.58
		c-8.14,7.09-15.98,14.93-25.03,20.5c-1.96,1.06-9.5-6.48-14.02-10.4c-1.36-1.06-1.05-4.37-2.26-4.97
		c-7.24-3.02-14.93-5.13-22.01-8.29c-17.04-7.54-22.01-4.67-24.12,14.17c-0.15,1.81-0.6,3.62-1.21,6.33
		c-16.58-2.71-33.02-5.28-50.96-8.14c-0.3-4.22-0.9-8.74-0.9-13.27c-0.15-39.35,0.3-78.7-0.15-117.89c0-9.95,2.71-14.32,13.27-15.08
		c9.95-0.75,19.75-4.98,29.85-6.33c4.22-0.45,11.31,1.36,13.12,4.52C2944.06,928.82,2958.68,941.93,2980.09,950.38z
		 M2867.92,1403.87c-2.71-0.3-6.18-4.37-7.24-7.39c-1.36-4.07-0.75-8.9-1.66-13.27c-2.26,18.54-2.26,18.54-10.55,22.61
		c-1.06-8.29-1.96-15.98-3.02-23.67c-0.6,0.15-1.21,0.15-1.81,0.15c-0.6,8.14-1.06,16.13-1.51,24.12c-1.66,0.15-3.47,0.15-5.13,0.3
		c-0.6-3.47-1.81-6.94-2.11-10.55c-0.45-9.65,0.91-19.75-1.21-28.95c-3.32-14.02,3.32-18.69,14.93-20.2
		c30.15-4.22,59.4,0.15,88.35,8.44c2.56,0.75,5.58,5.28,5.73,8.14c1.36,15.68,1.66,31.51,2.41,47.04
		C2917.67,1408.39,2892.8,1406.43,2867.92,1403.87z M2906.37,1683.98c0.6,2.11-5.88,6.18-9.2,9.35c-3.32-3.77-6.48-7.54-11.01-12.97
		c4.67-4.22,7.69-6.93,10.7-9.65C2900.34,1675.08,2905.16,1679,2906.37,1683.98z M2894.91,1762.23
		c11.01,4.67,24.12,13.87,37.84,3.32c2.56-1.96,7.39-1.96,10.85-1.36c3.92,0.6,7.54,3.02,11.31,4.82c-3.17,2.56-5.88,5.73-9.35,7.84
		c-2.71,1.51-6.48,1.21-9.2,2.71c-36.18,20.81-91.96-14.62-83.82-60c0-3.32-0.9-6.94,0.15-9.65c1.96-4.67,4.52-11.31,8.29-12.51
		c4.82-1.51,12.36,0,16.28,3.32c3.01,2.41,4.22,10.1,2.86,14.47C2873.8,1737.65,2876.97,1754.39,2894.91,1762.23z M2841.54,1735.54
		c-9.8-8.14-5.88-16.13,0.6-23.97C2843.5,1719.56,2857.07,1727.85,2841.54,1735.54z M2838.98,1286.42
		c3.92-2.86,9.05-9.05,11.61-7.99c14.77,5.43,32.72-12.21,47.94,8.44c-20.96,1.51-39.05,2.86-57.14,4.07
		C2840.49,1289.44,2839.73,1287.93,2838.98,1286.42z M2942.85,1313.41c2.26-6.18,7.54-11.31,11.61-17.04
		c1.36,2.71,4.37,6.03,3.77,8.14c-1.96,5.58-5.43,10.55-9.5,18.54C2947.22,1320.8,2941.8,1315.97,2942.85,1313.41z M2959.13,1513.47
		c1.06,0.75,2.11,1.66,3.17,2.41c-4.22,8.14-8.44,16.13-14.02,26.84c-3.32-7.39-4.82-11.01-6.48-14.78
		C2947.68,1522.97,2953.41,1518.29,2959.13,1513.47z M3024.26,1288.84c6.78-28.19,10.7-30,35.43-14.93
		C3047.18,1279.19,3036.32,1283.71,3024.26,1288.84z M2889.33,824.94c0.15-1.36,0.45-2.56,0.6-3.77c10.7,1.05,21.26,2.26,32.11,3.47
		C2918.73,841.23,2911.64,841.07,2889.33,824.94z M2933.05,844.39c0.9-10.55,1.51-16.43,2.11-23.52c13.42-2.86,27.44-6.03,41.46-9.2
		c0.3,0.75,0.6,1.36,0.9,2.11C2963.35,823.44,2949.33,833.24,2933.05,844.39z M2982.8,797.35c-12.21,4.98-25.03,8.59-37.69,12.66
		c-0.3-1.21-0.75-2.41-1.21-3.62c11.91-6.93,23.67-14.17,35.88-20.65c2.11-1.06,5.58,0.45,8.44,0.75
		C2986.42,790.27,2985.67,796.15,2982.8,797.35z M3017.78,768.26c-6.78,7.69-8.74,21.26-26.83,20.5
		c7.99-9.5,13.87-17.49,20.96-24.42C3016.57,759.66,3019.29,761.47,3017.78,768.26z M3023.81,770.07c-0.9,0.6-3.77-1.51-5.58-2.26
		c6.33-8.59,12.81-17.19,19.15-25.78c-4.82,2.86-9.8,5.73-14.47,8.74c-7.24,4.98-14.32,10.1-21.56,15.23
		c-7.24,4.98-13.27,4.82-19.3-2.56c-4.37-5.43-9.95-9.8-15.38-14.17c-9.2-7.54-9.5-19.3,1.21-24.73
		c21.86-11.16,44.47-20.96,66.94-31.21c0.75-0.3,2.86,2.11,3.17,2.26c5.13-5.13,10.25-11.46,16.28-16.43
		c2.71-2.26,9.05-4.22,10.55-2.86c3.02,2.71,5.73,7.99,5.28,11.91c-0.75,8.14-3.77,16.13-5.88,24.12c2.11,1.81,6.18,4.22,6.18,4.98
		C3060.45,739.76,3043.71,756.35,3023.81,770.07z M3001.95,407.94c8.14,3.92,16.73,8.14,28.8,14.02c-4.67-5.73-7.24-8.74-9.65-11.76
		c0.75-1.06,1.66-1.96,2.41-2.86c5.88,4.67,11.91,9.5,20.05,15.83c-5.73,2.26-8.14,3.17-12.36,4.98
		c28.95,12.06,40.4,36.48,49.45,63.92c-12.51-9.05-25.03-17.94-37.54-27.14c-3.62,4.52-23.22-0.15-60.3-17.49
		C2988.98,434.77,2995.17,422.11,3001.95,407.94z M2978.73,383.51c-12.82-3.47-22.92-6.18-34.22-9.35
		C2958.23,364.22,2966.07,366.48,2978.73,383.51z M2868.68,397.99c0.45-8.74,6.48-8.9,13.27-7.39c2.26,0.45,5.28,1.36,6.78,0.45
		c25.48-15.08,49-3.32,72.97,4.37c3.47,1.21,7.24,1.66,10.85,1.96c17.19,1.36,22.77,11.31,14.78,26.53
		c-11.46,21.86-33.77,25.93-57.74,10.4c-9.5-6.03-19.15-11.61-28.95-17.34c-0.9-0.45-2.41,0-6.33,0
		c10.25,6.33,18.54,11.61,29.85,18.7c-19.3-0.9-34.22-1.66-49.3-2.41c-1.36,0-3.02-0.3-3.92-1.06
		C2859.78,421.51,2868.07,409.45,2868.68,397.99z M2862.8,460.7c0.3-4.07,5.73-11.16,8.89-11.31c25.03-0.3,50.05,0.75,75.08,1.51
		c1.66,0,3.17,1.66,6.33,3.47c-17.34,14.62-37.99,15.68-59.4,23.07c3.02,1.51,6.33,4.67,8.9,4.07c13.57-3.32,27.29-6.63,40.25-11.61
		c11.31-4.22,22.01-11.91,32.26-0.15c-2.56-3.47-5.28-7.24-8.74-12.06c3.92-0.45,7.24-1.96,9.5-1.06
		c21.86,7.84,44.17,15.08,65.13,24.88c5.58,2.56,7.39,13.27,9.65,17.79c0,0,0.75-3.47,2.26-10.25c8.14,5.58,17.04,8.74,20.65,14.93
		c3.17,5.13,0,14.02-0.45,22.61c3.17-4.67,5.73-8.74,9.35-14.17c17.34,15.38,26.23,33.77,25.33,55.63
		c-0.6,14.47-2.11,29.7-7.84,42.67c-5.73,13.27-16.13,24.73-25.93,35.58c-10.7,11.76-20.81,9.95-29.1-3.92
		c-2.26-3.92-3.02-6.78-9.5-7.69c-7.24-0.9-13.72-8.44-21.11-13.42c4.37-9.8,8.14-18.09,13.42-30.15
		c3.92,8.59,6.18,13.57,8.59,18.39c0.3-0.15,0.6-0.15,0.9-0.3c-1.21-5.43-1.96-11.01-3.62-16.28c-4.67-14.02,1.05-24.27,10.85-33.62
		c8.44-7.99,16.58-16.58,24.88-25.03c-1.21-1.21-2.41-2.56-3.62-3.92c-6.03,5.43-12.06,10.7-19.45,17.34
		c-0.75-5.28-1.36-8.59-1.96-13.42c-11.31,30.45-12.81,31.51-26.23,17.79c8.44,13.72,1.96,20.65-9.95,25.18
		c-15.68,6.03-30.91,14.78-47.19,17.04c-12.06,1.81-25.48-4.52-38.14-7.54c-3.62-0.75-6.78-3.17-10.25-3.62
		c-19-2.41-38.14-4.37-57.59-6.63C2857.52,535.93,2859.63,498.24,2862.8,460.7z M3010.54,614.33c-0.9,1.51-7.09,1.36-10.1,0.3
		c-10.86-4.07-21.41-9.05-35.13-14.93c21.71-9.05,40.4-16.74,58.95-24.42c1.51,1.06,3.01,2.26,4.52,3.47
		C3022.91,590.66,3017.18,602.72,3010.54,614.33z M2855.41,611.92c0.15-19.15,6.78-24.73,25.48-24.57
		c19.45,0.15,38.59,1.66,56.38,10.1v4.98c-14.47,1.06-28.95,2.11-44.78,3.32c-1.81,6.18,1.81,8.9,9.65,7.69
		c9.65-1.66,19.9-2.11,28.8-5.73c22.31-8.89,40.7-0.45,60.45,8.9c13.72,6.63,17.34,12.51,10.86,26.23
		c-3.77,7.84-5.13,16.89-7.54,25.33c5.58-12.36,11.31-24.73,18.39-40.55c12.82,9.05,25.33,17.49,37.09,26.68
		c1.81,1.36,1.96,8.29,0.6,9.35c-12.06,8.89-24.57,17.34-37.24,25.03c-8.74,5.13-18.24,9.05-30.15,14.77
		c4.52-13.72,8.14-24.72,11.76-35.73c-5.28,9.65-10.85,19.3-15.83,29.1c-5.58,10.85-14.32,16.43-26.38,18.24
		c-9.95,1.51-19.45,5.88-29.4,6.78c-16.28,1.51-32.71,2.86-48.7,0.6c-6.03-0.75-13.57-10.55-15.53-17.64
		c-3.17-11.01-2.56-23.07-3.02-34.67C2855.71,650.66,2855.26,631.22,2855.41,611.92z M2857.82,774.14
		c-1.51-15.08,1.06-30.6,1.81-47.49c12.06,5.73,29.4-8.74,33.17,13.42c15.38-0.75,30-1.81,44.78-2.11c2.56,0,5.13,3.47,8.89,6.18
		c-16.43,21.86-32.87,42.21-58.19,52.92c19.6,1.96,28.49-14.62,41.46-24.12c2.56-1.96,4.22-4.98,6.18-7.54
		c17.34-22.77,26.38-22.61,43.57,0.75c1.06,1.51,2.41,2.86,5.73,6.94c-9.65,7.09-18.24,16.13-28.79,20.5
		c-18.85,7.99-38.75,13.57-58.5,19.3c-3.02,1.06-8.29-1.36-11.01-3.77c-4.22-4.07-2.86-8.59,1.36-12.06l0.45-0.45
		C2861.59,802.03,2860.69,802.18,2857.82,774.14z M2793.6,1096.61c26.69-12.66,55.03-23.07,85.63-22.16
		c33.47,0.75,61.96,13.42,84.58,42.06c-6.33,0-12.82,0.3-19.15-0.15c-9.2-0.75-18.39-2.56-27.59-2.86c-2.71,0-7.69,3.62-7.69,5.73
		c-0.15,11.61-8.44,12.21-16.28,12.97c-21.86,2.11-43.72,4.07-65.58,5.73c-3.47,0.15-8.14-0.45-10.25-2.56
		c-12.97-12.51-18.09-12.82-34.37-1.96c-3.47,2.11-8.9,1.51-15.38,2.41C2768.57,1115.61,2779.73,1103.1,2793.6,1096.61z
		 M2673.44,1156.32c1.81-11.01,4.52-21.86,6.78-32.87c5.73-11.91,11.31-23.82,17.19-35.73c20.2,7.84,19.9,8.44,14.62,28.34
		c-3.32,12.06-3.77,24.88-6.33,37.24c-0.75,3.77-3.47,9.35-6.33,10.25c-7.69,2.11-15.98,2.26-23.97,2.56
		C2674.65,1166.12,2672.84,1159.48,2673.44,1156.32z M2707.81,1237.58c-13.27,5.43-27.14,8.9-43.87,14.32
		c-0.15-22.46-3.77-42.06,11.16-58.95c15.68,15.98,23.67,13.87,29.85-6.63c1.96,0.3,4.67-0.3,6.18,0.9
		C2720.18,1193.4,2717.92,1233.51,2707.81,1237.58z M2727.87,1147.27c-1.96-1.21-3.92-2.41-5.88-3.62
		c3.77-9.95,7.54-20.05,12.06-32.41c6.18,4.22,9.5,6.63,14.93,10.55C2741.44,1130.99,2734.65,1139.13,2727.87,1147.27z
		 M2748.97,1222.95c-5.28-14.77-6.03-32.11-4.52-47.79c1.36-13.72,10.86-24.42,26.99-25.78c15.53-1.21,30.91-2.86,46.43-4.37
		c0.3,1.51,0.6,3.01,0.75,4.52c-8.44,1.96-17.19,3.32-25.33,6.33c-4.22,1.51-7.54,5.58-11.16,8.74
		c-6.78,5.88-13.42,11.76-16.89,14.77c6.63,0.9,17.49,2.86,28.19,4.07c13.12,1.36,25.48,1.21,37.09-8.44
		c4.82-4.22,14.77-2.56,23.67-3.77c-1.06,21.11,4.37,39.8-13.27,54.42c1.21,0.75,2.41,1.51,3.77,2.11
		c14.02-1.21,28.19-2.56,42.36-3.77c0.9-1.36,1.81-2.71,2.86-3.92c-4.82-4.37-9.5-8.59-16.28-14.77c-0.3-7.09,0-18.54-1.66-29.7
		c-0.75-4.98-5.13-10.4-9.35-12.97c-2.11-1.36-7.84,3.02-14.32,5.73c-0.9-3.47-2.41-8.44-4.37-15.38h30.15
		c1.21,5.58,2.56,12.21,3.47,16.58c6.33,0,12.06-0.45,17.64,0.15c10.4,0.9,21.11,4.82,30.91,3.02c14.62-2.71,28.49-9.35,40.55-13.57
		c-6.94-4.82-15.08-13.87-24.73-16.28c-10.25-2.56-22.01,1.06-33.02,1.96c-0.6-1.51-1.21-2.86-1.96-4.37
		c3.92-1.96,7.69-4.67,11.91-5.73c16.28-4.22,32.72-8.14,49.3-11.46c2.71-0.6,7.54,1.51,8.74,3.77
		c8.89,15.53,17.04,31.36,15.23,50.2c-5.28,55.63-23.37,86.99-88.04,107.95c-3.62-6.18-7.54-12.36-10.25-16.89
		c8.89-11.61,16.43-22.61,25.33-32.41c3.17-3.47,9.35-4.67,14.47-5.88c2.86-0.9,6.33,0.9,9.35,0.15c3.62-0.9,6.93-3.17,10.4-4.82
		c-2.86-3.17-5.13-7.69-8.59-9.05c-12.06-4.82-23.97-13.42-37.99-6.63c1.21,17.34-2.71,23.82-21.71,30
		c-21.56,7.24-42.97,4.98-61.96-7.09c-3.92-2.56-3.02-12.97-4.82-22.01c-17.94,0.3-27.74,17.79-43.12,26.08
		c0.3,1.36,0.6,2.71,0.9,3.92c9.8,0,19.6-0.3,29.4,0.3c3.47,0.15,7.54,2.11,9.95,4.52c7.99,7.99,15.23,16.73,24.12,26.53
		c-4.52,19.3-7.69,20.81-28.34,11.46C2783.05,1270.89,2759.38,1252.5,2748.97,1222.95z M2828.73,1355.77v51.56h-3.77v-51.56H2828.73
		z M2817.42,1358.49v53.37c-1.36,0-2.86,0-4.22,0.15v-53.52H2817.42z M2806.41,1365.57v50.35h-3.47v-50.5
		C2804.15,1365.57,2805.21,1365.57,2806.41,1365.57z M2796.76,1369.19v49h-2.41v-49.3
		C2795.11,1368.89,2796.01,1369.04,2796.76,1369.19z M2777.32,1542.26c-4.37-6.48-11.16-12.66-0.75-22.31
		c4.52,4.52,8.9,9.2,13.12,13.72c6.18,1.06,12.21,1.96,18.24,2.86c0.3,1.81,0.6,3.62,0.9,5.43c-7.09,1.96-14.02,3.77-21.11,5.73
		c-1.66,13.42-7.84,16.58-20.66,8.74C2770.53,1551.61,2774,1546.94,2777.32,1542.26z M2778.82,1859.92
		c-9.5,7.99-20.35,14.02-30.6,3.17c-3.17-3.47-3.77-13.42-1.05-17.49c9.35-14.02,22.16-9.5,35.28-4.22
		c-3.92-4.07-7.69-8.14-12.21-12.82c-1.96,1.51-4.98,3.47-8.44,6.03c-16.13-12.21-3.92-26.38-0.75-40.55
		c2.41,6.78,4.82,13.57,6.78,19.3c11.16-17.34-6.18-34.83-27.44-37.39c-16.28-1.81-31.51,0.9-45.08,11.31
		c-4.52,3.32-10.7,4.67-15.98,7.09c6.78,1.21,13.57,2.41,20.81,3.92c-2.26,3.32-4.07,5.73-5.73,8.14c2.71,1.21,5.28,2.56,8.14,3.62
		c3.02,0.9,7.69,0.45,9.05,2.41c6.03,9.5,14.62,10.7,25.03,11.01c9.95,0.45,14.17,11.16,6.93,18.54c-4.67,4.67-12.66,8.89-19,8.44
		c-5.43-0.3-10.55-7.39-17.79-12.97c-17.49,4.97-22.76,1.96-24.57-16.74c-20.96-1.36-23.82-4.22-22.31-19.3
		c-8.14-3.47-15.53-6.78-22.92-9.95c1.96-3.32,3.92-6.78,5.73-10.1c-3.01-0.6-6.18-1.51-9.35-1.51
		c-14.77-0.15-17.79-3.17-16.73-18.09c-19.15-4.82-20.96-7.54-15.23-25.03c-2.71-0.3-5.73,0-7.54-1.21
		c-4.67-3.02-8.89-6.94-13.27-10.4c3.47-3.47,6.18-8.14,10.4-10.1c7.09-3.47,14.93-5.28,22.46-7.69c-2.71-1.96-7.69-5.73-12.51-9.35
		c-24.72,20.2-35.28,18.24-44.63-7.99c40.25-16.13,80.21-32.56,120.61-48.09c5.58-2.26,12.66-0.3,23.07-0.3
		c-0.45,4.52-2.71,11.16-1.06,16.58c1.21,3.92,7.69,6.48,12.21,9.95c-4.67,9.05,3.17,13.87,10.55,19.3
		c6.78,4.98,11.16,11.46,9.2,20.65c10.85-0.75,20.65,0,21.41,14.32c7.24-14.47,17.34-0.9,26.08-1.96c8.44-0.9,17.64,5.43,26.69,6.78
		c3.17,0.6,7.09-6.03,10.86-6.48c4.97-0.3,10.4,2.11,15.68,3.47c-2.56,4.82-4.37,10.25-7.99,14.17c-1.05,1.36-6.63-1.36-8.74-4.82
		c-3.32,1.66-6.63,3.32-8.44,4.07c6.48,35.43-13.27,67.99-9.65,102.82c10.1,4.52,20.35,11.01,31.36,0.9
		c1.06-1.06,3.77-1.21,5.43-0.75c11.31,2.86,21.71,3.92,31.66-4.97c1.81-1.51,8.59,2.56,13.57,4.52c0-0.15,0-0.15,0-0.3
		c0.3,0,0.75,0.15,1.06,0.15c4.67-20.35,23.82-30.45,34.52-17.49c0.15,0,0.15,0,0.3,0c-2.71-6.18-5.43-12.36-8.14-18.54
		c-22.16,8.44-26.38,5.58-31.06-19.75c4.98,0.6,10.7,0.3,15.53,2.26c5.58,2.11,10.4,6.18,17.79,10.85
		c15.08-6.03,32.41-14.32,50.66-19.6c6.48-1.96,14.93,3.47,22.46,5.13c2.56,0.45,5.43-0.45,7.24-3.47
		c-5.28-1.81-14.47-3.01-14.93-5.43c-0.9-6.63,2.11-13.72,4.22-24.12c5.28,6.63,7.99,9.95,10.55,13.27c0.6-0.3,1.21-0.6,1.81-0.9
		c-2.56-5.43-5.13-11.01-8.59-17.94c-6.03,8.44-10.7,15.23-17.34,24.57c-9.8-9.35-19-18.09-31.81-30.3
		c-8.59-0.6-23.67-1.21-38.59-2.56c-11.61-1.21-13.27-9.8-10.1-18.69c4.52-12.51,13.12-21.56,27.14-23.52
		c5.13-0.75,10.1-1.06,18.54-1.81c-4.82-2.41-7.24-3.02-8.74-4.52c-1.96-1.96-4.37-4.37-4.67-6.94c-0.3-1.96,2.41-4.37,3.77-6.63
		c9.35,6.63,13.27-16.43,24.12-4.22c3.77,4.37,9.65,6.93,14.47,10.25c-4.98-10.1-4.52-16.73,9.2-16.89c6.33,0,12.51-1.36,19-2.26
		c-0.45-2.11-1.06-4.67-2.26-9.05c5.43,3.92,9.35,6.93,13.42,9.8c-7.69-6.18-1.96-11.16,1.96-15.83c2.56-3.02,6.33-5.13,8.74-8.74
		c4.07-1.96,15.23,3.01,7.54-9.2c28.34-18.39,51.56,1.51,75.83,10.86c16.58,6.33,31.81,7.99,48.24-1.81
		c-6.48-14.78-0.15-22.77,14.93-25.33c-13.72-14.78-13.42-18.54,1.66-31.21c-3.62-5.73-7.09-11.31-11.91-19.15
		c4.07,11.31,2.11,16.43-8.74,17.34c-25.63,1.96-51.26,4.67-76.74,7.99c-3.92,0.6-7.54,5.28-10.55,9.65
		c-11.31,0.9-7.99-5.13-2.11-12.66c-3.17-0.75-5.73-1.51-6.63-1.66c0.6-10.25,7.99-17.79,1.21-28.95
		c-3.77-6.18-9.95-15.68-1.36-24.12c-1.96-1.05-3.92-2.11-5.73-3.01c7.69-4.52,13.72-8.14,19.75-11.61
		c-0.45-1.06-1.06-2.11-1.51-3.17c-6.94,2.86-13.87,5.73-20.81,8.59c-0.45-1.21-0.9-2.26-1.36-3.47c24.88-13.27,52.46-19.9,79-28.8
		c5.28-2.56,10.55-4.97,15.68-7.69c3.02-1.66,7.09-3.17,8.59-5.88c12.97-21.56,24.73-22.61,43.57-1.21
		c-11.46,5.88-22.46,11.61-33.32,17.19c-0.75-1.06-1.66-2.11-2.41-3.32v12.21c9.2-3.92,17.94-8.14,26.99-11.31
		c2.26-0.75,6.63,1.66,8.44,3.77c10.7,12.21-1.36,18.85-9.05,28.49c12.06-0.9,22.16,0.3,20.2,14.17
		c-1.51,11.31-14.47,15.53-34.83,11.76c-0.3,2.71-0.45,5.43-0.6,8.44c5.88-0.3,11.46-1.51,16.58-0.6c5.88,0.9,11.31,3.62,17.04,5.58
		c-2.56,6.33-4.98,12.82-7.69,19.15c-0.75,1.51-2.86,2.26-4.22,3.32c12.97,15.38,10.7,22.61-8.44,30
		c2.56,5.43,7.84,11.31,7.09,16.13c-0.9,5.28-7.54,9.65-12.66,15.68c5.88,13.12-3.47,18.85-16.28,22.01
		c6.03,18.39,3.32,23.07-15.98,27.74c7.39,16.28,4.67,21.26-15.38,28.49c4.22,22.31-4.22,30.91-26.38,25.78
		c2.71,15.68-5.28,22.16-19.6,23.37c-2.11,0.15-5.43,0.75-6.03,2.11c-7.39,17.49-19.9,15.08-33.32,8.89
		c-10.55,16.89-15.08,18.85-34.07,13.57c-6.78,14.62-17.49,21.11-33.17,13.27c-9.65,18.54-18.09,21.11-45.83,14.17
		c0,0.15,0.15,0.3,0.15,0.45c-0.15-0.15-0.3-0.3-0.45-0.45c4.22,13.57-4.37,23.37-18.24,20.8c-5.43-1.05-10.86-2.26-16.28-3.32
		c-0.15,0.15-0.15,0.3-0.15,0.45c-0.3-0.15-0.6-0.15-0.9-0.3c0.9,4.52,3.62,11.16,1.81,12.97c-4.37,3.92-10.7,6.18-16.73,7.39
		c-2.86,0.6-6.48-2.86-9.65-4.37c-15.23,20.65-22.46,22.16-37.69,7.84C2797.52,1879.07,2788.77,1878.31,2778.82,1859.92z
		 M2746.86,1794.19c-6.03,3.62-11.01,14.17-19.45,3.17v-5.88c6.33-0.45,12.66-0.91,19.15-1.36
		C2746.56,1791.47,2746.71,1792.83,2746.86,1794.19z M2820.28,2238.48c-6.03-16.73-12.06-33.32-18.09-49.9
		c1.81-0.75,3.47-1.36,5.28-1.96c5.88,16.58,11.76,33.32,17.79,49.9C2823.6,2237.12,2821.94,2237.88,2820.28,2238.48z
		 M2589.92,3219.93c8.29-0.91,16.13-1.81,25.03-2.71c2.56,7.54,4.37,13.12,6.33,18.7
		C2602.28,3245.56,2596.7,3242.85,2589.92,3219.93z M2792.54,3163.4c-2.71-5.73-6.63-11.31-7.54-17.19
		c-0.45-2.56,5.43-6.18,10.86-11.61c1.96,10.7,3.62,17.34,3.92,24.12C2799.78,3160.23,2795.11,3161.89,2792.54,3163.4z
		 M3578.16,3141.39c-11.16,7.99-28.04,5.73-44.02-6.63C3550.72,3137.17,3563.54,3139.13,3578.16,3141.39z M3606.95,2797.05
		c-1.36,0.3-2.56,0.75-3.92,1.06c-2.41-9.2-4.82-18.39-7.69-29.1C3607.71,2772.32,3610.12,2780.01,3606.95,2797.05z
		 M3459.21,2962.59c11.76-11.61,17.19-10.86,21.71,3.47C3473.53,2964.85,3466.9,2963.79,3459.21,2962.59z M3467.65,2730.71
		c-13.12,8.44-39.2,2.56-47.34-8.44c13.27-4.22,26.84-8.44,40.4-12.97c2.56-0.75,5.43-1.66,7.39-3.47
		c15.08-13.72,15.08-13.87,29.4,2.41C3486.95,2716.24,3477.75,2724.23,3467.65,2730.71z M3459.36,2644.33
		c15.53-0.6,33.47,18.09,34.98,37.54c-16.13-8.9-31.21-17.19-48.24-26.53C3445.79,2648.85,3450.62,2644.63,3459.36,2644.33z
		 M3450.01,2674.63c2.86-0.9,11.61,5.73,11.31,8.14c-0.75,5.73-5.28,11.01-10.55,20.5c-6.48-8.29-13.12-13.12-12.51-16.73
		C3439.16,2681.87,3445.19,2676.29,3450.01,2674.63z M3433.13,2708.7c-9.95,0-24.88,3.17-26.99-0.75
		c-5.13-9.2-7.09-22.31-4.97-32.71c3.62-18.24,19.15-25.18,37.54-27.74C3427.7,2684.13,3427.7,2684.13,3433.13,2708.7z
		 M3367.85,2609.5c-0.45,0.6-1.06,1.96-1.66,1.96c-9.5,0.6-23.52,4.98-27.59,0.45c-9.05-9.95,1.66-21.71,6.78-31.21
		c3.62-6.63,11.91-10.7,19.6-17.19v45.83C3365.89,2609.35,3366.94,2609.35,3367.85,2609.5z M3374.03,2622.47
		c0.45,0.45,2.86-0.15,3.92-0.9c10.86-6.63,21.56-13.57,32.56-20.35c3.17-1.96,6.78-3.62,10.25-5.43
		c1.51,4.98,5.88,11.01,4.37,14.77c-10.55,29.25-44.32,38.75-69.65,20.35c-3.02-2.11-5.73-4.52-11.46-9.2
		C3356.09,2621.41,3364.83,2611.16,3374.03,2622.47z M3372.67,2598.05c-0.9-2.56,2.41-6.94,4.52-10.1
		c2.26-3.77,5.28-7.09,9.65-12.66c6.93,1.51,13.27,9.05,11.76,18.24c-0.75,4.52-10.4,8.44-16.58,10.7
		C3379.76,2605.13,3373.73,2601.06,3372.67,2598.05z M3416.24,2557.64c14.17,4.82,19.3,16.74,16.43,37.69
		c-15.98-10.1-31.06-19.6-47.49-30C3394.53,2551.16,3405.69,2554.02,3416.24,2557.64z M3411.57,2437.18
		c-12.21,17.64-16.13,17.04-32.71-4.37C3389.1,2440.95,3402.37,2411.4,3411.57,2437.18z M3341.62,2356.68
		c1.51-3.17,3.17-6.18,6.03-11.46c11.01,13.87,20.96,26.38,30.6,38.59c-9.05,0-17.04,1.81-23.82-0.45
		c-6.78-2.26-13.12-7.84-17.79-13.57C3335.13,2367.98,3339.66,2361.05,3341.62,2356.68z M3335.43,2343.71
		c1.21,2.41-0.6,9.05-1.51,9.2c-6.94,0.75-15.38,2.71-20.81-0.3c-6.78-3.77-11.16-11.91-16.73-18.24
		C3312.97,2323.66,3327.44,2327.28,3335.43,2343.71z M3295.93,2472.61c15.23-3.17,30.15-6.18,47.34-9.5
		c-3.92-4.67-5.58-6.63-5.73-6.94c7.09-0.6,15.08-2.26,22.92-1.66c4.22,0.3,7.99,4.52,14.93,8.74
		c-27.89,14.02-52.01,26.23-76.29,37.69c-2.71,1.36-7.84-2.41-14.47-4.82c7.54-6.33,12.06-10.25,17.49-14.78
		C3299.85,2478.19,3297.59,2475.02,3295.93,2472.61z M3146.08,2205.61c3.02,5.28,6.18,10.7,9.5,16.13
		c-2.86-10.55-5.58-21.11-8.29-31.81c0.9-0.3,1.96-0.6,2.86-0.9c11.01,28.95,21.86,58.04,32.71,87.14c-1.06,0.45-2.11,0.9-3.17,1.36
		c-8.14-18.69-16.28-37.39-24.42-56.08c10.55,32.72,21.26,65.28,32.41,99.35c-4.82,1.96-10.25,4.07-17.64,6.93
		c-8.74-24.57-17.19-48.54-25.78-72.52c-3.47-9.65-6.93-19.3-10.25-28.95C3128.44,2210.29,3128.44,2210.29,3146.08,2205.61z
		 M3012.5,2234.41c20.5-2.26,41.01-4.67,61.66-6.33c4.07-0.3,11.46,2.56,12.06,5.13c11.91,49.3,23.07,98.75,34.52,148.35
		c-22.77,0-46.13,6.48-62.42-1.51c-22.76-11.16-43.57-6.33-65.28-5.58c-8.44,0.3-11.91-2.56-13.27-10.4
		c-4.07-21.11-7.99-42.21-12.66-63.17c-3.17-13.72-7.54-27.14-11.16-40.55c-1.66-5.88-2.86-11.76-4.82-19.45
		C2973,2238.63,2992.75,2236.52,3012.5,2234.41z M3065.42,2949.47c-9.95-6.03-1.66-22.92-19.75-16.89
		c3.17-7.84,5.13-12.81,7.09-17.64C3070.7,2921.58,3064.52,2935.3,3065.42,2949.47z M2878.78,2264.26
		c1.21-3.02,8.89-4.37,13.57-4.52c1.21-0.15,4.67,6.93,4.07,10.25c-2.41,12.21-5.88,24.27-9.2,37.69
		c-7.39-0.6-13.72-1.06-21.41-1.51C2870.18,2291.4,2873.5,2277.38,2878.78,2264.26z M2923.86,3377.48
		c-8.74,0.75-14.93,1.21-23.52,1.81c3.17-19,5.73-36.18,9.05-53.37c0.3-1.06,9.2-1.81,9.5-1.21c3.62,11.46,6.48,23.22,9.5,34.98
		c-1.21,0.45-2.41,0.75-3.62,1.21c-3.02-4.37-6.03-8.74-9.05-13.12c-0.45,0.15-1.06,0.45-1.51,0.6
		C2917.22,3357.43,2920.24,3366.62,2923.86,3377.48z M2912.1,3469.6c-4.07-7.39-7.99-14.78-12.66-23.22
		c12.21-5.28,12.36-13.27,6.03-22.31c0,6.63,2.41,15.08-12.06,13.12c2.26-17.19,4.67-34.07,7.24-53.97
		c8.74,8.14,15.08,12.82,4.67,20.65c-9.35,6.78-2.86,13.72,0.45,20.5c-0.45-14.93-0.45-14.93,10.1-20.66
		c-0.9-4.07-1.81-8.14-2.56-12.21c-0.45-1.81-0.45-3.62,2.11-8.29c2.86,2.41,8.29,5.13,8.14,7.24c-2.11,26.08-5.13,52.16-7.84,78.25
		C2914.51,3468.99,2913.3,3469.29,2912.1,3469.6z M2912.25,3503.67c-5.73-10.7-9.8-18.24-14.02-25.78
		C2916.62,3473.06,2916.62,3473.06,2912.25,3503.67z M2896.27,3248.88c0.45-1.51,1.06-3.02,1.51-4.67
		c17.04,6.03,34.22,12.21,51.26,18.24c-0.15,1.06-0.45,2.11-0.6,3.17C2930.94,3260.04,2913.6,3254.46,2896.27,3248.88z
		 M2942.85,3236.52c-5.88-9.65-8.74-22.76-8.29-34.07c0.75-15.83,14.62-25.33,28.95-23.37c14.93,1.96,26.08,14.93,25.93,34.98
		c-2.26,5.43-5.13,15.98-10.85,24.73C2970.44,3251.44,2951.75,3250.99,2942.85,3236.52z M2928.98,3170.64
		c0.15-1.66,0.15-3.32,0.3-4.98c17.04,1.96,33.92,3.92,50.81,5.88c-0.15,0.9-0.15,1.66-0.3,2.56
		C2962.9,3172.9,2945.87,3171.84,2928.98,3170.64z M2875.01,3157.97v3.92h-42.06C2842.14,3152.09,2842.14,3152.09,2875.01,3157.97z
		 M2807.47,3162.34c-0.9-1.81-1.81-3.62-2.71-5.43c4.37-12.06,13.42-11.01,25.03-3.77
		C2822.39,3156.31,2814.86,3159.33,2807.47,3162.34z M2870.79,3718.2c-0.6-4.67-0.75-6.94-1.36-12.36
		c-5.28,6.03-9.2,10.4-15.98,18.24c2.41-7.99,3.62-12.36,5.58-19.6c-5.58,4.52-9.5,7.54-12.06,9.65c-2.86-4.22-5.73-8.59-9.5-14.17
		c0.45-0.6,1.21-1.66,1.96-2.56c-0.45-0.6-0.9-1.36-1.21-1.96c-6.63,2.86-13.12,5.58-19.75,8.44c8.89-7.84,17.34-15.08,30.6-7.39
		c7.99,4.52,17.34,6.63,27.89,10.55C2875.01,3710.51,2873.5,3713.22,2870.79,3718.2z M2846.21,3231.09c0.15-0.9,0.15-1.96,0.3-2.86
		c2.71-0.45,5.28-0.75,11.91-1.66c-11.61-6.03-20.5-10.55-33.47-17.19c10.7-1.36,17.19-3.77,23.37-2.71
		c12.66,1.96,27.89,2.41,36.94,9.8c7.99,6.48,16.73,4.98,23.67,9.8c2.56,1.66,3.47,5.88,5.58,8.44c1.36,1.66,3.77,3.32,5.73,3.62
		c4.82,0.45,9.8,0.15,14.62,0.15c0.15,1.81,0.15,3.47,0.15,5.28c-23.97,6.18-43.87-12.66-67.39-11.76
		c7.69,3.32,15.38,6.63,23.07,9.95c-0.6,1.36-1.06,2.71-1.66,4.07C2874.86,3241.04,2860.54,3236.07,2846.21,3231.09z
		 M2891.89,3445.93c12.97,14.93,12.81,20.5-2.41,23.97C2890.39,3461.15,2891.14,3454.07,2891.89,3445.93z M2905.61,3533.52
		c-2.26-7.39-4.52-14.78-7.54-24.57c22.01,3.77,6.33,16.89,12.21,23.07C2908.78,3532.46,2907.27,3532.91,2905.61,3533.52z
		 M2979.18,3588.54c-2.26,1.66-4.52,3.32-6.78,4.98c-1.51-3.17-3.17-6.33-4.07-8.14c-5.88,0.6-12.97,1.81-20.05,1.96
		c-37.99,0.9-38.14,0.75-35.13-36.03c0.9-9.8,1.96-19.45,3.02-29.1c22.77,1.81,43.12,3.32,66.03,4.97
		C2981.3,3546.33,2980.24,3567.44,2979.18,3588.54z M2997.58,3456.33c0.15,2.26-0.75,4.67-1.21,7.09c-0.6,2.71-2.11,5.58-1.81,8.14
		c1.21,7.99,3.17,15.98,4.67,23.97c-2.11,1.21-4.22,2.26-6.33,3.47c-2.26-3.47-6.48-6.78-6.63-10.1c-0.6-22.31-0.3-44.47-0.3-66.79
		c1.21-0.3,2.26-0.6,3.47-0.9c3.47,3.92,6.78,7.69,10.1,11.61c-1.21,0.3-2.56,0.75-3.92,1.05
		C2996.22,3441.25,2997.13,3448.79,2997.58,3456.33z M3014.61,3412.16c-4.07-3.17-5.43-4.37-7.99-6.33
		c11.46,25.78,1.96,49.9,1.36,76.59c-8.9-12.06-9.05-38.44-1.36-44.47c-8.44-7.69-3.47-23.07-17.49-28.34
		c-1.66-0.6-1.21-7.84-1.21-12.06c-0.3-14.47-0.3-28.79-0.45-43.27v-42.36c9.95-5.58,16.43-6.33,19.45,6.94
		C3013.56,3348.84,3017.93,3378.84,3014.61,3412.16z M3050.65,3248.28c0.45,0.9,0.9,1.81,1.21,2.71c-14.93,6.93-30,13.72-45.08,20.5
		c-0.75-1.21-1.36-2.56-2.11-3.92c3.92-2.56,7.69-5.13,11.61-7.54l0.15-0.15c-22.92,4.22-45.98,7.69-67.39-7.09
		c12.66,1.06,25.33,2.86,37.99,2.71c7.09-0.15,14.17-3.17,20.81-5.88c11.16-4.67,21.71-10.55,33.02-14.77
		c4.22-1.66,9.5-0.3,14.62,3.01c-12.97,7.39-26.08,14.62-39.05,22.01C3027.73,3256.12,3039.34,3252.2,3050.65,3248.28z
		 M3084.42,3012.03c0.45-8.59,0.75-17.04,0.75-25.48c-0.15-33.02-4.37-65.13-13.72-96.64c-2.71-8.9-1.36-15.98,2.56-24.88
		c5.58-12.66,5.88-27.59,8.74-41.61c4.37-21.26,9.8-42.51,13.27-63.92c1.66-10.85,0.9-22.31-0.6-33.17
		c-1.51-10.55,0.45-18.85,7.54-26.99c21.56-25.18,24.88-53.07,15.53-85.18c-4.52-15.68-0.3-34.07,1.66-51.11
		c0.75-6.18,14.93-6.18,19.9-0.3c14.02,16.58,28.04,33.32,42.06,49.9c18.09,21.41,36.18,42.51,54.27,63.77
		c1.51,1.81,4.22,3.32,4.67,5.28c7.69,37.39,39.05,52.16,66.94,70.1c18.39,11.61,34.83,24.88,47.19,43.12
		c5.13,7.69,12.66,13.72,18.54,20.8c4.07,4.82,7.69,10.25,11.16,15.68c6.03,9.35,11.31,19.15,17.79,28.04
		c6.78,9.2,14.93,17.49,22.16,26.53c1.66,2.26,2.26,6.03,2.11,9.05c-0.45,10.55-1.66,21.11-2.71,32.41
		c-15.23,2.41-25.93-6.18-37.84-16.43c-19.9-17.04-41.01-33.92-64.22-45.38c-11.31-5.58-30.45-2.26-43.27,3.47
		c-44.02,19.45-86.99,41.16-129.65,63.32c-10.7,5.58-19,7.54-29.85,2.11c-12.06-6.03-17.79-3.32-19.3,9.8
		c-1.36,13.87-1.51,27.74-0.6,41.61c0,1.21,0,2.56,0.15,3.77C3100.55,3004.19,3097.83,3009.47,3084.42,3012.03z M3216.33,3221.74
		c-2.86-6.48-5.58-12.66-9.05-20.81c5.58-2.56,10.7-4.67,17.19-7.54C3228.24,3214.96,3227.94,3215.86,3216.33,3221.74z
		 M3413.08,2978.57c-0.6-1.36-1.21-2.86-1.81-4.67c-0.9-1.96-1.96-4.52-3.47-8.14c-2.56,3.62-5.88,6.48-6.18,8.59
		c-0.15,0.3-0.15,0.45-0.15,0.75c1.51,12.82-9.2,9.65-15.08,11.61c-3.32,1.06-7.84-1.66-11.91-2.71c1.06-2.71,1.96-5.88,3.02-8.74
		c1.06-3.32,2.56-6.33,4.82-7.99c9.2-6.33,20.8-6.18,31.21-1.96c2.26,0.9,3.32,4.97,4.07,8.44c0.3,0.75,0.45,1.36,0.6,1.96
		C3418.2,2976,3414.88,2977.51,3413.08,2978.57z M3503.98,2971.63c-0.6-0.45-1.05-0.75-1.66-1.21c-4.82-3.32-9.8-6.93-14.62-10.25
		c2.26-2.71,4.22-7.39,6.93-7.84c11.61-1.66,11.46,7.39,12.66,14.93c-0.9,1.06-1.66,2.11-2.26,3.01
		C3504.59,2970.73,3504.29,2971.18,3503.98,2971.63z M3538.06,3178.78c11.01-13.72-13.42-15.83-6.63-26.68
		c30.3,3.47,61.21,7.24,91.96,10.85C3595.8,3174.71,3568.06,3185.11,3538.06,3178.78z M3013.71,1045.21
		c-0.3,0.15-0.45,0.3-0.75,0.45c0.3,0.15,0.6,0.15,0.9,0.15C3013.71,1045.66,3013.71,1045.36,3013.71,1045.21z M3013.71,1045.21
		c-0.3,0.15-0.45,0.3-0.75,0.45c0.3,0.15,0.6,0.15,0.9,0.15C3013.71,1045.66,3013.71,1045.36,3013.71,1045.21z M3013.71,1045.21
		c-0.3,0.15-0.45,0.3-0.75,0.45c0.3,0.15,0.6,0.15,0.9,0.15C3013.71,1045.66,3013.71,1045.36,3013.71,1045.21z M3013.71,1045.21
		c-0.3,0.15-0.45,0.3-0.75,0.45c0.3,0.15,0.6,0.15,0.9,0.15C3013.71,1045.66,3013.71,1045.36,3013.71,1045.21z M3714.75,3309.64
		l0.15,0.15c0.15-0.15,0.15-0.15,0.15-0.3C3714.9,3309.64,3714.9,3309.64,3714.75,3309.64z M3013.71,1045.21
		c-0.3,0.15-0.45,0.3-0.75,0.45c0.3,0.15,0.6,0.15,0.9,0.15C3013.71,1045.66,3013.71,1045.36,3013.71,1045.21z M2829.48,391.51
		l0.3,0.3c0.15-0.15,0.15-0.15,0.3-0.3H2829.48z M2778.82,411.1c-0.15,0.15-0.15,0.3-0.3,0.45h0.45L2778.82,411.1z M2019.14,3408.99
		c2.56-1.21,4.98-2.26,7.54-3.47C2023.66,3406.43,2021.25,3407.48,2019.14,3408.99z"/>
</g>
</svg>
