<svg width="36" height="36" viewBox="0 0 36 36" fill="none" xmlns="http://www.w3.org/2000/svg">
<rect width="36" height="36" rx="18" fill="#1C3B87"/>
<path d="M18 8.04004C12.5 8.04004 8 12.53 8 18.06C8 23.06 11.66 27.21 16.44 27.96V20.96H13.9V18.06H16.44V15.85C16.44 13.34 17.93 11.96 20.22 11.96C21.31 11.96 22.45 12.15 22.45 12.15V14.62H21.19C19.95 14.62 19.56 15.39 19.56 16.18V18.06H22.34L21.89 20.96H19.56V27.96C21.9164 27.5879 24.0622 26.3856 25.6099 24.5701C27.1576 22.7546 28.0054 20.4457 28 18.06C28 12.53 23.5 8.04004 18 8.04004Z" fill="white"/>
</svg>
